{
.appVersion = "3150";
.formatVersion = 3;
DisplayStrings = (
Q,
A,
"=",
"̀",
"ב",
"כ"
);
axes = (
{
name = Weight;
tag = wght;
}
);
customParameters = (
{
name = fsType;
value = (
);
},
{
name = "Write lastChange";
value = 0;
},
{
name = "Use Typo Metrics";
value = 1;
},
{
name = "Use Line Breaks";
value = 1;
},
{
name = "Axis Mappings";
value = {
wght = {
400 = 90;
500 = 110;
600 = 130;
700 = 140;
800 = 150;
};
};
},
{
name = "Enforce Compatibility Check";
value = 0;
}
);
date = "2021-07-16 04:59:07 +0000";
familyName = Mekorot;
fontMaster = (
{
axesValues = (
90
);
customParameters = (
{
name = hheaAscender;
value = 900;
},
{
name = hheaDescender;
value = -300;
},
{
name = hheaLineGap;
value = 0;
},
{
name = typoAscender;
value = 900;
},
{
name = typoDescender;
value = -300;
},
{
name = typoLineGap;
value = 0;
},
{
name = winAscent;
value = 1200;
},
{
name = winDescent;
value = 358;
},
{
name = underlinePosition;
value = -120;
},
{
name = underlineThickness;
value = 50;
},
{
name = strikeoutPosition;
value = 260;
},
{
name = strikeoutSize;
value = 50;
},
{
name = "Master Icon Glyph Name";
value = m;
},
{
name = "Alignment Zones";
value = (
{
pos = 890;
size = 10;
},
{
pos = 740;
size = 10;
},
{
pos = 560;
size = 11;
},
{
pos = 530;
size = 10;
},
{
pos = "-230";
size = "-10";
}
);
}
);
id = m01;
metricValues = (
{
pos = 760;
},
{
over = 10;
pos = 660;
},
{
over = 10;
pos = 450;
},
{
over = -10;
},
{
pos = -240;
},
{
}
);
name = Regular;
stemValues = (
55,
46,
90,
80
);
},
{
axesValues = (
150
);
customParameters = (
{
name = hheaAscender;
value = 900;
},
{
name = hheaDescender;
value = -300;
},
{
name = hheaLineGap;
value = 0;
},
{
name = typoAscender;
value = 900;
},
{
name = typoDescender;
value = -300;
},
{
name = typoLineGap;
value = 0;
},
{
name = winAscent;
value = 1200;
},
{
name = winDescent;
value = 358;
},
{
name = underlinePosition;
value = -120;
},
{
name = underlineThickness;
value = 50;
},
{
name = strikeoutPosition;
value = 260;
},
{

glyphs = (
{
color = 5;
glyphname = A;
kernLeft = kern_A3;
kernRight = kern_A3;
layers = (
{
anchors = (
{
name = bottom;
pos = (376,0);
},
{
name = right;
pos = (614,0);
},
{
name = top;
pos = (376,710);
}
);
layerId = m01;
shapes = (
{
closed = 1;
nodes = (
(239,0,ls),
(246,0,o),
(249,3,o),
(249,9,cs),
(249,13,o),
(246,17,o),
(239,20,cs),
(180,44,ls),
(172,47,o),
(169,50,o),
(169,56,cs),
(169,60,o),
(171,65,o),
(174,73,cs),
(235,225,ls),
(237,231,o),
(242,235,o),
(249,235,cs),
(472,235,ls),
(479,235,o),
(484,230,o),
(486,225,cs),
(547,74,ls),
(550,67,o),
(553,59,o),
(553,54,cs),
(553,51,o),
(552,48,o),
(544,45,cs),
(479,20,ls),
(471,17,o),
(469,13,o),
(469,9,cs),
(469,3,o),
(472,0,o),
(479,0,cs),
(707,0,ls),
(714,0,o),
(717,3,o),
(717,9,cs),
(717,13,o),
(715,17,o),
(707,21,cs),
(663,45,ls),
(650,52,o),
(648,57,o),
(641,74,cs),
(402,655,ls),
(399,662,o),
(395,665,o),
(388,665,cs),
(363,665,ls),
(356,665,o),
(352,662,o),
(349,655,cs),
(107,73,ls),
(101,58,o),
(95,48,o),
(87,44,cs),
(43,21,ls),
(35,17,o),
(33,13,o),
(33,9,cs),
(33,3,o),
(36,0,o),
(43,0,cs)
);
},
{
closed = 1;
nodes = (
(265,290,o),
(264,295,o),
(266,300,cs),
(353,516,ls),
(355,521,o),
(357,525,o),
(361,525,cs),
(365,525,o),
(367,521,o),
(369,516,cs),
(456,300,ls),
(458,295,o),
(457,290,o),
(450,290,cs),
(272,290,ls)
);
}
);
width = 750;
},
{
anchors = (
{
name = bottom;
pos = (339,0);
},
{
name = right;
pos = (650,0);
},
{
name = top;
pos = (392,710);
}
);
layerId = m002;
shapes = (
{
closed = 1;
nodes = (
(217,0,ls),
(224,0,o),
(227,3,o),
(227,9,cs),
(227,13,o),
(225,17,o),
(216,21,cs),
(165,44,ls),
(154,49,o),
(150,52,o),
(150,60,cs),
(150,62,o),
(150,65,o),
(155,77,cs),
(205,197,ls),
(207,203,o),
(212,207,o),
(219,207,cs),
(432,207,ls),
(439,207,o),
(444,202,o),
(446,197,cs),
(497,75,ls),
(502,63,o),
(503,60,o),
(503,57,cs),
(503,53,o),
(501,51,o),
(494,48,cs),
(429,20,ls),
(422,17,o),
(420,13,o),
(420,9,cs),
(420,3,o),
(423,0,o),
(430,0,cs),
(770,0,ls),
(777,0,o),
(780,3,o),
(780,9,cs),
(780,13,o),
(778,17,o),
(770,21,cs),
(723,45,ls),
(710,52,o),
(708,57,o),
(701,74,cs),
(453,655,ls),
(450,662,o),
(446,665,o),
(439,665,cs),
(343,665,ls),
(336,665,o),
(332,662,o),
(329,655,cs),
(79,74,ls),
(72,58,o),
(69,51,o),
(59,45,cs),
(20,22,ls),
(13,18,o),
(10,14,o),
(10,9,cs),
(10,3,o),
(13,0,o),
(20,0,cs)
);
},
{
closed = 1;
nodes = (
(235,262,o),
(234,267,o),
(236,272,cs),
(317,466,ls),
(319,471,o),
(321,475,o),
(325,475,cs),
(329,475,o),
(331,471,o),
(333,466,cs),
(415,272,ls),
(417,267,o),
(416,262,o),
(409,262,cs),
(242,262,ls)
);
}
);
width = 790;
},
{
anchors = (
{
name = bottom;
pos = (376,0);
},
{
name = right;
pos = (614,0);
},
{
name = top;
pos = (376,710);
}
);
associatedMasterId = m01;
layerId = "5E0F49AF-6F15-4AB5-86AB-424FB0D7332B";
name = "Sep 4, 21, 17:13";
shapes = (
{
closed = 1;
nodes = (
(249,0,l),
(249,16,l),
(152,55,l),
(156,28,l),
(386,599,l),
(335,599,l),
(566,28,l),
(578,58,l),
(469,16,l),
(469,0,l),
(717,0,l),
(717,16,l),
(610,73,l),
(660,28,l),
(398,665,l),
(353,665,l),
(88,28,l),
(119,61,l),
(33,16,l),
(33,0,l)
);
},
{
closed = 1;
nodes = (
(524,235,l),
(524,290,l),
(204,290,l),
(204,235,l)
);
}
);
width = 750;
},
{
anchors = (
{
name = bottom;
pos = (339,0);
},
{
name = right;
pos = (650,0);
},
{
name = top;
pos = (392,710);
}
);
associatedMasterId = m002;
layerId = "06EDCD22-488E-450B-817C-AF1740EF3E36";
name = "Jan 4, 22, 17:50";
shapes = (
{
closed = 1;
nodes = (
(227,0,l),
(227,16,l),
(125,62,l),
(134,28,l),
(348,539,l),
(303,539,l),
(517,28,l),
(529,63,l),
(420,16,l),
(420,0,l),
(780,0,l),
(780,16,l),
(686,64,l),
(721,28,l),
(449,665,l),
(334,665,l),
(59,28,l),
(88,62,l),
(10,16,l),
(10,0,l)
);
},
{
closed = 1;
nodes = (
(568,207,l),
(568,262,l),
(178,262,l),
(178,207,l)
);
}
);
width = 790;
}
);
unicode = 65;
},
{
color = 5;
glyphname = AE;
kernLeft = kern_AE2;
kernRight = kern_E1;
layers = (
{
anchors = (
{
name = top;
pos = (535,710);
}
);
layerId = m01;
shapes = (
{
closed = 1;
nodes = (
(892,0,ls),
(905,0,o),
(912,7,o),
(912,20,cs),
(912,162,ls),
(912,172,o),
(912,182,o),
(902,182,cs),
(879,182,o),
(854,55,o),
(804,55,cs),
(585,55,ls),
(572,55,o),
(565,62,o),
(565,75,cs),
(565,293,ls),
(565,303,o),
(572,313,o),
(585,313,cs),
(715,313,ls),
(751,313,o),
(773,232,o),
(791,232,cs),
(801,232,o),
(801,242,o),
(801,252,cs),
(801,431,ls),
(801,441,o),
(801,451,o),
(791,451,cs),
(773,451,o),
(751,368,o),
(715,368,cs),
(585,368,ls),
(572,368,o),
(565,375,o),
(565,388,cs),
(565,585,ls),
(565,597,o),
(573,605,o),
(585,605,cs),
(776,605,ls),
(826,605,o),
(854,488,o),
(874,488,cs),
(884,488,o),
(884,498,o),
(884,508,cs),
(884,640,ls),
(884,660,o),
(874,660,o),
(864,660,cs),
(518,660,ls),
(470,660,o),
(464,660,o),
(439,619,cs),
(102,66,ls),
(85,38,o),
(31,21,o),
(31,9,cs),
(31,2,o),
(35,0,o),
(41,0,cs),
(237,0,ls),
(244,0,o),
(247,4,o),
(247,10,cs),
(247,25,o),
(175,42,o),
(175,65,cs),
(175,70,o),
(181,80,o),
(191,97,cs),
(265,225,ls),
(269,231,o),
(273,235,o),
(281,235,cs),
(455,235,ls),
(471,235,o),
(475,231,o),
(475,215,cs),
(475,86,ls),
(475,36,o),
(395,27,o),
(395,10,cs),
(395,3,o),
(401,0,o),
(407,0,cs)
);
},
{
closed = 1;
nodes = (
(313,290,o),
(308,295,o),
(311,300,cs),
(462,556,ls),
(467,564,o),
(469,567,o),
(472,567,cs),
(475,567,o),
(475,564,o),
(475,556,cs),
(475,310,ls),
(475,294,o),
(471,290,o),
(455,290,cs),
(319,290,ls)
);
}
);
width = 982;
},
{
anchors = (
{
name = top;
pos = (580,710);
}
);
layerId = m002;
shapes = (
{
closed = 1;
nodes = (
(979,0,ls),
(992,0,o),
(999,7,o),
(999,20,cs),
(999,199,ls),
(999,209,o),
(999,219,o),
(989,219,cs),
(966,219,o),
(908,55,o),
(858,55,cs),
(688,55,ls),
(675,55,o),
(668,62,o),
(668,75,cs),
(668,293,ls),
(668,303,o),
(675,313,o),
(688,313,cs),
(790,313,ls),
(826,313,o),
(860,227,o),
(878,227,cs),
(888,227,o),
(888,237,o),
(888,247,cs),
(888,436,ls),
(888,446,o),
(888,456,o),
(878,456,cs),
(860,456,o),
(826,368,o),
(790,368,cs),
(688,368,ls),
(675,368,o),
(668,375,o),
(668,388,cs),
(668,585,ls),
(668,597,o),
(676,605,o),
(688,605,cs),
(844,605,ls),
(894,605,o),
(941,486,o),
(961,486,cs),
(971,486,o),
(971,496,o),
(971,506,cs),
(971,640,ls),
(971,660,o),
(961,660,o),
(951,660,cs),
(518,660,ls),
(470,660,o),
(465,660,o),
(439,619,cs),
(84,66,ls),
(66,38,o),
(10,21,o),
(10,9,cs),
(10,2,o),
(14,0,o),
(20,0,cs),
(217,0,ls),
(224,0,o),
(227,4,o),
(227,10,cs),
(227,25,o),
(163,42,o),
(163,65,cs),
(163,70,o),
(169,82,o),
(179,97,cs),
(255,217,ls),
(259,223,o),
(263,227,o),
(271,227,cs),
(458,227,ls),
(474,227,o),
(478,223,o),
(478,207,cs),
(478,86,ls),
(478,46,o),
(389,27,o),
(389,10,cs),
(389,3,o),
(395,0,o),
(401,0,cs)
);
},
{
closed = 1;
nodes = (
(306,282,o),
(301,287,o),
(304,292,cs),
(465,545,ls),
(468,550,o),
(471,553,o),
(474,553,cs),
(477,553,o),
(478,550,o),
(478,545,cs),
(475,302,ls),
(475,286,o),
(471,282,o),
(455,282,cs),
(312,282,ls)
);
}
);
width = 1059;
},
{
anchors = (
{
name = top;
pos = (535,710);
}
);
associatedMasterId = m01;
layerId = "BCF99ADD-44B1-4E93-81BD-D60E96CB8771";
name = "Dec 17, 21, 18:37";
shapes = (
{
closed = 1;
nodes = (
(79,28,l),
(141,75,l),
(28,16,l),
(28,0,l),
(243,0,l),
(243,16,l),
(142,59,l),
(150,28,l),
(490,603,l),
(475,603,l),
(475,56,l),
(395,16,l),
(395,0,l),
(565,0,l),
(565,660,l),
(464,660,l)
);
},
{
closed = 1;
nodes = (
(508,235,l),
(508,290,l),
(258,290,l),
(258,235,l)
);
},
{
closed = 1;
nodes = (
(512,660,l),
(512,605,l),
(806,605,l),
(868,488,l),
(884,488,l),
(884,660,l)
);
},
{
closed = 1;
nodes = (
(735,313,l),
(785,232,l),
(801,232,l),
(801,451,l),
(785,451,l),
(735,368,l),
(520,368,l),
(520,313,l)
);
},
{
closed = 1;
nodes = (
(912,182,l),
(896,182,l),
(834,55,l),
(540,55,l),
(540,0,l),
(912,0,l)
);
}
);
width = 982;
},
{
anchors = (
{
name = top;
pos = (580,710);
}
);
associatedMasterId = m002;
layerId = "E15231AF-F8B2-4B84-BD61-AC5B66FD2DB0";
name = "Dec 17, 21, 18:37";
shapes = (
{
closed = 1;
nodes = (
(59,28,l),
(129,83,l),
(10,16,l),
(10,0,l),
(227,0,l),
(227,16,l),
(125,62,l),
(134,28,l),
(500,599,l),
(478,599,l),
(478,58,l),
(389,16,l),
(389,0,l),
(668,0,l),
(668,660,l),
(464,660,l)
);
},
{
closed = 1;
nodes = (
(543,227,l),
(543,282,l),
(223,282,l),
(223,227,l)
);
},
{
closed = 1;
nodes = (
(566,660,l),
(566,605,l),
(873,605,l),
(955,486,l),
(971,486,l),
(971,660,l)
);
},
{
closed = 1;
nodes = (
(812,313,l),
(872,227,l),
(888,227,l),
(888,456,l),
(872,456,l),
(812,368,l),
(574,368,l),
(574,313,l)
);
},
{
closed = 1;
nodes = (
(999,219,l),
(983,219,l),
(894,55,l),
(594,55,l),
(594,0,l),
(999,0,l)
);
}
);
visible = 1;
width = 1059;
}
);
unicode = 198;
},
{
color = 5;
glyphname = B;
kernLeft = kern_H2;
kernRight = kern_B1;
layers = (
{
layerId = m01;
shapes = (
{
closed = 1;
nodes = (
(350,0,ls),
(493,0,o),
(606,82,o),
(606,192,cs),
(606,284,o),
(535,333,o),
(446,353,cs),
(437,355,o),
(431,356,o),
(431,359,cs),
(431,362,o),
(437,364,o),
(446,368,cs),
(500,392,o),
(549,443,o),
(549,512,cs),
(549,611,o),
(451,660,o),
(318,660,cs),
(75,660,ls),
(68,660,o),
(65,657,o),
(65,651,cs),
(65,645,o),
(69,642,o),
(75,639,cs),
(135,609,ls),
(143,605,o),
(145,601,o),
(145,594,cs),
(145,66,ls),
(145,59,o),
(143,55,o),
(135,51,cs),
(75,21,ls),
(67,17,o),
(65,14,o),
(65,9,cs),
(65,3,o),
(68,0,o),
(75,0,cs)
);
},
{
closed = 1;
nodes = (
(238,55,o),
(235,58,o),
(235,65,cs),
(235,303,ls),
(235,310,o),
(238,313,o),
(245,313,cs),
(333,313,ls),
(446,313,o),
(509,274,o),
(509,184,cs),
(509,108,o),
(444,55,o),
(340,55,cs),
(245,55,ls)
);
},
{
closed = 1;
nodes = (
(238,368,o),
(235,371,o),
(235,378,cs),
(235,595,ls),
(235,602,o),
(238,605,o),
(245,605,cs),
(295,605,ls),
(400,605,o),
(452,564,o),
(452,484,cs),
(452,411,o),
(398,368,o),
(301,368,cs),
(245,368,ls)
);
}
);
width = 658;
},
{
layerId = m002;
shapes = (
{
closed = 1;
nodes = (
(409,0,ls),
(581,0,o),
(717,72,o),
(717,192,cs),
(717,294,o),
(618,333,o),
(529,353,cs),
(520,355,o),
(514,356,o),
(514,359,cs),
(514,361,o),
(516,363,o),
(529,367,cs),
(586,384,o),
(656,433,o),
(656,512,cs),
(656,611,o),
(545,660,o),
(392,660,cs),
(40,660,ls),
(33,660,o),
(30,657,o),
(30,651,cs),
(30,645,o),
(34,642,o),
(40,639,cs),
(106,608,ls),
(115,604,o),
(119,601,o),
(119,594,cs),
(119,66,ls),
(119,59,o),
(115,56,o),
(106,52,cs),
(40,21,ls),
(32,17,o),
(30,14,o),
(30,9,cs),
(30,3,o),
(33,0,o),
(40,0,cs)
);
},
{
closed = 1;
nodes = (
(312,55,o),
(309,58,o),
(309,65,cs),
(309,308,ls),
(309,315,o),
(312,318,o),
(319,318,cs),
(357,318,ls),
(455,318,o),
(516,280,o),
(516,190,cs),
(516,114,o),
(468,55,o),
(372,55,cs),
(319,55,ls)
);
},
{
closed = 1;
nodes = (
(312,363,o),
(309,366,o),
(309,373,cs),
(309,595,ls),
(309,602,o),
(312,605,o),
(319,605,cs),
(339,605,ls),
(415,605,o),
(466,564,o),
(466,484,cs),
(466,411,o),
(414,363,o),
(344,363,cs),
(319,363,ls)
);
}
);
width = 737;
},
{
associatedMasterId = m01;
layerId = "1940F693-B751-47B2-B276-268A9F1CCE9E";
name = "Sep 4, 21, 18:33";
shapes = (
{
closed = 1;
nodes = (
(235,0,l),
(235,660,l),
(65,660,l),
(65,644,l),
(145,604,l),
(145,56,l),
(65,16,l),
(65,0,l)
);
},
{
closed = 1;
nodes = (
(493,0,o),
(606,82,o),
(606,192,cs),
(606,298,o),
(507,363,o),
(346,363,c),
(338,348,l),
(472,348,o),
(549,426,o),
(549,512,cs),
(549,611,o),
(451,660,o),
(318,660,cs),
(182,660,l),
(182,605,l),
(295,605,ls),
(400,605,o),
(452,564,o),
(452,484,cs),
(452,411,o),
(396,368,o),
(301,368,cs),
(190,368,l),
(190,313,l),
(333,313,ls),
(446,313,o),
(509,274,o),
(509,184,cs),
(509,108,o),
(445,55,o),
(340,55,cs),
(210,55,l),
(210,0,l),
(341,0,ls)
);
}
);
width = 658;
},
{
associatedMasterId = m002;
layerId = "7A17D213-3C29-424F-A57E-25012312F230";
name = "Jan 5, 22, 15:51";
shapes = (
{
closed = 1;
nodes = (
(309,0,l),
(309,660,l),
(30,660,l),
(30,644,l),
(119,602,l),
(119,58,l),
(30,16,l),
(30,0,l)
);
},
{
closed = 1;
nodes = (
(590,0,o),
(717,82,o),
(717,192,cs),
(717,298,o),
(596,363,o),
(407,363,c),
(407,348,l),
(564,348,o),
(656,426,o),
(656,512,cs),
(656,611,o),
(543,660,o),
(393,660,cs),
(227,660,l),
(227,605,l),
(327,605,ls),
(420,605,o),
(466,561,o),
(466,480,cs),
(466,409,o),
(416,363,o),
(332,363,cs),
(227,363,l),
(227,318,l),
(360,318,ls),
(460,318,o),
(516,275,o),
(516,189,cs),
(516,112,o),
(459,55,o),
(367,55,cs),
(227,55,l),
(227,0,l),
(418,0,ls)
);
}
);
width = 737;
}
);
unicode = 66;
},
{
color = 5;
glyphname = C;
kernLeft = kern_O2;
kernRight = kern_C1;
layers = (
{
anchors = (
{
name = bottom;
pos = (400,0);
},
{
name = top;
pos = (389,710);
}
);
layerId = m01;
shapes = (
{
closed = 1;
nodes = (
(510,-10,o),
(573,18,o),
(619,39,cs),
(627,43,o),
(631,48,o),
(634,66,cs),
(654,208,ls),
(655,215,o),
(651,218,o),
(645,218,cs),
(640,218,o),
(637,216,o),
(631,207,cs),
(559,105,ls),
(531,65,o),
(469,41,o),
(398,41,cs),
(268,41,o),
(163,152,o),
(163,342,cs),
(163,504,o),
(269,620,o),
(413,620,cs),
(488,620,o),
(519,573,o),
(530,557,cs),
(599,457,ls),
(604,449,o),
(607,447,o),
(613,447,cs),
(619,447,o),
(622,450,o),
(622,457,cs),
(618,613,ls),
(618,619,o),
(616,623,o),
(608,627,cs),
(568,647,o),
(515,670,o),
(415,670,cs),
(228,670,o),
(70,501,o),
(70,312,cs),
(70,126,o),
(195,-10,o),
(400,-10,cs)
);
}
);
width = 726;
},
{
anchors = (
{
name = bottom;
pos = (396,0);
},
{
name = top;
pos = (393,710);
}
);
layerId = m002;
shapes = (
{
closed = 1;
nodes = (
(500,-10,o),
(570,14,o),
(616,35,cs),
(624,39,o),
(629,44,o),
(631,62,cs),
(645,209,ls),
(646,216,o),
(642,219,o),
(636,219,cs),
(631,219,o),
(625,215,o),
(620,208,cs),
(534,91,ls),
(517,68,o),
(487,45,o),
(420,45,cs),
(307,45,o),
(234,153,o),
(234,332,cs),
(234,494,o),
(328,620,o),
(413,620,cs),
(480,620,o),
(504,603,o),
(515,587,cs),
(614,438,ls),
(619,430,o),
(623,428,o),
(629,428,cs),
(635,428,o),
(639,431,o),
(638,438,cs),
(626,598,ls),
(625,613,o),
(621,623,o),
(611,628,cs),
(570,648,o),
(525,670,o),
(415,670,cs),
(206,670,o),
(35,511,o),
(35,312,cs),
(35,126,o),
(195,-10,o),
(400,-10,cs)
);
}
);
width = 701;
},
{
anchors = (
{
name = bottom;
pos = (400,0);
},
{
name = top;
pos = (389,710);
}
);
associatedMasterId = m01;
layerId = "907C6FB9-1AE2-4F4E-89E9-E9A14BEE4A5A";
name = "Jan 5, 22, 17:30";
shapes = (
{
closed = 1;
nodes = (
(510,-10,o),
(564,10,o),
(623,39,c),
(634,198,l),
(617,198,l),
(540,62,l),
(578,106,l),
(535,76,o),
(486,41,o),
(398,41,cs),
(268,41,o),
(163,152,o),
(163,342,cs),
(163,504,o),
(269,620,o),
(413,620,cs),
(467,620,o),
(502,600,o),
(565,554,c),
(529,599,l),
(605,447,l),
(623,447,l),
(618,622,l),
(563.216,648.894,o),
(515,670,o),
(415,670,cs),
(228,670,o),
(70,501.471,o),
(70,312,cs),
(70,126,o),
(195,-10,o),
(400,-10,cs)
);
}
);
width = 726;
},
{
anchors = (
{
name = bottom;
pos = (396,0);
},
{
name = top;
pos = (393,710);
}
);
associatedMasterId = m002;
layerId = "04B03A56-2F7C-401E-8EE4-F88469DCE428";
name = "Jan 5, 22, 17:36";
shapes = (
{
closed = 1;
nodes = (
(486,-10,o),
(578,10,o),
(629,44,c),
(646,219,l),
(628,219,l),
(505,51,l),
(541,82,l),
(500,54,o),
(462,45,o),
(420,45,cs),
(312,45,o),
(234,150,o),
(234,316,cs),
(234,503,o),
(317,620,o),
(424,620,cs),
(470,620,o),
(492,612,o),
(524,591,c),
(495,615,l),
(621,428,l),
(639,428,l),
(624,622,l),
(566,650,o),
(523,670,o),
(415,670,cs),
(222,670,o),
(35,524,o),
(35,319,cs),
(35,133,o),
(185,-10,o),
(398,-10,cs)
);
}
);
width = 701;
}
);
unicode = 67;
},
{
color = 5;
glyphname = Ccedilla;
kernLeft = kern_O2;
kernRight = kern_C1;
layers = (
{
layerId = m01;
shapes = (
{
closed = 1;
nodes = (
(471,-240,o),
(497,-196,o),
(497,-152,cs),
(497,-80,o),
(423,-65,o),
(407,-59,cs),
(401,-57,o),
(394,-54,o),
(396,-49,cs),
(408,-23,ls),
(413,-13,o),
(422,-10,o),
(424,-10,cs),
(521,-6,o),
(592,22,o),
(612,41,cs),
(622,51,o),
(635,67,o),
(635,168,cs),
(635,187,o),
(631,194,o),
(618,194,cs),
(599,194,o),
(582,116,o),
(557,91,cs),
(529,64,o),
(472,41,o),
(398,41,cs),
(268,41,o),
(163,152,o),
(163,342,cs),
(163,504,o),
(269,620,o),
(413,620,cs),
(570,620,o),
(580,447,o),
(606,447,cs),
(623,447,o),
(625,459,o),
(625,473,cs),
(625,600,o),
(616,620,o),
(592,632,cs),
(549,653,o),
(515,670,o),
(415,670,cs),
(228,670,o),
(70,501,o),
(70,312,cs),
(70,135,o),
(178,-9,o),
(366,-9,cs),
(374,-9,o),
(375,-11,o),
(375,-14,cs),
(375,-20,o),
(372,-26,o),
(361,-49,cs),
(353,-66,o),
(340,-90,o),
(340,-100,cs),
(340,-106,o),
(343,-107,o),
(396,-125,cs),
(426,-135,o),
(437,-152,o),
(437,-175,cs),
(437,-196,o),
(415,-210,o),
(386,-210,cs),
(343,-210,o),
(325,-196,o),
(321,-196,cs),
(316,-196,o),
(315,-199,o),
(315,-208,cs),
(315,-223,o),
(356,-240,o),
(397,-240,cs)
);
}
);
width = 726;
},
{
layerId = m002;
shapes = (
{
closed = 1;
nodes = (
(467,-240,o),
(503,-192,o),
(503,-143,cs),
(503,-78,o),
(463,-61,o),
(415,-40,cs),
(409,-37,o),
(400,-35,o),
(402,-30,cs),
(406,-21,ls),
(410,-11,o),
(414,-10,o),
(417,-10,cs),
(514,-7,o),
(597,22,o),
(617,41,cs),
(627,51,o),
(645,92,o),
(645,193,cs),
(645,212,o),
(641,219,o),
(628,219,cs),
(609,219,o),
(551,105,o),
(526,80,cs),
(498,53,o),
(460,45,o),
(415,45,cs),
(315,45,o),
(234,146,o),
(234,342,cs),
(234,504,o),
(322,620,o),
(423,620,cs),
(549,620,o),
(592,428,o),
(618,428,cs),
(635,428,o),
(637,440,o),
(637,454,cs),
(637,583,o),
(619,622,o),
(595,634,cs),
(552,655,o),
(515,670,o),
(415,670,cs),
(194,670,o),
(35,509,o),
(35,312,cs),
(35,148,o),
(187,-9,o),
(360,-9,cs),
(368,-9,o),
(369,-11,o),
(369,-14,cs),
(369,-20,o),
(359,-38,o),
(348,-61,cs),
(340,-78,o),
(333,-87,o),
(333,-97,cs),
(333,-107,o),
(365,-112,o),
(382,-119,cs),
(412,-131,o),
(426,-147,o),
(426,-169,cs),
(426,-191,o),
(410,-208,o),
(376,-208,cs),
(333,-208,o),
(323,-197,o),
(319,-197,cs),
(314,-197,o),
(313,-203,o),
(313,-212,cs),
(313,-226,o),
(347,-240,o),
(397,-240,cs)
);
}
);
width = 701;
},
{
associatedMasterId = m01;
layerId = "F23BD1E7-F420-4190-8DB6-D69E396AE707";
name = "Dec 21, 21, 18:18";
shapes = (
{
closed = 1;
nodes = (
(510,-10,o),
(564,10,o),
(623,39,c),
(634,198,l),
(617,198,l),
(540,62,l),
(578,106,l),
(535,76,o),
(486,41,o),
(398,41,cs),
(268,41,o),
(163,152,o),
(163,342,cs),
(163,504,o),
(269,620,o),
(413,620,cs),
(467,620,o),
(502,600,o),
(565,554,c),
(529,599,l),
(605,447,l),
(623,447,l),
(618,622,l),
(563,649,o),
(515,670,o),
(415,670,cs),
(228,670,o),
(70,501,o),
(70,312,cs),
(70,126,o),
(195,-10,o),
(400,-10,cs)
);
},
{
closed = 1;
nodes = (
(356,-210,o),
(338,-206,o),
(320,-198,c),
(317,-198,l),
(317,-210,l),
(335,-231,o),
(363,-240,o),
(400,-240,c),
(463,-240,o),
(497,-203,o),
(497,-155,cs),
(497,-98,o),
(465,-75,o),
(374,-49,c),
(387,-69,l),
(428,20,l),
(393,20,l),
(336,-103,l),
(415,-128,o),
(437,-142,o),
(437,-171,cs),
(437,-192,o),
(423,-210,o),
(383,-210,cs)
);
}
);
width = 726;
},
{
associatedMasterId = m002;
layerId = "FE7CBF7C-5857-4481-BE0C-C3B6237CD6CC";
name = "Dec 21, 21, 18:18";
shapes = (
{
closed = 1;
nodes = (
(486,-10,o),
(578,10,o),
(629,44,c),
(646,219,l),
(628,219,l),
(505,51,l),
(541,82,l),
(500,54,o),
(462,45,o),
(420,45,cs),
(312,45,o),
(234,150,o),
(234,316,cs),
(234,503,o),
(317,620,o),
(424,620,cs),
(470,620,o),
(492,612,o),
(524,591,c),
(495,615,l),
(621,428,l),
(639,428,l),
(624,622,l),
(566,650,o),
(523,670,o),
(415,670,cs),
(222,670,o),
(35,524,o),
(35,319,cs),
(35,133,o),
(185,-10,o),
(398,-10,cs)
);
},
{
closed = 1;
nodes = (
(354,-208,o),
(332,-205,o),
(317,-197,c),
(313,-197,l),
(313,-220,l),
(334,-233,o),
(359,-240,o),
(393,-240,cs),
(458,-240,o),
(503,-200,o),
(503,-143,cs),
(503,-85,o),
(471,-51,o),
(371,-27,c),
(388,-61,l),
(428,27,l),
(388,27,l),
(329,-103,l),
(408,-122,o),
(426,-142,o),
(426,-170,cs),
(426,-196,o),
(404,-208,o),
(370,-208,cs)
);
}
);
visible = 1;
width = 701;
}
);
unicode = 199;
},
{
color = 5;
glyphname = D;
kernLeft = kern_H2;
kernRight = kern_O1;
layers = (
{
anchors = (
{
name = bottom;
pos = (388,0);
},
{
name = top;
pos = (388,710);
}
);
layerId = m01;
shapes = (
{
closed = 1;
nodes = (
(351,0,ls),
(554,0,o),
(705,152,o),
(705,360,cs),
(705,532,o),
(579,660,o),
(358,660,cs),
(75,660,ls),
(68,660,o),
(65,657,o),
(65,651,cs),
(65,644,o),
(69,642,o),
(75,639,cs),
(125,614,ls),
(143,605,o),
(145,600,o),
(145,585,cs),
(145,75,ls),
(145,60,o),
(141,54,o),
(125,46,cs),
(75,21,ls),
(66,17,o),
(65,13,o),
(65,9,cs),
(65,3,o),
(68,0,o),
(75,0,cs)
);
},
{
closed = 1;
nodes = (
(238,55,o),
(235,58,o),
(235,75,cs),
(235,585,ls),
(235,602,o),
(238,605,o),
(255,605,cs),
(335,605,ls),
(511,605,o),
(610,496,o),
(610,329,cs),
(610,162,o),
(511,55,o),
(350,55,cs),
(255,55,ls)
);
}
);
width = 775;
},
{
anchors = (
{
name = bottom;
pos = (413,0);
},
{
name = top;
pos = (393,710);
}
);
layerId = m002;
shapes = (
{
closed = 1;
nodes = (
(384,0,ls),
(637,0,o),
(791,152,o),
(791,360,cs),
(791,529,o),
(664,660,o),
(382,660,cs),
(40,660,ls),
(33,660,o),
(30,657,o),
(30,651,cs),
(30,644,o),
(34,642,o),
(40,639,cs),
(109,607,ls),
(117,603,o),
(119,599,o),
(119,592,cs),
(119,68,ls),
(119,61,o),
(115,56,o),
(109,53,cs),
(40,21,ls),
(32,17,o),
(30,13,o),
(30,9,cs),
(30,3,o),
(33,0,o),
(40,0,cs)
);
},
{
closed = 1;
nodes = (
(312,55,o),
(309,58,o),
(309,65,cs),
(309,595,ls),
(309,602,o),
(312,605,o),
(319,605,cs),
(337,605,ls),
(523,605,o),
(594,496,o),
(594,329,cs),
(594,162,o),
(523,55,o),
(352,55,cs),
(319,55,ls)
);
}
);
width = 820;
},
{
anchors = (
{
name = bottom;
pos = (388,0);
},
{
name = top;
pos = (388,710);
}
);
associatedMasterId = m01;
layerId = "16C76F8F-FC82-40ED-B13B-93CD83D58718";
name = "Jan 5, 22, 17:58";
shapes = (
{
closed = 1;
nodes = (
(235,0,l),
(235,660,l),
(65,660,l),
(65,644,l),
(145,604,l),
(145,56,l),
(65,16,l),
(65,0,l)
);
},
{
closed = 1;
nodes = (
(554,0,o),
(705,152,o),
(705,360,cs),
(705,532,o),
(579,660,o),
(358,660,cs),
(182,660,l),
(182,605,l),
(335,605,ls),
(511,605,o),
(610,496,o),
(610,329,cs),
(610,162,o),
(509,55,o),
(350,55,cs),
(210,55,l),
(210,0,l),
(351,0,ls)
);
}
);
width = 775;
},
{
anchors = (
{
name = bottom;
pos = (413,0);
},
{
name = top;
pos = (393,710);
}
);
associatedMasterId = m002;
layerId = "8689960B-132B-46F0-B5AB-6BD4A0816CC2";
name = "Jan 5, 22, 22:23";
shapes = (
{
closed = 1;
nodes = (
(309,0,l),
(309,660,l),
(30,660,l),
(30,644,l),
(119,602,l),
(119,58,l),
(30,16,l),
(30,0,l)
);
},
{
closed = 1;
nodes = (
(624,0,o),
(790,152,o),
(790,360,cs),
(790,532,o),
(649,660,o),
(402,660,cs),
(256,660,l),
(256,605,l),
(349,605,ls),
(514,605,o),
(594,498,o),
(594,329,cs),
(594,162,o),
(514,55,o),
(364,55,cs),
(284,55,l),
(284,0,l),
(395,0,ls)
);
}
);
width = 820;
}
);
unicode = 68;
},
{
color = 5;
glyphname = Eth;
layers = (
{
layerId = m01;
shapes = (
{
closed = 1;
nodes = (
(351,0,ls),
(554,0,o),
(705,152,o),
(705,360,cs),
(705,532,o),
(579,660,o),
(358,660,cs),
(85,660,ls),
(73,660,o),
(65,657,o),
(65,645,cs),
(65,619,o),
(145,613,o),
(145,579,cs),
(145,387,ls),
(145,371,o),
(141,367,o),
(125,367,cs),
(85,367,ls),
(69,367,o),
(65,363,o),
(65,347,cs),
(65,337,ls),
(65,321,o),
(69,317,o),
(85,317,cs),
(125,317,ls),
(141,317,o),
(145,313,o),
(145,297,cs),
(145,77,ls),
(145,39,o),
(65,39,o),
(65,12,cs),
(65,5,o),
(68,0,o),
(75,0,cs)
);
},
{
closed = 1;
nodes = (
(240,55,o),
(235,62,o),
(235,74,cs),
(235,297,ls),
(235,313,o),
(239,317,o),
(255,317,cs),
(390,317,ls),
(410,317,o),
(410,321,o),
(410,337,cs),
(410,347,ls),
(410,363,o),
(406,367,o),
(390,367,cs),
(255,367,ls),
(239,367,o),
(235,371,o),
(235,387,cs),
(235,582,ls),
(235,600,o),
(242,605,o),
(258,605,cs),
(335,605,ls),
(511,605,o),
(610,496,o),
(610,329,cs),
(610,162,o),
(511,55,o),
(350,55,cs),
(253,55,ls)
);
}
);
width = 775;
},
{
layerId = m002;
shapes = (
{
closed = 1;
nodes = (
(386,0,ls),
(639,0,o),
(791,152,o),
(791,360,cs),
(791,532,o),
(664,660,o),
(393,660,cs),
(50,660,ls),
(38,660,o),
(30,657,o),
(30,645,cs),
(30,619,o),
(119,613,o),
(119,579,cs),
(119,390,ls),
(119,374,o),
(115,370,o),
(99,370,cs),
(50,370,ls),
(34,370,o),
(30,366,o),
(30,350,cs),
(30,335,ls),
(30,319,o),
(34,315,o),
(50,315,cs),
(99,315,ls),
(115,315,o),
(119,311,o),
(119,295,cs),
(119,77,ls),
(119,39,o),
(31,39,o),
(31,12,cs),
(31,5,o),
(34,0,o),
(41,0,cs)
);
},
{
closed = 1;
nodes = (
(314,55,o),
(309,62,o),
(309,74,cs),
(309,297,ls),
(309,313,o),
(313,317,o),
(329,317,cs),
(425,317,ls),
(445,317,o),
(445,321,o),
(445,337,cs),
(445,347,ls),
(445,363,o),
(441,367,o),
(425,367,cs),
(329,367,ls),
(313,367,o),
(309,371,o),
(309,387,cs),
(309,582,ls),
(309,600,o),
(316,605,o),
(332,605,cs),
(370,605,ls),
(506,605,o),
(594,496,o),
(594,329,cs),
(594,162,o),
(506,55,o),
(385,55,cs),
(327,55,ls)
);
}
);
width = 820;
},
{
associatedMasterId = m01;
layerId = "10511A45-461C-4477-A0DC-F8E4ADC6BEB9";
name = "Dec 17, 21, 20:33";
shapes = (
{
closed = 1;
nodes = (
(235,0,l),
(235,660,l),
(65,660,l),
(65,644,l),
(145,604,l),
(145,56,l),
(65,16,l),
(65,0,l)
);
},
{
closed = 1;
nodes = (
(554,0,o),
(705,152,o),
(705,360,cs),
(705,532,o),
(579,660,o),
(358,660,cs),
(182,660,l),
(182,605,l),
(335,605,ls),
(511,605,o),
(610,496,o),
(610,329,cs),
(610,162,o),
(511,55,o),
(350,55,cs),
(210,55,l),
(210,0,l),
(351,0,ls)
);
},
{
closed = 1;
nodes = (
(410,317,l),
(410,367,l),
(65,367,l),
(65,317,l)
);
}
);
width = 775;
},
{
associatedMasterId = m002;
layerId = "AF58C631-1E6C-4898-A889-43484B4E41DE";
name = "Dec 17, 21, 20:33";
shapes = (
{
closed = 1;
nodes = (
(309,0,l),
(309,660,l),
(30,660,l),
(30,644,l),
(119,602,l),
(119,58,l),
(30,16,l),
(30,0,l)
);
},
{
closed = 1;
nodes = (
(624,0,o),
(790,152,o),
(790,360,cs),
(790,532,o),
(649,660,o),
(402,660,cs),
(256,660,l),
(256,605,l),
(349,605,ls),
(514,605,o),
(594,498,o),
(594,329,cs),
(594,162,o),
(514,55,o),
(364,55,cs),
(284,55,l),
(284,0,l),
(395,0,ls)
);
},
{
closed = 1;
nodes = (
(445,315,l),
(445,370,l),
(30,370,l),
(30,315,l)
);
}
);
width = 820;
}
);
unicode = 208;
},
{
color = 5;
glyphname = E;
kernLeft = kern_H2;
kernRight = kern_E1;
layers = (
{
anchors = (
{
name = bottom;
pos = (350,0);
},
{
name = right;
pos = (505,0);
},
{
name = top;
pos = (335,710);
}
);
layerId = m01;
shapes = (
{
closed = 1;
nodes = (
(562,0,ls),
(577,0,o),
(582,5,o),
(582,20,cs),
(582,162,ls),
(582,172,o),
(582,182,o),
(572,182,cs),
(567,182,o),
(562,172,o),
(557,162,cs),
(518,84,ls),
(506,60,o),
(497,55,o),
(474,55,cs),
(255,55,ls),
(240,55,o),
(235,60,o),
(235,75,cs),
(235,293,ls),
(235,308,o),
(240,313,o),
(255,313,cs),
(385,313,ls),
(400,313,o),
(408,309,o),
(414,299,cs),
(443,251,ls),
(449,240,o),
(455,232,o),
(461,232,cs),
(471,232,o),
(471,242,o),
(471,252,cs),
(471,431,ls),
(471,442,o),
(471,451,o),
(461,451,cs),
(455,451,o),
(450,442,o),
(443,431,cs),
(414,383,ls),
(408,373,o),
(400,368,o),
(385,368,cs),
(255,368,ls),
(240,368,o),
(235,373,o),
(235,388,cs),
(235,585,ls),
(235,600,o),
(240,605,o),
(255,605,cs),
(446,605,ls),
(471,605,o),
(479,599,o),
(486,586,cs),
(529,505,ls),
(537,490,o),
(540,488,o),
(545,488,cs),
(552,488,o),
(554,492,o),
(554,508,cs),
(554,640,ls),
(554,655,o),
(549,660,o),
(534,660,cs),
(75,660,ls),
(68,660,o),
(65,657,o),
(65,650,cs),
(65,645,o),
(69,642,o),
(75,639,cs),
(125,614,ls),
(141,606,o),
(145,600,o),
(145,585,cs),
(145,76,ls),
(145,61,o),
(139,53,o),
(125,46,cs),
(75,21,ls),
(69,18,o),
(65,15,o),
(65,10,cs),
(65,3,o),
(68,0,o),
(75,0,cs)
);
}
);
width = 652;
},
{
anchors = (
{
name = bottom;
pos = (366,0);
},
{
name = right;
pos = (569,0);
},
{
name = top;
pos = (366,710);
}
);
layerId = m002;
shapes = (
{
closed = 1;
nodes = (
(620,0,ls),
(635,0,o),
(640,5,o),
(640,20,cs),
(640,199,ls),
(640,209,o),
(640,219,o),
(630,219,cs),
(625,219,o),
(618,209,o),
(613,199,cs),
(551,84,ls),
(538,61,o),
(530,55,o),
(507,55,cs),
(329,55,ls),
(314,55,o),
(309,60,o),
(309,75,cs),
(309,293,ls),
(309,308,o),
(314,313,o),
(329,313,cs),
(434,313,ls),
(449,313,o),
(456,309,o),
(463,299,cs),
(500,246,ls),
(508,235,o),
(513,227,o),
(519,227,cs),
(529,227,o),
(529,237,o),
(529,247,cs),
(529,436,ls),
(529,447,o),
(529,456,o),
(519,456,cs),
(513,456,o),
(506,446,o),
(499,436,cs),
(463,383,ls),
(457,374,o),
(449,368,o),
(434,368,cs),
(329,368,ls),
(314,368,o),
(309,373,o),
(309,388,cs),
(309,585,ls),
(309,600,o),
(314,605,o),
(329,605,cs),
(487,605,ls),
(512,605,o),
(519,598,o),
(527,586,cs),
(584,503,ls),
(593,490,o),
(598,486,o),
(603,486,cs),
(610,486,o),
(612,490,o),
(612,506,cs),
(612,640,ls),
(612,655,o),
(607,660,o),
(592,660,cs),
(40,660,ls),
(33,660,o),
(30,657,o),
(30,650,cs),
(30,645,o),
(34,642,o),
(40,639,cs),
(100,611,ls),
(117,603,o),
(119,600,o),
(119,585,cs),
(119,76,ls),
(119,61,o),
(114,56,o),
(100,49,cs),
(40,21,ls),
(34,18,o),
(30,15,o),
(30,10,cs),
(30,3,o),
(33,0,o),
(40,0,cs)
);
}
);
width = 700;
},
{
anchors = (
{
name = bottom;
pos = (350,0);
},
{
name = right;
pos = (505,0);
},
{
name = top;
pos = (335,710);
}
);
associatedMasterId = m01;
layerId = "3F5E9318-3EB2-4AB9-8833-9C5BF299DFD2";
name = "Sep 4, 21, 19:08";
shapes = (
{
closed = 1;
nodes = (
(235,0,l),
(235,660,l),
(65,660,l),
(65,644,l),
(145,604,l),
(145,56,l),
(65,16,l),
(65,0,l)
);
},
{
closed = 1;
nodes = (
(554,488,l),
(554,660,l),
(182,660,l),
(182,605,l),
(476,605,l),
(538,488,l)
);
},
{
closed = 1;
nodes = (
(471,232,l),
(471,451,l),
(455,451,l),
(405,368,l),
(190,368,l),
(190,313,l),
(405,313,l),
(455,232,l)
);
},
{
closed = 1;
nodes = (
(582,182,l),
(566,182,l),
(504,55,l),
(210,55,l),
(210,0,l),
(582,0,l)
);
}
);
visible = 1;
width = 652;
},
{
anchors = (
{
name = bottom;
pos = (366,0);
},
{
name = right;
pos = (569,0);
},
{
name = top;
pos = (366,710);
}
);
associatedMasterId = m002;
layerId = "C341B3D5-E26C-4F4F-B8E5-C020818AEF0D";
name = "Sep 4, 21, 22:01";
shapes = (
{
closed = 1;
nodes = (
(309,0,l),
(309,660,l),
(30,660,l),
(30,644,l),
(119,602,l),
(119,58,l),
(30,16,l),
(30,0,l)
);
},
{
closed = 1;
nodes = (
(612,486,l),
(612,660,l),
(207,660,l),
(207,605,l),
(514,605,l),
(596,486,l)
);
},
{
closed = 1;
nodes = (
(529,227,l),
(529,456,l),
(513,456,l),
(453,368,l),
(215,368,l),
(215,313,l),
(453,313,l),
(513,227,l)
);
},
{
closed = 1;
nodes = (
(640,219,l),
(624,219,l),
(535,55,l),
(235,55,l),
(235,0,l),
(640,0,l)
);
}
);
width = 700;
}
);
unicode = 69;
},
{
color = 5;
glyphname = F;
kernLeft = kern_H2;
kernRight = kern_F1;
layers = (
{
layerId = m01;
shapes = (
{
closed = 1;
nodes = (
(315,0,ls),
(322,0,o),
(325,3,o),
(325,10,cs),
(325,15,o),
(319,19,o),
(314,21,cs),
(257,46,ls),
(241,53,o),
(235,61,o),
(235,76,cs),
(235,293,ls),
(235,308,o),
(240,313,o),
(255,313,cs),
(375,313,ls),
(390,313,o),
(398,309,o),
(404,299,cs),
(433,251,ls),
(439,240,o),
(445,232,o),
(451,232,cs),
(461,232,o),
(461,242,o),
(461,252,cs),
(461,431,ls),
(461,442,o),
(461,451,o),
(451,451,cs),
(445,451,o),
(440,442,o),
(433,431,cs),
(404,383,ls),
(398,373,o),
(390,368,o),
(375,368,cs),
(255,368,ls),
(240,368,o),
(235,373,o),
(235,388,cs),
(235,585,ls),
(235,600,o),
(240,605,o),
(255,605,cs),
(436,605,ls),
(461,605,o),
(469,599,o),
(476,586,cs),
(519,505,ls),
(527,490,o),
(530,488,o),
(535,488,cs),
(542,488,o),
(544,492,o),
(544,508,cs),
(544,640,ls),
(544,655,o),
(539,660,o),
(524,660,cs),
(75,660,ls),
(68,660,o),
(65,657,o),
(65,650,cs),
(65,645,o),
(69,642,o),
(75,639,cs),
(125,614,ls),
(141,606,o),
(145,600,o),
(145,585,cs),
(145,76,ls),
(145,61,o),
(139,53,o),
(125,46,cs),
(75,21,ls),
(69,18,o),
(65,15,o),
(65,10,cs),
(65,3,o),
(68,0,o),
(75,0,cs)
);
}
);
width = 614;
},
{
layerId = m002;
shapes = (
{
closed = 1;
nodes = (
(409,0,ls),
(416,0,o),
(419,3,o),
(419,10,cs),
(419,15,o),
(414,18,o),
(409,20,cs),
(330,50,ls),
(314,56,o),
(309,61,o),
(309,76,cs),
(309,298,ls),
(309,313,o),
(314,318,o),
(329,318,cs),
(424,318,ls),
(439,318,o),
(447,313,o),
(453,304,cs),
(489,252,ls),
(496,242,o),
(503,232,o),
(509,232,cs),
(519,232,o),
(519,242,o),
(519,252,cs),
(519,431,ls),
(519,442,o),
(519,451,o),
(509,451,cs),
(503,451,o),
(496,441,o),
(489,431,cs),
(453,378,ls),
(447,369,o),
(439,363,o),
(424,363,cs),
(329,363,ls),
(314,363,o),
(309,368,o),
(309,383,cs),
(309,585,ls),
(309,600,o),
(314,605,o),
(329,605,cs),
(485,605,ls),
(510,605,o),
(518,598,o),
(525,586,cs),
(576,503,ls),
(585,489,o),
(588,486,o),
(593,486,cs),
(600,486,o),
(602,490,o),
(602,506,cs),
(602,640,ls),
(602,655,o),
(597,660,o),
(582,660,cs),
(40,660,ls),
(33,660,o),
(30,657,o),
(30,650,cs),
(30,645,o),
(34,642,o),
(40,639,cs),
(100,611,ls),
(117,603,o),
(119,600,o),
(119,585,cs),
(119,76,ls),
(119,61,o),
(114,56,o),
(100,49,cs),
(40,21,ls),
(34,18,o),
(30,15,o),
(30,10,cs),
(30,3,o),
(33,0,o),
(40,0,cs)
);
}
);
width = 642;
},
{
associatedMasterId = m01;
layerId = "9CC29693-DEFC-4E33-8131-EF806F0F37F5";
name = "Jan 8, 22, 23:00";
shapes = (
{
closed = 1;
nodes = (
(325,0,l),
(325,16,l),
(235,56,l),
(235,660,l),
(65,660,l),
(65,644,l),
(145,604,l),
(145,56,l),
(65,16,l),
(65,0,l)
);
},
{
closed = 1;
nodes = (
(544,488,l),
(544,660,l),
(172,660,l),
(172,605,l),
(466,605,l),
(528,488,l)
);
},
{
closed = 1;
nodes = (
(461,232,l),
(461,451,l),
(445,451,l),
(395,368,l),
(180,368,l),
(180,313,l),
(395,313,l),
(445,232,l)
);
}
);
width = 614;
},
{
associatedMasterId = m002;
layerId = "386DAD12-1C39-4A2F-A5C3-DC0B2C17DE8C";
name = "Jan 8, 22, 23:00";
shapes = (
{
closed = 1;
nodes = (
(419,0,l),
(419,16,l),
(309,58,l),
(309,660,l),
(30,660,l),
(30,644,l),
(119,602,l),
(119,58,l),
(30,16,l),
(30,0,l)
);
},
{
closed = 1;
nodes = (
(602,486,l),
(602,660,l),
(207,660,l),
(207,605,l),
(514,605,l),
(586,486,l)
);
},
{
closed = 1;
nodes = (
(519,232,l),
(519,451,l),
(503,451,l),
(443,363,l),
(215,363,l),
(215,318,l),
(443,318,l),
(503,232,l)
);
}
);
width = 642;
}
);
unicode = 70;
},
{
color = 5;
glyphname = G;
kernLeft = kern_O2;
kernRight = kern_G1;
layers = (
{
anchors = (
{
name = bottom;
pos = (415,0);
},
{
name = top;
pos = (400,710);
}
);
layerId = m01;
shapes = (
{
closed = 1;
nodes = (
(516,-10,o),
(580,35,o),
(598,35,cs),
(603,35,o),
(607,32,o),
(610,27,cs),
(622,10,ls),
(627,2,o),
(632,0,o),
(638,0,cs),
(645,0,o),
(649,4,o),
(649,18,cs),
(649,215,ls),
(649,230,o),
(653,234,o),
(668,243,cs),
(707,267,ls),
(713,271,o),
(718,275,o),
(718,280,cs),
(718,287,o),
(715,290,o),
(708,290,cs),
(480,290,ls),
(473,290,o),
(470,287,o),
(470,280,cs),
(470,275,o),
(474,272,o),
(480,269,cs),
(539,243,ls),
(556,235,o),
(559,230,o),
(559,215,cs),
(559,99,ls),
(559,63,o),
(522,48,o),
(432,48,cs),
(280,48,o),
(159,163,o),
(159,362,cs),
(159,510,o),
(270,620,o),
(424,620,cs),
(505,620,o),
(553,581,o),
(579,535,cs),
(614,473,ls),
(620,462,o),
(624,457,o),
(630,457,cs),
(636,457,o),
(639,461,o),
(639,473,cs),
(639,595,ls),
(639,613,o),
(636,625,o),
(609,636,cs),
(549,660,o),
(500,670,o),
(426,670,cs),
(230,670,o),
(70,517,o),
(70,312,cs),
(70,126,o),
(211,-10,o),
(403,-10,cs)
);
}
);
width = 768;
},
{
anchors = (
{
name = bottom;
pos = (405,0);
},
{
name = top;
pos = (406,710);
}
);
layerId = m002;
shapes = (
{
closed = 1;
nodes = (
(516,-10,o),
(584,35,o),
(602,35,cs),
(607,35,o),
(611,32,o),
(614,27,cs),
(626,10,ls),
(631,2,o),
(636,0,o),
(642,0,cs),
(649,0,o),
(653,4,o),
(653,18,cs),
(653,223,ls),
(653,238,o),
(657,241,o),
(672,251,cs),
(721,284,ls),
(727,288,o),
(732,292,o),
(732,297,cs),
(732,304,o),
(729,307,o),
(722,307,cs),
(384,307,ls),
(377,307,o),
(374,304,o),
(374,297,cs),
(374,292,o),
(378,288,o),
(384,285,cs),
(443,251,ls),
(459,242,o),
(463,238,o),
(463,223,cs),
(463,82,ls),
(463,56,o),
(442,43,o),
(422,43,cs),
(325,43,o),
(236,133,o),
(236,332,cs),
(236,480,o),
(318,622,o),
(434,622,cs),
(516,622,o),
(546,580,o),
(574,535,cs),
(623,455,ls),
(630,444,o),
(633,439,o),
(639,439,cs),
(645,439,o),
(648,443,o),
(648,452,cs),
(648,595,ls),
(648,613,o),
(645,625,o),
(618,636,cs),
(558,660,o),
(510,670,o),
(426,670,cs),
(211,670,o),
(37,517,o),
(37,312,cs),
(37,126,o),
(200,-10,o),
(403,-10,cs)
);
}
);
width = 749;
},
{
anchors = (
{
name = bottom;
pos = (415,0);
},
{
name = top;
pos = (400,710);
}
);
associatedMasterId = m01;
layerId = "7E5DB516-6237-4E13-9D20-5799A2171CD8";
name = "Jan 11, 22, 09:38";
shapes = (
{
closed = 1;
nodes = (
(489,-10,o),
(588,23,o),
(649,74,c),
(649,231,l),
(718,274,l),
(718,290,l),
(470,290,l),
(470,274,l),
(559,234,l),
(559,61,l),
(588,82,l),
(533,54,o),
(485,48,o),
(432,48,cs),
(280,48,o),
(159,163,o),
(159,362,cs),
(159,510,o),
(270,620,o),
(424,620,cs),
(481,620,o),
(514,604,o),
(584,554,c),
(546,598,l),
(628,457,l),
(644,457,l),
(639,622,l),
(582,650,o),
(531,670,o),
(426,670,cs),
(230,670,o),
(70,517,o),
(70,312,cs),
(70,126,o),
(211,-10,o),
(403,-10,cs)
);
}
);
width = 768;
},
{
anchors = (
{
name = bottom;
pos = (405,0);
},
{
name = top;
pos = (406,710);
}
);
associatedMasterId = m002;
layerId = "A50B146E-D068-47E2-B07C-391E3D0A458D";
name = "Jan 11, 22, 11:15";
shapes = (
{
closed = 1;
nodes = (
(476,-10,o),
(592,23,o),
(653,74,c),
(653,239,l),
(732,291,l),
(732,307,l),
(374,307,l),
(374,291,l),
(463,239,l),
(463,22,l),
(575,77,l),
(530,53,o),
(461,43,o),
(419,43,cs),
(317,43,o),
(236,149.676,o),
(236,316,cs),
(236,503.329,o),
(329,622,o),
(436,622,cs),
(482,622,o),
(514,614,o),
(546,593,c),
(517,617,l),
(642,439,l),
(661,439,l),
(646,622,l),
(588,650,o),
(535,670,o),
(427,670,cs),
(224,670,o),
(37,524,o),
(37,319,cs),
(37,133,o),
(198,-10,o),
(390,-10,cs)
);
}
);
visible = 1;
width = 749;
}
);
unicode = 71;
},
{
color = 5;
glyphname = H;
kernLeft = kern_H2;
kernRight = kern_H1;
layers = (
{
anchors = (
{
name = bottom;
pos = (405,0);
},
{
name = top;
pos = (405,710);
}
);
layerId = m01;
shapes = (
{
closed = 1;
nodes = (
(305,0,ls),
(312,0,o),
(315,3,o),
(315,10,cs),
(315,15,o),
(311,18,o),
(305,21,cs),
(255,46,ls),
(241,53,o),
(235,61,o),
(235,76,cs),
(235,296,ls),
(235,306,o),
(241,313,o),
(254,313,cs),
(556,313,ls),
(568,313,o),
(575,306,o),
(575,296,cs),
(575,76,ls),
(575,61,o),
(569,53,o),
(555,46,cs),
(505,21,ls),
(499,18,o),
(495,15,o),
(495,10,cs),
(495,3,o),
(498,0,o),
(505,0,cs),
(735,0,ls),
(742,0,o),
(745,3,o),
(745,10,cs),
(745,15,o),
(741,18,o),
(735,21,cs),
(685,46,ls),
(671,53,o),
(665,61,o),
(665,76,cs),
(665,585,ls),
(665,600,o),
(669,606,o),
(685,614,cs),
(735,639,ls),
(741,642,o),
(745,645,o),
(745,650,cs),
(745,657,o),
(742,660,o),
(735,660,cs),
(505,660,ls),
(498,660,o),
(495,657,o),
(495,650,cs),
(495,645,o),
(499,642,o),
(505,639,cs),
(555,614,ls),
(571,606,o),
(575,600,o),
(575,585,cs),
(575,388,ls),
(575,375,o),
(568,368,o),
(555,368,cs),
(254,368,ls),
(241,368,o),
(235,374,o),
(235,388,cs),
(235,585,ls),
(235,600,o),
(239,606,o),
(255,614,cs),
(305,639,ls),
(311,642,o),
(315,645,o),
(315,650,cs),
(315,657,o),
(312,660,o),
(305,660,cs),
(75,660,ls),
(68,660,o),
(65,657,o),
(65,650,cs),
(65,645,o),
(69,642,o),
(75,639,cs),
(125,614,ls),
(141,606,o),
(145,600,o),
(145,585,cs),
(145,76,ls),
(145,61,o),
(139,53,o),
(125,46,cs),
(75,21,ls),
(69,18,o),
(65,15,o),
(65,10,cs),
(65,3,o),
(68,0,o),
(75,0,cs)
);
}
);
width = 810;
},
{
anchors = (
{
name = bottom;
pos = (426,0);
},
{
name = top;
pos = (426,710);
}
);
layerId = m002;
shapes = (
{
closed = 1;
nodes = (
(376,0,ls),
(383,0,o),
(386,3,o),
(386,10,cs),
(386,15,o),
(381,19,o),
(375,22,cs),
(329,47,ls),
(315,55,o),
(309,61,o),
(309,76,cs),
(309,295,ls),
(309,305,o),
(315,312,o),
(328,312,cs),
(526,312,ls),
(538,312,o),
(545,305,o),
(545,295,cs),
(545,76,ls),
(545,61,o),
(540,55,o),
(526,48,cs),
(476,21,ls),
(470,18,o),
(466,15,o),
(466,10,cs),
(466,3,o),
(469,0,o),
(476,0,cs),
(812,0,ls),
(819,0,o),
(822,3,o),
(822,10,cs),
(822,15,o),
(818,18,o),
(812,21,cs),
(754,49,ls),
(740,56,o),
(735,61,o),
(735,76,cs),
(735,585,ls),
(735,600,o),
(737,603,o),
(754,611,cs),
(812,639,ls),
(818,642,o),
(822,645,o),
(822,650,cs),
(822,657,o),
(819,660,o),
(812,660,cs),
(476,660,ls),
(469,660,o),
(466,657,o),
(466,650,cs),
(466,645,o),
(470,642,o),
(476,639,cs),
(525,613,ls),
(541,604,o),
(545,600,o),
(545,585,cs),
(545,387,ls),
(545,374,o),
(538,367,o),
(525,367,cs),
(328,367,ls),
(315,367,o),
(309,373,o),
(309,387,cs),
(309,585,ls),
(309,600,o),
(313,604,o),
(329,613,cs),
(376,639,ls),
(382,642,o),
(386,645,o),
(386,650,cs),
(386,657,o),
(383,660,o),
(376,660,cs),
(40,660,ls),
(33,660,o),
(30,657,o),
(30,650,cs),
(30,645,o),
(34,642,o),
(40,639,cs),
(100,611,ls),
(117,603,o),
(119,600,o),
(119,585,cs),
(119,76,ls),
(119,61,o),
(114,56,o),
(100,49,cs),
(40,21,ls),
(34,18,o),
(30,15,o),
(30,10,cs),
(30,3,o),
(33,0,o),
(40,0,cs)
);
}
);
width = 852;
},
{
anchors = (
{
name = bottom;
pos = (405,0);
},
{
name = top;
pos = (405,710);
}
);
associatedMasterId = m01;
layerId = "E0E5EAA5-2687-49A3-AF3C-174CF8512330";
name = "Sep 4, 21, 21:16";
shapes = (
{
closed = 1;
nodes = (
(315,0,l),
(315,16,l),
(235,56,l),
(235,604,l),
(315,644,l),
(315,660,l),
(65,660,l),
(65,644,l),
(145,604,l),
(145,56,l),
(65,16,l),
(65,0,l)
);
},
{
closed = 1;
nodes = (
(620,313,l),
(620,368,l),
(190,368,l),
(190,313,l)
);
},
{
closed = 1;
nodes = (
(745,0,l),
(745,16,l),
(665,56,l),
(665,604,l),
(745,644,l),
(745,660,l),
(495,660,l),
(495,644,l),
(575,604,l),
(575,56,l),
(495,16,l),
(495,0,l)
);
}
);
width = 810;
},
{
anchors = (
{
name = bottom;
pos = (426,0);
},
{
name = top;
pos = (426,710);
}
);
associatedMasterId = m002;
layerId = "34A17BAC-85C7-4AA5-8DF9-A835B1316DBE";
name = "Jan 9, 22, 01:05";
shapes = (
{
closed = 1;
nodes = (
(386,0,l),
(386,16,l),
(309,58,l),
(309,602,l),
(386,644,l),
(386,660,l),
(30,660,l),
(30,644,l),
(119,602,l),
(119,58,l),
(30,16,l),
(30,0,l)
);
},
{
closed = 1;
nodes = (
(645,312,l),
(645,367,l),
(215,367,l),
(215,312,l)
);
},
{
closed = 1;
nodes = (
(822,0,l),
(822,16,l),
(735,58,l),
(735,602,l),
(822,644,l),
(822,660,l),
(466,660,l),
(466,644,l),
(545,602,l),
(545,58,l),
(466,16,l),
(466,0,l)
);
}
);
width = 852;
}
);
unicode = 72;
},
{
color = 5;
glyphname = I;
kernLeft = kern_H2;
kernRight = kern_H1;
layers = (
{
anchors = (
{
name = bottom;
pos = (195,0);
},
{
name = right;
pos = (221,0);
},
{
name = top;
pos = (195,710);
}
);
layerId = m01;
shapes = (
{
closed = 1;
nodes = (
(310,0,ls),
(317,0,o),
(320,3,o),
(320,10,cs),
(320,15,o),
(316,18,o),
(310,21,cs),
(260,46,ls),
(246,53,o),
(240,61,o),
(240,76,cs),
(240,585,ls),
(240,600,o),
(244,606,o),
(260,614,cs),
(310,639,ls),
(316,642,o),
(320,645,o),
(320,650,cs),
(320,657,o),
(317,660,o),
(310,660,cs),
(80,660,ls),
(73,660,o),
(70,657,o),
(70,650,cs),
(70,645,o),
(74,642,o),
(80,639,cs),
(130,614,ls),
(146,606,o),
(150,600,o),
(150,585,cs),
(150,76,ls),
(150,61,o),
(144,53,o),
(130,46,cs),
(80,21,ls),
(74,18,o),
(70,15,o),
(70,10,cs),
(70,3,o),
(73,0,o),
(80,0,cs)
);
}
);
width = 390;
},
{
anchors = (
{
name = bottom;
pos = (214,0);
},
{
name = right;
pos = (241,0);
},
{
name = top;
pos = (214,710);
}
);
layerId = m002;
shapes = (
{
closed = 1;
nodes = (
(388,0,ls),
(395,0,o),
(398,3,o),
(398,10,cs),
(398,15,o),
(394,18,o),
(388,21,cs),
(328,49,ls),
(314,56,o),
(309,61,o),
(309,76,cs),
(309,585,ls),
(309,600,o),
(311,603,o),
(328,611,cs),
(388,639,ls),
(394,642,o),
(398,645,o),
(398,650,cs),
(398,657,o),
(395,660,o),
(388,660,cs),
(40,660,ls),
(33,660,o),
(30,657,o),
(30,650,cs),
(30,645,o),
(34,642,o),
(40,639,cs),
(100,611,ls),
(117,603,o),
(119,600,o),
(119,585,cs),
(119,76,ls),
(119,61,o),
(114,56,o),
(100,49,cs),
(40,21,ls),
(34,18,o),
(30,15,o),
(30,10,cs),
(30,3,o),
(33,0,o),
(40,0,cs)
);
}
);
width = 428;
},
{
anchors = (
{
name = bottom;
pos = (195,0);
},
{
name = right;
pos = (212,0);
},
{
name = top;
pos = (195,710);
}
);
associatedMasterId = m01;
layerId = "FAD1F76F-C742-43C5-BB6E-80332130BB5C";
name = "Jan 8, 22, 23:51";
shapes = (
{
closed = 1;
nodes = (
(320,0,l),
(320,16,l),
(240,56,l),
(240,604,l),
(320,644,l),
(320,660,l),
(70,660,l),
(70,644,l),
(150,604,l),
(150,56,l),
(70,16,l),
(70,0,l)
);
}
);
width = 390;
},
{
anchors = (
{
name = bottom;
pos = (214,0);
},
{
name = right;
pos = (241,0);
},
{
name = top;
pos = (214,710);
}
);
associatedMasterId = m002;
layerId = "DC66355F-7FC3-45C9-9A1B-9AF8F097A82B";
name = "Jan 8, 22, 23:51";
shapes = (
{
closed = 1;
nodes = (
(398,0,l),
(398,16,l),
(309,58,l),
(309,602,l),
(398,644,l),
(398,660,l),
(30,660,l),
(30,644,l),
(119,602,l),
(119,58,l),
(30,16,l),
(30,0,l)
);
}
);
width = 428;
}
);
unicode = 73;
},
{
color = 5;
glyphname = J;
kernLeft = kern_J2;
kernRight = kern_J1;
layers = (
{
anchors = (
{
name = top;
pos = (195,710);
}
);
layerId = m01;
shapes = (
{
closed = 1;
nodes = (
(123,-173,o),
(240,-69,o),
(240,175,cs),
(240,585,ls),
(240,600,o),
(244,606,o),
(260,614,cs),
(310,639,ls),
(316,642,o),
(320,645,o),
(320,650,cs),
(320,657,o),
(317,660,o),
(310,660,cs),
(80,660,ls),
(73,660,o),
(70,657,o),
(70,650,cs),
(70,645,o),
(74,642,o),
(80,639,cs),
(130,614,ls),
(146,606,o),
(150,600,o),
(150,585,cs),
(150,56,ls),
(150,-70,o),
(128,-100,o),
(86,-100,cs),
(70,-100,o),
(60,-89,o),
(43,-89,cs),
(29,-89,o),
(0,-98,o),
(0,-131,cs),
(0,-154,o),
(19,-173,o),
(43,-173,cs)
);
}
);
width = 390;
},
{
anchors = (
{
name = top;
pos = (245,710);
}
);
layerId = m002;
shapes = (
{
closed = 1;
nodes = (
(159,-174,o),
(340,-30,o),
(340,255,cs),
(340,585,ls),
(340,600,o),
(344,604,o),
(359,611,cs),
(419,639,ls),
(425,642,o),
(429,645,o),
(429,650,cs),
(429,657,o),
(426,660,o),
(419,660,cs),
(71,660,ls),
(64,660,o),
(61,657,o),
(61,650,cs),
(61,645,o),
(65,642,o),
(71,639,cs),
(131,611,ls),
(146,604,o),
(150,600,o),
(150,585,cs),
(150,46,ls),
(150,-50,o),
(132,-60,o),
(121,-60,cs),
(109,-60,o),
(100,-37,o),
(68,-37,cs),
(24,-37,o),
(0,-74,o),
(0,-107,cs),
(0,-143,o),
(29,-174,o),
(72,-174,cs)
);
}
);
width = 459;
},
{
anchors = (
{
name = top;
pos = (195,710);
}
);
associatedMasterId = m01;
layerId = "CF38A574-D138-447B-AE9B-F83E7319CB00";
name = "Jan 10, 22, 15:52";
shapes = (
{
closed = 1;
nodes = (
(90,-173,o),
(103,-163,o),
(161,-99,cs),
(219,-35,o),
(240,90.385,o),
(240,240,cs),
(240,604,l),
(320,644,l),
(320,660,l),
(70,660,l),
(70,644,l),
(150,604,l),
(150,51,ls),
(150,-83,o),
(123,-100,o),
(80,-100,c),
(80,-173,l)
);
},
{
closed = 1;
nodes = (
(65,-173,o),
(84,-154,o),
(84,-131,cs),
(84,-108,o),
(65,-89,o),
(42,-89,cs),
(19,-89,o),
(0,-108,o),
(0,-131,cs),
(0,-154,o),
(19,-173,o),
(42,-173,cs)
);
}
);
width = 390;
},
{
anchors = (
{
name = top;
pos = (245,710);
}
);
associatedMasterId = m002;
layerId = "FFC981E6-82EC-4221-B14E-3346C548FA1E";
name = "Jan 10, 22, 15:57";
shapes = (
{
closed = 1;
nodes = (
(112.395,-173,o),
(159,-130,o),
(199,-83,cs),
(245,-28,o),
(340,92.142,o),
(340,249,cs),
(340,602,l),
(429,644,l),
(429,660,l),
(61,660,l),
(61,644,l),
(150,602,l),
(150,49,ls),
(150,-50,o),
(130,-63,o),
(98,-63,c),
(66,-173,l)
);
},
{
closed = 1;
nodes = (
(106,-174,o),
(137,-143,o),
(137,-106,cs),
(137,-68,o),
(106,-37,o),
(68,-37,cs),
(31,-37,o),
(0,-68,o),
(0,-106,cs),
(0,-143,o),
(31,-174,o),
(68,-174,cs)
);
}
);
width = 459;
}
);
unicode = 74;
},
{
color = 5;
glyphname = K;
kernLeft = kern_H2;
kernRight = kern_K1;
layers = (
{
anchors = (
{
name = bottom;
pos = (385,0);
},
{
name = top;
pos = (385,710);
}
);
layerId = m01;
shapes = (
{
closed = 1;
nodes = (
(305,0,ls),
(312,0,o),
(315,3,o),
(315,10,cs),
(315,15,o),
(311,18,o),
(305,21,cs),
(255,46,ls),
(241,53,o),
(235,61,o),
(235,76,cs),
(235,312,ls),
(235,321,o),
(238,324,o),
(244,324,cs),
(249,324,o),
(254,320,o),
(261,312,cs),
(489,74,ls),
(540,21,o),
(569,0,o),
(617,0,cs),
(694,0,ls),
(701,0,o),
(704,3,o),
(704,10,cs),
(704,14,o),
(702,17,o),
(694,20,cs),
(655,37,o),
(643,42,o),
(608,77,cs),
(348,341,ls),
(340,349,o),
(333,355,o),
(333,361,cs),
(333,368,o),
(339,374,o),
(348,383,cs),
(555,586,ls),
(586,616,o),
(605,626,o),
(642,640,cs),
(649,643,o),
(652,645,o),
(652,650,cs),
(652,657,o),
(649,660,o),
(642,660,cs),
(452,660,ls),
(444,660,o),
(442,657,o),
(442,650,cs),
(442,645,o),
(445,642,o),
(452,639,cs),
(496,618,ls),
(503,615,o),
(506,613,o),
(506,608,cs),
(506,603,o),
(503,600,o),
(496,593,cs),
(261,363,ls),
(251,353,o),
(246,348,o),
(241,348,cs),
(236,348,o),
(235,353,o),
(235,361,cs),
(235,585,ls),
(235,600,o),
(239,606,o),
(255,614,cs),
(305,639,ls),
(311,642,o),
(315,645,o),
(315,650,cs),
(315,657,o),
(312,660,o),
(305,660,cs),
(75,660,ls),
(68,660,o),
(65,657,o),
(65,650,cs),
(65,645,o),
(69,642,o),
(75,639,cs),
(125,614,ls),
(141,606,o),
(145,600,o),
(145,585,cs),
(145,76,ls),
(145,61,o),
(139,53,o),
(125,46,cs),
(75,21,ls),
(69,18,o),
(65,15,o),
(65,10,cs),
(65,3,o),
(68,0,o),
(75,0,cs)
);
}
);
width = 719;
},
{
anchors = (
{
name = bottom;
pos = (452,0);
},
{
name = top;
pos = (452,710);
}
);
layerId = m002;
shapes = (
{
closed = 1;
nodes = (
(388,0,ls),
(395,0,o),
(398,3,o),
(398,10,cs),
(398,15,o),
(394,18,o),
(388,21,cs),
(328,49,ls),
(314,56,o),
(309,61,o),
(309,76,cs),
(309,292,ls),
(309,301,o),
(312,304,o),
(318,304,cs),
(323,304,o),
(329,301,o),
(335,292,cs),
(483,74,ls),
(524,14,o),
(553,0,o),
(601,0,cs),
(796,0,ls),
(803,0,o),
(806,3,o),
(806,10,cs),
(806,14,o),
(804,17,o),
(796,20,cs),
(737,44,o),
(729,48,o),
(709,77,cs),
(498,382,ls),
(488,397,o),
(482,403,o),
(482,409,cs),
(482,416,o),
(488,424,o),
(498,433,cs),
(659,586,ls),
(681,607,o),
(699,619,o),
(747,640,cs),
(754,643,o),
(757,645,o),
(757,650,cs),
(757,657,o),
(754,660,o),
(747,660,cs),
(515,660,ls),
(507,660,o),
(505,657,o),
(505,650,cs),
(505,645,o),
(508,642,o),
(515,639,cs),
(570,612,ls),
(574,610,o),
(577,608,o),
(577,605,cs),
(577,601,o),
(574,598,o),
(570,594,cs),
(335,357,ls),
(325,347,o),
(320,342,o),
(315,342,cs),
(310,342,o),
(309,347,o),
(309,355,cs),
(309,585,ls),
(309,600,o),
(311,603,o),
(328,611,cs),
(388,639,ls),
(394,642,o),
(398,645,o),
(398,650,cs),
(398,657,o),
(395,660,o),
(388,660,cs),
(40,660,ls),
(33,660,o),
(30,657,o),
(30,650,cs),
(30,645,o),
(34,642,o),
(40,639,cs),
(100,611,ls),
(117,603,o),
(119,600,o),
(119,585,cs),
(119,76,ls),
(119,61,o),
(114,56,o),
(100,49,cs),
(40,21,ls),
(34,18,o),
(30,15,o),
(30,10,cs),
(30,3,o),
(33,0,o),
(40,0,cs)
);
}
);
width = 810;
},
{
anchors = (
{
name = bottom;
pos = (385,0);
},
{
name = top;
pos = (385,710);
}
);
associatedMasterId = m01;
layerId = "4B237462-57CC-40AD-B063-6AFB36F3223E";
name = "Jan 10, 22, 16:50";
shapes = (
{
closed = 1;
nodes = (
(315,0,l),
(315,16,l),
(235,56,l),
(235,604,l),
(315,644,l),
(315,660,l),
(65,660,l),
(65,644,l),
(145,604,l),
(145,56,l),
(65,16,l),
(65,0,l)
);
},
{
closed = 1;
nodes = (
(560,0,l),
(704,0,l),
(704,16,l),
(604,59,l),
(654,31,l),
(303,386,l),
(303,338,l),
(609,638,l),
(568,611,l),
(652,644,l),
(652,660,l),
(442,660,l),
(442,644,l),
(530,602,l),
(530,627,l),
(236,338,l)
);
}
);
width = 719;
},
{
anchors = (
{
name = bottom;
pos = (452,0);
},
{
name = top;
pos = (452,710);
}
);
associatedMasterId = m002;
layerId = "E83F7931-ECB8-4850-A76F-06DAB2F54A01";
name = "Jan 10, 22, 16:51";
shapes = (
{
closed = 1;
nodes = (
(398,0,l),
(398,16,l),
(309,58,l),
(309,602,l),
(398,644,l),
(398,660,l),
(30,660,l),
(30,644,l),
(119,602,l),
(119,58,l),
(30,16,l),
(30,0,l)
);
},
{
closed = 1;
nodes = (
(533,0,l),
(806,0,l),
(806,16,l),
(697,61,l),
(743,29,l),
(467,428,l),
(399,339,l),
(708,632,l),
(638,591,l),
(757,644,l),
(757,660,l),
(505,660,l),
(505,644,l),
(613,591,l),
(607,632,l),
(309,330,l)
);
}
);
width = 810;
}
);
unicode = 75;
},
{
color = 5;
glyphname = L;
kernLeft = kern_H2;
kernRight = kern_L1;
layers = (
{
anchors = (
{
name = bottom;
pos = (354,0);
},
{
name = mid;
pos = (490,347);
},
{
name = right;
pos = (475,660);
},
{
name = top;
pos = (190,710);
}
);
layerId = m01;
shapes = (
{
closed = 1;
nodes = (
(548,0,ls),
(557,0,o),
(562,5,o),
(562,17,cs),
(562,212,ls),
(562,218,o),
(559,222,o),
(553,222,cs),
(547,222,o),
(544,217,o),
(542,212,cs),
(485,72,ls),
(482,65,o),
(478,55,o),
(458,55,cs),
(255,55,ls),
(240,55,o),
(235,61,o),
(235,76,cs),
(235,585,ls),
(235,600,o),
(239,606,o),
(255,613,cs),
(314,639,ls),
(321,642,o),
(325,645,o),
(325,650,cs),
(325,657,o),
(322,660,o),
(315,660,cs),
(75,660,ls),
(68,660,o),
(65,657,o),
(65,650,cs),
(65,645,o),
(69,642,o),
(75,639,cs),
(125,614,ls),
(141,606,o),
(145,600,o),
(145,585,cs),
(145,76,ls),
(145,61,o),
(139,53,o),
(125,46,cs),
(75,21,ls),
(69,18,o),
(65,15,o),
(65,10,cs),
(65,3,o),
(68,0,o),
(75,0,cs)
);
}
);
width = 632;
},
{
anchors = (
{
name = bottom;
pos = (362,0);
},
{
name = mid;
pos = (540,355);
},
{
name = right;
pos = (520,660);
},
{
name = top;
pos = (214,710);
}
);
layerId = m002;
shapes = (
{
closed = 1;
nodes = (
(606,0,ls),
(615,0,o),
(620,5,o),
(620,17,cs),
(620,249,ls),
(620,255,o),
(617,259,o),
(611,259,cs),
(605,259,o),
(602,254,o),
(600,249,cs),
(522,73,ls),
(519,66,o),
(515,55,o),
(495,55,cs),
(329,55,ls),
(314,55,o),
(309,61,o),
(309,76,cs),
(309,585,ls),
(309,600,o),
(312,603,o),
(328,610,cs),
(397,639,ls),
(404,642,o),
(408,645,o),
(408,650,cs),
(408,657,o),
(405,660,o),
(398,660,cs),
(40,660,ls),
(33,660,o),
(30,657,o),
(30,650,cs),
(30,645,o),
(34,642,o),
(40,639,cs),
(100,611,ls),
(115,604,o),
(119,600,o),
(119,585,cs),
(119,76,ls),
(119,61,o),
(113,55,o),
(100,49,cs),
(40,21,ls),
(34,18,o),
(30,15,o),
(30,10,cs),
(30,3,o),
(33,0,o),
(40,0,cs)
);
}
);
width = 660;
},
{
anchors = (
{
name = bottom;
pos = (354,0);
},
{
name = mid;
pos = (490,347);
},
{
name = right;
pos = (475,660);
},
{
name = top;
pos = (190,710);
}
);
associatedMasterId = m01;
layerId = "DF7FC19A-BDED-41CD-9F2E-44876A9E8216";
name = "Jan 10, 22, 19:13";
shapes = (
{
closed = 1;
nodes = (
(562,0,l),
(562,222,l),
(546,222,l),
(478,55,l),
(235,55,l),
(235,604,l),
(325,644,l),
(325,660,l),
(65,660,l),
(65,644,l),
(145,604,l),
(145,56,l),
(65,16,l),
(65,0,l)
);
}
);
width = 632;
},
{
anchors = (
{
name = bottom;
pos = (362,0);
},
{
name = mid;
pos = (540,355);
},
{
name = right;
pos = (520,660);
},
{
name = top;
pos = (214,710);
}
);
associatedMasterId = m002;
layerId = "48946787-CFEA-4A94-92B4-512A2DB08E99";
name = "Jan 10, 22, 19:14";
shapes = (
{
closed = 1;
nodes = (
(620,0,l),
(620,259,l),
(604,259,l),
(514,55,l),
(309,55,l),
(309,602,l),
(408,644,l),
(408,660,l),
(30,660,l),
(30,644,l),
(119,602,l),
(119,58,l),
(30,16,l),
(30,0,l)
);
}
);
width = 660;
}
);
unicode = 76;
},
{
color = 5;
glyphname = M;
kernLeft = kern_M3;
kernRight = kern_M3;
layers = (
{
anchors = (
{
name = bottom;
pos = (472,0);
}
);
layerId = m01;
shapes = (
{
closed = 1;
nodes = (
(272,0,ls),
(279,0,o),
(282,3,o),
(282,10,cs),
(282,15,o),
(279,18,o),
(272,21,cs),
(212,50,ls),
(206,53,o),
(202,61,o),
(202,76,cs),
(213,508,ls),
(213,518,o),
(216,520,o),
(219,520,cs),
(222,520,o),
(224,518,o),
(228,508,cs),
(441,13,ls),
(447,0,o),
(452,-5,o),
(474,-5,cs),
(491,-5,o),
(496,0,o),
(502,13,cs),
(712,499,ls),
(715,506,o),
(719,515,o),
(725,515,cs),
(732,515,o),
(734,510,o),
(734,499,cs),
(743,76,ls),
(743,61,o),
(738,52,o),
(726,46,cs),
(679,21,ls),
(673,18,o),
(669,15,o),
(669,10,cs),
(669,3,o),
(672,0,o),
(679,0,cs),
(889,0,ls),
(896,0,o),
(899,3,o),
(899,10,cs),
(899,15,o),
(895,18,o),
(889,22,cs),
(839,50,ls),
(833,53,o),
(829,61,o),
(829,76,cs),
(813,578,ls),
(813,591,o),
(814,605,o),
(831,613,cs),
(886,639,ls),
(893,642,o),
(896,645,o),
(896,651,cs),
(896,658,o),
(893,660,o),
(886,660,cs),
(744,660,ls),
(724,660,o),
(714,646,o),
(704,623,cs),
(506,165,ls),
(501,153,o),
(496,144,o),
(490,144,cs),
(484,144,o),
(479,153,o),
(472,170,cs),
(277,619,ls),
(265,647,o),
(257,660,o),
(227,660,cs),
(81,660,ls),
(77,660,o),
(74,657,o),
(74,652,cs),
(74,647,o),
(76,643,o),
(81,641,cs),
(137,614,ls),
(154,606,o),
(160,596,o),
(159,577,cs),
(140,76,ls),
(139,61,o),
(135,54,o),
(123,48,cs),
(70,21,ls),
(64,18,o),
(60,15,o),
(60,10,cs),
(60,3,o),
(63,0,o),
(70,0,cs)
);
}
);
width = 959;
},
{
anchors = (
{
name = bottom;
pos = (461,0);
}
);
layerId = m002;
shapes = (
{
closed = 1;
nodes = (
(271,0,ls),
(278,0,o),
(281,3,o),
(281,10,cs),
(281,15,o),
(278,18,o),
(271,21,cs),
(203,51,ls),
(193,56,o),
(190,59,o),
(191,85,cs),
(202,493,ls),
(202,499,o),
(204,502,o),
(207,502,cs),
(210,502,o),
(212,500,o),
(215,493,cs),
(421,13,ls),
(427,0,o),
(434,-5,o),
(462,-5,cs),
(488,-5,o),
(496,0,o),
(501,13,cs),
(702,489,ls),
(704,493,o),
(706,496,o),
(709,496,cs),
(713,496,o),
(715,494,o),
(715,475,cs),
(723,76,ls),
(723,61,o),
(719,55,o),
(707,49,cs),
(649,21,ls),
(643,18,o),
(639,15,o),
(639,10,cs),
(639,3,o),
(642,0,o),
(649,0,cs),
(979,0,ls),
(986,0,o),
(989,3,o),
(989,10,cs),
(989,15,o),
(985,18,o),
(978,22,cs),
(920,52,ls),
(914,55,o),
(909,61,o),
(909,76,cs),
(893,578,ls),
(892,600,o),
(893,616,o),
(911,622,cs),
(971,641,ls),
(978,643,o),
(981,645,o),
(981,651,cs),
(981,658,o),
(978,660,o),
(971,660,cs),
(724,660,ls),
(704,660,o),
(694,646,o),
(684,623,cs),
(538,275,ls),
(533,263,o),
(529,257,o),
(522,257,cs),
(515,257,o),
(510,263,o),
(505,275,cs),
(357,619,ls),
(345,648,o),
(337,660,o),
(307,660,cs),
(58,660,ls),
(54,660,o),
(51,657,o),
(51,652,cs),
(51,647,o),
(53,643,o),
(58,641,cs),
(114,615,ls),
(131,607,o),
(140,596,o),
(139,577,cs),
(120,76,ls),
(119,61,o),
(116,57,o),
(104,51,cs),
(40,21,ls),
(34,18,o),
(30,15,o),
(30,10,cs),
(30,3,o),
(33,0,o),
(40,0,cs)
);
}
);
width = 1019;
},
{
anchors = (
{
name = bottom;
pos = (472,0);
}
);
associatedMasterId = m01;
layerId = "F8142E1D-66C0-431A-8EE1-C91D71CFB1FA";
name = "Jan 10, 22, 20:27";
shapes = (
{
closed = 1;
nodes = (
(282,0,l),
(282,16,l),
(201,55,l),
(217,642,l),
(161,642,l),
(139,56,l),
(60,16,l),
(60,0,l)
);
},
{
closed = 1;
nodes = (
(494,-5,l),
(754,597,l),
(797,597,l),
(896,644,l),
(896,660,l),
(720,660,l),
(465,71,l),
(514,71,l),
(259,660,l),
(74,660,l),
(74,644,l),
(173,597,l),
(190,597,l),
(449,-5,l)
);
},
{
closed = 1;
nodes = (
(899,0,l),
(899,16,l),
(829,56,l),
(811,642,l),
(731,642,l),
(743,55,l),
(669,16,l),
(669,0,l)
);
}
);
width = 959;
},
{
anchors = (
{
name = bottom;
pos = (461,0);
}
);
associatedMasterId = m002;
layerId = "D82DCE04-6AD1-49EC-B388-0206BFB02A92";
name = "Jan 10, 22, 21:33";
shapes = (
{
closed = 1;
nodes = (
(281,0,l),
(281,16,l),
(190,57,l),
(206,642,l),
(141,642,l),
(119,58,l),
(30,16,l),
(30,0,l)
);
},
{
closed = 1;
nodes = (
(493,-5,l),
(746,595,l),
(825,595,l),
(981,644,l),
(981,660,l),
(700,660,l),
(502,189,l),
(543,189,l),
(339,660,l),
(51,660,l),
(51,644,l),
(157,595,l),
(171,595,l),
(429,-5,l)
);
},
{
closed = 1;
nodes = (
(989,0,l),
(989,16,l),
(909,58,l),
(891,642,l),
(711,642,l),
(723,57,l),
(639,16,l),
(639,0,l)
);
}
);
visible = 1;
width = 1019;
}
);
unicode = 77;
},
{
color = 5;
glyphname = N;
kernLeft = kern_H2;
kernRight = kern_N1;
layers = (
{
anchors = (
{
name = bottom;
pos = (420,0);
},
{
name = top;
pos = (410,710);
}
);
layerId = m01;
shapes = (
{
closed = 1;
nodes = (
(280,0,ls),
(287,0,o),
(290,3,o),
(290,10,cs),
(290,15,o),
(286,18,o),
(280,21,cs),
(230,46,ls),
(216,53,o),
(210,61,o),
(210,76,cs),
(210,489,ls),
(210,494,o),
(213,499,o),
(218,499,cs),
(224,499,o),
(228,494,o),
(234,486,cs),
(600,24,ls),
(619,0,o),
(627,-5,o),
(637,-5,cs),
(657,-5,o),
(660,-2,o),
(660,15,cs),
(660,585,ls),
(660,601,o),
(664,607,o),
(680,615,cs),
(729,639,ls),
(735,642,o),
(739,645,o),
(739,650,cs),
(739,657,o),
(736,660,o),
(729,660,cs),
(500,660,ls),
(493,660,o),
(490,657,o),
(490,650,cs),
(490,645,o),
(494,642,o),
(500,640,cs),
(572,613,ls),
(588,607,o),
(590,600,o),
(590,585,cs),
(590,211,ls),
(590,203,o),
(587,198,o),
(582,198,cs),
(575,198,o),
(572,203,o),
(567,209,cs),
(222,643,ls),
(214,654,o),
(201,660,o),
(190,660,cs),
(71,660,ls),
(64,660,o),
(61,657,o),
(61,650,cs),
(61,645,o),
(65,642,o),
(72,638,cs),
(119,613,ls),
(138,603,o),
(140,593,o),
(140,582,cs),
(140,76,ls),
(140,61,o),
(134,53,o),
(120,46,cs),
(70,21,ls),
(64,18,o),
(60,15,o),
(60,10,cs),
(60,3,o),
(63,0,o),
(70,0,cs)
);
}
);
width = 799;
},
{
anchors = (
{
name = bottom;
pos = (414,0);
},
{
name = top;
pos = (415,710);
}
);
layerId = m002;
shapes = (
{
closed = 1;
nodes = (
(302,0,ls),
(309,0,o),
(312,3,o),
(312,10,cs),
(312,15,o),
(307,18,o),
(301,20,cs),
(209,51,ls),
(195,56,o),
(189,61,o),
(189,76,cs),
(189,431,ls),
(189,436,o),
(190,441,o),
(196,441,cs),
(201,441,o),
(206,436,o),
(213,428,cs),
(603,24,ls),
(624,2,o),
(638,-5,o),
(672,-5,cs),
(702,-5,o),
(710,2,o),
(710,25,cs),
(710,585,ls),
(710,598,o),
(712,603,o),
(729,611,cs),
(787,639,ls),
(793,642,o),
(797,645,o),
(797,650,cs),
(797,657,o),
(794,660,o),
(787,660,cs),
(527,660,ls),
(520,660,o),
(517,657,o),
(517,650,cs),
(517,645,o),
(521,642,o),
(527,640,cs),
(622,608,ls),
(632,605,o),
(640,599,o),
(640,585,cs),
(640,275,ls),
(640,267,o),
(637,263,o),
(632,263,cs),
(627,263,o),
(622,267,o),
(616,273,cs),
(262,643,ls),
(252,654,o),
(241,660,o),
(230,660,cs),
(40,660,ls),
(33,660,o),
(30,657,o),
(30,650,cs),
(30,645,o),
(34,642,o),
(41,639,cs),
(98,612,ls),
(115,604,o),
(119,596,o),
(119,582,cs),
(119,76,ls),
(119,61,o),
(114,56,o),
(100,49,cs),
(40,21,ls),
(34,18,o),
(30,15,o),
(30,10,cs),
(30,3,o),
(33,0,o),
(40,0,cs)
);
}
);
width = 827;
},
{
anchors = (
{
name = bottom;
pos = (420,0);
},
{
name = top;
pos = (410,710);
}
);
associatedMasterId = m01;
layerId = "45800E63-F0D1-4727-B5EF-AFC7293F864E";
name = "Jan 11, 22, 22:04";
shapes = (
{
closed = 1;
nodes = (
(310,0,l),
(310,16,l),
(210,55,l),
(210,561,l),
(174,561,l),
(623,-5,l),
(660,-5,l),
(660,605,l),
(739,644,l),
(739,660,l),
(490,660,l),
(490,644,l),
(590,606,l),
(590,100,l),
(654,100,l),
(208,660,l),
(61,660,l),
(61,644,l),
(140,602,l),
(140,56,l),
(60,16,l),
(60,0,l)
);
}
);
width = 799;
},
{
anchors = (
{
name = bottom;
pos = (414,0);
},
{
name = top;
pos = (415,710);
}
);
associatedMasterId = m002;
layerId = "B0F1CF0D-DEEE-49B6-8008-3623C1BA28DE";
name = "Jan 11, 22, 22:08";
shapes = (
{
closed = 1;
nodes = (
(312,0,l),
(312,16,l),
(189,58,l),
(189,493,l),
(150,493,l),
(631,-5,l),
(710,-5,l),
(710,602,l),
(797,644,l),
(797,660,l),
(517,660,l),
(517,644,l),
(640,602,l),
(640,187,l),
(698,187,l),
(247,660,l),
(30,660,l),
(30,644,l),
(119,602,l),
(119,58,l),
(30,16,l),
(30,0,l)
);
}
);
visible = 1;
width = 827;
}
);
unicode = 78;
},
{
color = 5;
glyphname = O;
kernLeft = kern_O2;
kernRight = kern_O1;
layers = (
{
anchors = (
{
name = bottom;
pos = (417,0);
},
{
name = right;
pos = (431,0);
},
{
name = top;
pos = (391,710);
}
);
layerId = m01;
shapes = (
{
closed = 1;
nodes = (
(595,-10,o),
(737,134,o),
(737,330,cs),
(737,526,o),
(595,670,o),
(403,670,cs),
(212,670,o),
(70,526,o),
(70,330,cs),
(70,134,o),
(212,-10,o),
(403,-10,cs)
);
},
{
closed = 1;
nodes = (
(281,40,o),
(167,168,o),
(167,363,cs),
(167,521,o),
(258,621,o),
(386,621,cs),
(528,621,o),
(640,494,o),
(640,299,cs),
(640,141,o),
(552,40,o),
(424,40,cs)
);
}
);
width = 807;
},
{
anchors = (
{
name = bottom;
pos = (389,0);
},
{
name = right;
pos = (423,0);
},
{
name = top;
pos = (389,710);
}
);
layerId = m002;
shapes = (
{
closed = 1;
nodes = (
(591,-10,o),
(742,134,o),
(742,330,cs),
(742,526,o),
(591,670,o),
(388,670,cs),
(186,670,o),
(35,526,o),
(35,330,cs),
(35,134,o),
(186,-10,o),
(388,-10,cs)
);
},
{
closed = 1;
nodes = (
(309,43,o),
(235,169,o),
(235,361,cs),
(235,518,o),
(296,618,o),
(377,618,cs),
(470,618,o),
(542,493,o),
(542,301,cs),
(542,144,o),
(485,43,o),
(401,43,cs)
);
}
);
width = 777;
}
);
unicode = 79;
},
{
color = 5;
glyphname = Oslash;
kernLeft = kern_O2;
kernRight = kern_O1;
layers = (
{
anchors = (
{
name = top;
pos = (391,710);
}
);
layerId = m01;
shapes = (
{
closed = 1;
nodes = (
(595,-10,o),
(737,134,o),
(737,330,cs),
(737,422,o),
(709,500,o),
(655,559,cs),
(653,561,o),
(650,564,o),
(650,568,cs),
(650,571,o),
(654,576,o),
(656,578,cs),
(722,653,ls),
(726,657,o),
(729,661,o),
(729,665,cs),
(729,669,o),
(726,670,o),
(723,670,cs),
(678,670,ls),
(669,670,o),
(666,667,o),
(663,664,cs),
(615,610,ls),
(613,608,o),
(611,606,o),
(609,606,cs),
(606,606,o),
(604,607,o),
(602,608,cs),
(547,647,o),
(479,670,o),
(403,670,cs),
(212,670,o),
(70,526,o),
(70,330,cs),
(70,240,o),
(100,160,o),
(152,101,cs),
(155,98,o),
(157,95,o),
(157,92,cs),
(157,89,o),
(156,87,o),
(154,85,cs),
(81,2,ls),
(79,0,o),
(77,-4,o),
(77,-7,cs),
(77,-10,o),
(80,-10,o),
(83,-10,cs),
(127,-10,ls),
(135,-10,o),
(143,-6,o),
(148,0,cs),
(189,47,ls),
(192,50,o),
(196,53,o),
(199,53,cs),
(202,53,o),
(205,52,o),
(209,49,cs),
(261,10,o),
(327,-10,o),
(403,-10,cs)
);
},
{
closed = 1;
nodes = (
(214,169,o),
(211,173,o),
(209,177,cs),
(183,225,o),
(167,287,o),
(167,363,cs),
(167,521,o),
(258,621,o),
(386,621,cs),
(448,621,o),
(503,598,o),
(547,554,cs),
(552,549,o),
(552,546,o),
(552,542,cs),
(552,539,o),
(549,535,o),
(546,532,cs),
(233,176,ls),
(230,173,o),
(225,169,o),
(219,169,cs)
);
},
{
closed = 1;
nodes = (
(363,40,o),
(307,63,o),
(263,106,cs),
(259,110,o),
(256,115,o),
(256,119,cs),
(256,122,o),
(258,126,o),
(265,134,cs),
(581,492,ls),
(584,495,o),
(585,497,o),
(588,497,cs),
(591,497,o),
(593,495,o),
(595,491,cs),
(623,440,o),
(640,374,o),
(640,299,cs),
(640,141,o),
(552,40,o),
(424,40,cs)
);
}
);
width = 807;
},
{
anchors = (
{
name = top;
pos = (389,710);
}
);
layerId = m002;
shapes = (
{
closed = 1;
nodes = (
(595,-10,o),
(743,134,o),
(743,330,cs),
(743,422,o),
(710,500,o),
(656,559,cs),
(654,561,o),
(651,564,o),
(651,568,cs),
(651,571,o),
(655,576,o),
(657,578,cs),
(727,653,ls),
(731,657,o),
(734,661,o),
(734,665,cs),
(734,669,o),
(731,670,o),
(728,670,cs),
(672,670,ls),
(663,670,o),
(660,667,o),
(657,664,cs),
(607,611,ls),
(605,609,o),
(603,607,o),
(601,607,cs),
(598,607,o),
(596,608,o),
(594,609,cs),
(539,648,o),
(479,670,o),
(403,670,cs),
(182,670,o),
(34,526,o),
(34,330,cs),
(34,240,o),
(69,160,o),
(121,101,cs),
(124,98,o),
(126,95,o),
(126,92,cs),
(126,89,o),
(125,87,o),
(123,85,cs),
(46,2,ls),
(44,0,o),
(41,-4,o),
(41,-7,cs),
(41,-10,o),
(45,-10,o),
(48,-10,cs),
(103,-10,ls),
(111,-10,o),
(119,-6,o),
(124,0,cs),
(168,47,ls),
(171,50,o),
(173,52,o),
(176,52,cs),
(179,52,o),
(182,50,o),
(186,47,cs),
(230,11,o),
(317,-10,o),
(403,-10,cs)
);
},
{
closed = 1;
nodes = (
(249,235,o),
(246,239,o),
(245,245,cs),
(240,273,o),
(235,297,o),
(235,363,cs),
(235,521,o),
(296,618,o),
(378,618,cs),
(440,618,o),
(481,568,o),
(502,515,cs),
(505,508,o),
(507,507,o),
(507,503,cs),
(507,500,o),
(504,496,o),
(501,493,cs),
(269,244,ls),
(264,239,o),
(260,235,o),
(254,235,cs)
);
},
{
closed = 1;
nodes = (
(348,43,o),
(307,82,o),
(278,141,cs),
(275,146,o),
(272,151,o),
(272,155,cs),
(272,158,o),
(274,162,o),
(281,170,cs),
(518,426,ls),
(521,429,o),
(522,431,o),
(525,431,cs),
(528,431,o),
(532,429,o),
(532,425,cs),
(535,392,o),
(542,369,o),
(542,294,cs),
(542,136,o),
(477,43,o),
(403,43,cs)
);
}
);
width = 777;
},
{
anchors = (
{
name = top;
pos = (391,710);
}
);
associatedMasterId = m01;
layerId = "6193866C-C7B3-4E5F-8DBC-CFCD8DE92972";
name = "Dec 21, 21, 20:14";
shapes = (
{
closed = 1;
nodes = (
(595,-10,o),
(737,134,o),
(737,330,cs),
(737,526,o),
(595,670,o),
(403,670,cs),
(212,670,o),
(70,526,o),
(70,330,cs),
(70,134,o),
(212,-10,o),
(403,-10,cs)
);
},
{
closed = 1;
nodes = (
(281,40,o),
(167,168,o),
(167,363,cs),
(167,521,o),
(258,621,o),
(386,621,cs),
(528,621,o),
(640,494,o),
(640,299,cs),
(640,141,o),
(552,40,o),
(424,40,cs)
);
},
{
closed = 1;
nodes = (
(139,-10,l),
(737,670,l),
(668,670,l),
(70,-10,l)
);
}
);
width = 807;
},
{
anchors = (
{
name = top;
pos = (389,710);
}
);
associatedMasterId = m002;
layerId = "F2DE0161-FA20-4810-BB47-0FC49B9374DC";
name = "Dec 21, 21, 20:14";
shapes = (
{
closed = 1;
nodes = (
(591,-10,o),
(742,134,o),
(742,330,cs),
(742,526,o),
(591,670,o),
(388,670,cs),
(186,670,o),
(35,526,o),
(35,330,cs),
(35,134,o),
(186,-10,o),
(388,-10,cs)
);
},
{
closed = 1;
nodes = (
(309,43,o),
(235,169,o),
(235,361,cs),
(235,518,o),
(296,618,o),
(377,618,cs),
(470,618,o),
(542,493,o),
(542,301,cs),
(542,144,o),
(485,43,o),
(401,43,cs)
);
},
{
closed = 1;
nodes = (
(115,-10,l),
(742,670,l),
(662,670,l),
(35,-10,l)
);
}
);
visible = 1;
width = 777;
}
);
unicode = 216;
},
{
color = 5;
glyphname = OE;
kernLeft = kern_O2;
kernRight = kern_E1;
layers = (
{
layerId = m01;
shapes = (
{
closed = 1;
nodes = (
(923,0,ls),
(936,0,o),
(943,7,o),
(943,20,cs),
(943,162,ls),
(943,172,o),
(943,182,o),
(933,182,cs),
(910,182,o),
(885,55,o),
(835,55,cs),
(616,55,ls),
(603,55,o),
(596,62,o),
(596,75,cs),
(596,293,ls),
(596,303,o),
(603,313,o),
(616,313,cs),
(746,313,ls),
(782,313,o),
(804,232,o),
(822,232,cs),
(832,232,o),
(832,242,o),
(832,252,cs),
(832,431,ls),
(832,441,o),
(832,451,o),
(822,451,cs),
(804,451,o),
(782,368,o),
(746,368,cs),
(616,368,ls),
(603,368,o),
(596,375,o),
(596,388,cs),
(596,585,ls),
(596,597,o),
(604,605,o),
(616,605,cs),
(807,605,ls),
(857,605,o),
(885,488,o),
(905,488,cs),
(915,488,o),
(915,498,o),
(915,508,cs),
(915,640,ls),
(915,653,o),
(908,660,o),
(895,660,cs),
(449,660,ls),
(185,660,o),
(71,503,o),
(71,316,cs),
(71,143,o),
(168,0,o),
(441,0,cs)
);
},
{
closed = 1;
nodes = (
(286,55,o),
(165,142,o),
(165,334,cs),
(165,485,o),
(245,605,o),
(457,605,cs),
(499,605,o),
(506,599,o),
(506,585,cs),
(506,86,ls),
(506,60,o),
(488,55,o),
(438,55,cs)
);
}
);
width = 1013;
},
{
layerId = m002;
shapes = (
{
closed = 1;
nodes = (
(999,0,ls),
(1012,0,o),
(1019,7,o),
(1019,20,cs),
(1019,199,ls),
(1019,209,o),
(1019,219,o),
(1009,219,cs),
(986,219,o),
(931,55,o),
(881,55,cs),
(708,55,ls),
(695,55,o),
(688,62,o),
(688,75,cs),
(688,293,ls),
(688,303,o),
(695,313,o),
(708,313,cs),
(812,313,ls),
(848,313,o),
(880,227,o),
(898,227,cs),
(908,227,o),
(908,237,o),
(908,247,cs),
(908,436,ls),
(908,446,o),
(908,456,o),
(898,456,cs),
(880,456,o),
(848,368,o),
(812,368,cs),
(708,368,ls),
(695,368,o),
(688,375,o),
(688,388,cs),
(688,585,ls),
(688,597,o),
(696,605,o),
(708,605,cs),
(863,605,ls),
(913,605,o),
(961,486,o),
(981,486,cs),
(991,486,o),
(991,496,o),
(991,506,cs),
(991,640,ls),
(991,653,o),
(984,660,o),
(971,660,cs),
(441,660,ls),
(159,660,o),
(35,503,o),
(35,316,cs),
(35,143,o),
(139,0,o),
(441,0,cs)
);
},
{
closed = 1;
nodes = (
(339,55,o),
(231,142,o),
(231,334,cs),
(231,485,o),
(297,605,o),
(449,605,cs),
(491,605,o),
(498,599,o),
(498,585,cs),
(498,86,ls),
(498,60,o),
(485,55,o),
(442,55,cs)
);
}
);
width = 1059;
},
{
associatedMasterId = m01;
layerId = "195875D3-E2B7-4546-8E5F-F6E21022DCC2";
name = "Dec 21, 21, 20:31";
shapes = (
{
closed = 1;
nodes = (
(596,0,l),
(596,660,l),
(424,660,ls),
(221,660,o),
(70,522,o),
(70,326,cs),
(70,130,o),
(200,2,o),
(417,0,cs)
);
},
{
closed = 1;
nodes = (
(264,55,o),
(165,164,o),
(165,330,cs),
(165,499,o),
(264,605,o),
(425,605,cs),
(535,605,l),
(506,627,l),
(506,28,l),
(532,55,l),
(440,55,ls)
);
},
{
closed = 1;
nodes = (
(915,660,l),
(563,660,l),
(563,605,l),
(837,605,l),
(899,488,l),
(915,488,l)
);
},
{
closed = 1;
nodes = (
(832,451,l),
(816,451,l),
(766,368,l),
(551,368,l),
(551,313,l),
(766,313,l),
(816,232,l),
(832,232,l)
);
},
{
closed = 1;
nodes = (
(943,182,l),
(927,182,l),
(865,55,l),
(571,55,l),
(571,0,l),
(943,0,l)
);
}
);
width = 1013;
},
{
associatedMasterId = m002;
layerId = "CC345EA7-AAE7-4226-B7EF-E0E71068DE0A";
name = "Dec 21, 21, 20:31";
shapes = (
{
closed = 1;
nodes = (
(688,0,l),
(688,660,l),
(430,660,ls),
(201,660,o),
(35,528,o),
(35,315,cs),
(35,119,o),
(176,0,o),
(423,0,c)
);
},
{
closed = 1;
nodes = (
(307,55,o),
(231,166,o),
(231,341,cs),
(231,502,o),
(309,605,o),
(454,605,cs),
(541,605,l),
(498,633,l),
(498,28,l),
(569,55,l),
(463,55,ls)
);
},
{
closed = 1;
nodes = (
(991,660,l),
(586,660,l),
(586,605,l),
(893,605,l),
(975,486,l),
(991,486,l)
);
},
{
closed = 1;
nodes = (
(908,456,l),
(892,456,l),
(832,368,l),
(594,368,l),
(594,313,l),
(832,313,l),
(892,227,l),
(908,227,l)
);
},
{
closed = 1;
nodes = (
(1019,219,l),
(1003,219,l),
(914,55,l),
(614,55,l),
(614,0,l),
(1019,0,l)
);
}
);
visible = 1;
width = 1059;
}
);
unicode = 338;
},
{
color = 5;
glyphname = P;
kernLeft = kern_H2;
kernRight = kern_P1;
layers = (
{
layerId = m01;
shapes = (
{
closed = 1;
nodes = (
(305,0,ls),
(312,0,o),
(315,3,o),
(315,10,cs),
(315,15,o),
(311,18,o),
(305,21,cs),
(255,46,ls),
(241,53,o),
(235,61,o),
(235,76,cs),
(235,579,ls),
(235,599,o),
(249,605,o),
(265,605,cs),
(406,605,o),
(489,586,o),
(489,473,cs),
(489,380,o),
(397,345,o),
(304,334,cs),
(287,332,o),
(279,324,o),
(279,312,cs),
(279,297,o),
(289,291,o),
(304,291,cs),
(462,291,o),
(586,365,o),
(586,481,cs),
(586,597,o),
(497,660,o),
(315,660,cs),
(75,660,ls),
(68,660,o),
(65,657,o),
(65,650,cs),
(65,645,o),
(69,642,o),
(75,639,cs),
(125,614,ls),
(141,606,o),
(145,600,o),
(145,585,cs),
(145,76,ls),
(145,61,o),
(139,53,o),
(125,46,cs),
(75,21,ls),
(69,18,o),
(65,15,o),
(65,10,cs),
(65,3,o),
(68,0,o),
(75,0,cs)
);
}
);
width = 638;
},
{
layerId = m002;
shapes = (
{
closed = 1;
nodes = (
(409,0,ls),
(416,0,o),
(419,3,o),
(419,10,cs),
(419,15,o),
(416,17,o),
(409,20,cs),
(327,51,ls),
(313,56,o),
(309,61,o),
(309,76,cs),
(309,585,ls),
(309,600,o),
(314,605,o),
(329,605,cs),
(410,605,o),
(503,586,o),
(503,473,cs),
(503,382,o),
(421,352,o),
(378,343,cs),
(365,340,o),
(352,333,o),
(352,319,cs),
(352,301,o),
(365,296,o),
(378,296,cs),
(535,296,o),
(693,341,o),
(693,481,cs),
(693,597,o),
(608,660,o),
(426,660,cs),
(49,660,ls),
(42,660,o),
(39,657,o),
(39,650,cs),
(39,645,o),
(43,642,o),
(49,639,cs),
(99,614,ls),
(115,606,o),
(119,600,o),
(119,585,cs),
(119,76,ls),
(119,61,o),
(114,56,o),
(100,49,cs),
(40,21,ls),
(34,18,o),
(30,15,o),
(30,10,cs),
(30,3,o),
(33,0,o),
(40,0,cs)
);
}
);
width = 713;
},
{
associatedMasterId = m01;
layerId = "2F618A1E-1857-4B21-9DD0-ED5A94491E69";
name = "Jan 12, 22, 19:27";
shapes = (
{
closed = 1;
nodes = (
(325,0,l),
(325,16,l),
(235,56,l),
(235,605,l),
(313,605,ls),
(426,605,o),
(489,566,o),
(489,473,cs),
(489,398,o),
(425,346,o),
(320,346,cs),
(210,346,l),
(210,291,l),
(301,291,ls),
(464,291,o),
(586,372,o),
(586,481,cs),
(586,605,o),
(482,660,o),
(325,660,cs),
(65,660,l),
(65,644,l),
(145,604,l),
(145,56,l),
(65,16,l),
(65,0,l)
);
}
);
visible = 1;
width = 638;
},
{
associatedMasterId = m002;
layerId = "3A8B6004-ACD8-42B8-A2F6-C6D763EF7F14";
name = "Jan 12, 22, 19:27";
shapes = (
{
closed = 1;
nodes = (
(419,0,l),
(419,16,l),
(309,58,l),
(309,605,l),
(327,605,ls),
(440,605,o),
(503,566,o),
(503,473,cs),
(503,398,o),
(439,341,o),
(334,341,cs),
(284,341,l),
(284,296,l),
(408,296,ls),
(571,296,o),
(693,368,o),
(693,483,cs),
(693,607,o),
(589,660,o),
(432,660,cs),
(30,660,l),
(30,644,l),
(119,602,l),
(119,58,l),
(30,16,l),
(30,0,l)
);
}
);
width = 713;
}
);
unicode = 80;
},
{
color = 5;
glyphname = Thorn;
kernLeft = kern_H2;
kernRight = kern_Thorn1;
layers = (
{
layerId = m01;
shapes = (
{
closed = 1;
nodes = (
(301,0,ls),
(310,0,o),
(315,3,o),
(315,10,cs),
(315,24,o),
(235,43,o),
(235,76,cs),
(235,151,ls),
(235,161,o),
(239,171,o),
(255,171,cs),
(305,171,ls),
(463,171,o),
(586,242,o),
(586,366,cs),
(586,482,o),
(493,540,o),
(315,540,cs),
(255,540,ls),
(239,540,o),
(235,544,o),
(235,560,cs),
(235,586,ls),
(235,615,o),
(315,633,o),
(315,648,cs),
(315,656,o),
(312,660,o),
(305,660,cs),
(75,660,ls),
(67,660,o),
(65,653,o),
(65,648,cs),
(65,633,o),
(145,615,o),
(145,586,cs),
(145,76,ls),
(145,43,o),
(65,24,o),
(65,10,cs),
(65,3,o),
(69,0,o),
(79,0,cs)
);
},
{
closed = 1;
nodes = (
(255,226,ls),
(240,226,o),
(235,232,o),
(235,246,cs),
(235,465,ls),
(235,479,o),
(239,485,o),
(255,485,cs),
(328,485,ls),
(432,485,o),
(489,437,o),
(489,356,cs),
(489,284,o),
(430,226,o),
(329,226,cs)
);
}
);
width = 638;
},
{
layerId = m002;
shapes = (
{
closed = 1;
nodes = (
(375,0,ls),
(384,0,o),
(389,3,o),
(389,10,cs),
(389,24,o),
(309,43,o),
(309,76,cs),
(309,142,ls),
(309,152,o),
(313,162,o),
(329,162,cs),
(408,162,ls),
(566,162,o),
(693,229,o),
(693,356,cs),
(693,474,o),
(589,526,o),
(429,526,cs),
(329,526,ls),
(313,526,o),
(309,530,o),
(309,546,cs),
(309,586,ls),
(309,615,o),
(398,633,o),
(398,648,cs),
(398,656,o),
(395,660,o),
(388,660,cs),
(40,660,ls),
(32,660,o),
(30,653,o),
(30,648,cs),
(30,633,o),
(119,615,o),
(119,586,cs),
(119,76,ls),
(119,43,o),
(30,24,o),
(30,10,cs),
(30,3,o),
(34,0,o),
(44,0,cs)
);
},
{
closed = 1;
nodes = (
(329,207,ls),
(314,207,o),
(309,213,o),
(309,227,cs),
(309,451,ls),
(309,465,o),
(313,471,o),
(329,471,cs),
(368,471,ls),
(422,471,o),
(503,437,o),
(503,356,cs),
(503,244,o),
(408,207,o),
(357,207,cs)
);
}
);
width = 713;
},
{
associatedMasterId = m01;
layerId = "D56D1DC1-4397-4FC0-835D-CE158CB33BE8";
name = "Dec 21, 21, 21:17";
shapes = (
{
closed = 1;
nodes = (
(315,0,l),
(315,16,l),
(235,56,l),
(235,604,l),
(315,644,l),
(315,660,l),
(65,660,l),
(65,644,l),
(145,604,l),
(145,56,l),
(65,16,l),
(65,0,l)
);
},
{
closed = 1;
nodes = (
(464,171,o),
(586,252,o),
(586,361,cs),
(586,485,o),
(482,540,o),
(325,540,cs),
(218,540,l),
(218,485,l),
(313,485,ls),
(426,485,o),
(489,446,o),
(489,353,cs),
(489,278,o),
(425,226,o),
(320,226,cs),
(210,226,l),
(210,171,l),
(301,171,ls)
);
}
);
width = 638;
},
{
associatedMasterId = m002;
layerId = "CC4BA9B4-BCBC-4096-B7A7-41E5BF003C68";
name = "Dec 21, 21, 21:17";
shapes = (
{
closed = 1;
nodes = (
(398,0,l),
(398,16,l),
(309,58,l),
(309,602,l),
(398,644,l),
(398,660,l),
(30,660,l),
(30,644,l),
(119,602,l),
(119,58,l),
(30,16,l),
(30,0,l)
);
},
{
closed = 1;
nodes = (
(571,162,o),
(693,234,o),
(693,349,cs),
(693,473,o),
(589,526,o),
(432,526,cs),
(284,526,l),
(284,471,l),
(327,471,ls),
(440,471,o),
(503,432,o),
(503,339,cs),
(503,264,o),
(439,207,o),
(334,207,cs),
(284,207,l),
(284,162,l),
(408,162,ls)
);
}
);
width = 713;
}
);
unicode = 222;
},
{
color = 5;
glyphname = Q;
kernLeft = kern_O2;
kernRight = kern_O1;
layers = (
{
layerId = m01;
shapes = (
{
closed = 1;
nodes = (
(281,40,o),
(167,168,o),
(167,363,cs),
(167,521,o),
(258,621,o),
(386,621,cs),
(528,621,o),
(640,494,o),
(640,299,cs),
(640,141,o),
(552,40,o),
(424,40,cs)
);
},
{
closed = 1;
nodes = (
(797,-192,o),
(853,-134,o),
(853,-114,cs),
(853,-108,o),
(848,-104,o),
(843,-104,cs),
(833,-104,o),
(811,-115,o),
(767,-115,cs),
(695,-115,o),
(624,-90,o),
(534,-25,cs),
(519,-14,o),
(514,-6,o),
(514,0,cs),
(514,7,o),
(520,9,o),
(530,13,cs),
(655,61,o),
(737,181,o),
(737,330,cs),
(737,526,o),
(595,670,o),
(403,670,cs),
(212,670,o),
(70,526,o),
(70,330,cs),
(70,143,o),
(204,14,o),
(355,-6,cs),
(515,-27,o),
(512,-192,o),
(712,-192,cs)
);
}
);
width = 807;
},
{
layerId = m002;
shapes = (
{
closed = 1;
nodes = (
(283,43,o),
(236,208,o),
(236,363,cs),
(236,521,o),
(292,618,o),
(386,618,cs),
(468,618,o),
(541,494,o),
(541,299,cs),
(541,141,o),
(480,43,o),
(409,43,cs)
);
},
{
closed = 1;
nodes = (
(767,-192,o),
(853,-142,o),
(853,-121,cs),
(853,-111,o),
(848,-104,o),
(837,-104,cs),
(827,-104,o),
(801,-115,o),
(767,-115,cs),
(705,-115,o),
(648,-99,o),
(543,-15,cs),
(528,-3,o),
(523,4,o),
(523,10,cs),
(523,17,o),
(529,19,o),
(539,23,cs),
(664,71,o),
(742,181,o),
(742,330,cs),
(742,526,o),
(595,670,o),
(403,670,cs),
(182,670,o),
(34,526,o),
(34,330,cs),
(34,116,o),
(209,4,o),
(332,-6,cs),
(481,-18,o),
(482,-192,o),
(712,-192,cs)
);
}
);
width = 777;
}
);
unicode = 81;
},
{
color = 5;
glyphname = R;
kernLeft = kern_H2;
kernRight = kern_R1;
layers = (
{
anchors = (
{
name = bottom;
pos = (367,0);
},
{
name = top;
pos = (317,710);
}
);
layerId = m01;
shapes = (
{
closed = 1;
nodes = (
(300,0,ls),
(307,0,o),
(310,3,o),
(310,10,cs),
(310,15,o),
(305,19,o),
(299,22,cs),
(255,46,ls),
(242,53,o),
(235,61,o),
(235,76,cs),
(235,283,ls),
(235,298,o),
(240,303,o),
(255,303,cs),
(311,303,ls),
(323,303,o),
(329,301,o),
(335,292,cs),
(509,20,ls),
(519,5,o),
(526,0,o),
(542,0,cs),
(656,0,ls),
(663,0,o),
(666,4,o),
(666,10,cs),
(666,13,o),
(663,17,o),
(656,21,cs),
(615,44,ls),
(605,49,o),
(600,52,o),
(587,71,cs),
(425,308,ls),
(419,317,o),
(417,321,o),
(417,326,cs),
(417,331,o),
(425,334,o),
(429,336,cs),
(461,351,o),
(549,399,o),
(549,498,cs),
(549,582,o),
(482,660,o),
(325,660,cs),
(75,660,ls),
(68,660,o),
(65,657,o),
(65,650,cs),
(65,645,o),
(69,642,o),
(75,639,cs),
(125,614,ls),
(141,606,o),
(145,600,o),
(145,585,cs),
(145,76,ls),
(145,61,o),
(139,53,o),
(125,46,cs),
(75,21,ls),
(69,18,o),
(65,15,o),
(65,10,cs),
(65,3,o),
(68,0,o),
(75,0,cs)
);
},
{
closed = 1;
nodes = (
(240,358,o),
(235,363,o),
(235,378,cs),
(235,585,ls),
(235,600,o),
(240,605,o),
(255,605,cs),
(288,605,ls),
(408,605,o),
(452,552,o),
(452,483,cs),
(452,399,o),
(372,358,o),
(311,358,cs),
(255,358,ls)
);
}
);
width = 661;
},
{
anchors = (
{
name = bottom;
pos = (428,0);
},
{
name = top;
pos = (357,710);
}
);
layerId = m002;
shapes = (
{
closed = 1;
nodes = (
(374,0,ls),
(381,0,o),
(384,3,o),
(384,10,cs),
(384,15,o),
(380,19,o),
(374,22,cs),
(328,48,ls),
(315,55,o),
(309,61,o),
(309,76,cs),
(309,288,ls),
(309,305,o),
(317,308,o),
(324,308,cs),
(327,308,ls),
(336,308,o),
(342,301,o),
(349,288,cs),
(504,21,ls),
(512,7,o),
(520,0,o),
(536,0,cs),
(770,0,ls),
(778,0,o),
(780,3,o),
(780,10,cs),
(780,14,o),
(778,17,o),
(771,21,cs),
(729,44,ls),
(719,49,o),
(713,52,o),
(701,71,cs),
(535,324,ls),
(529,333,o),
(527,337,o),
(527,342,cs),
(527,347,o),
(532,350,o),
(539,353,cs),
(579,370,o),
(653,408,o),
(653,498,cs),
(653,582,o),
(591,660,o),
(414,660,cs),
(40,660,ls),
(33,660,o),
(30,657,o),
(30,650,cs),
(30,645,o),
(34,642,o),
(40,639,cs),
(100,611,ls),
(117,603,o),
(119,600,o),
(119,585,cs),
(119,76,ls),
(119,61,o),
(114,56,o),
(100,49,cs),
(40,21,ls),
(34,18,o),
(30,15,o),
(30,10,cs),
(30,3,o),
(33,0,o),
(40,0,cs)
);
},
{
closed = 1;
nodes = (
(314,353,o),
(309,358,o),
(309,373,cs),
(309,585,ls),
(309,600,o),
(314,605,o),
(329,605,cs),
(344,605,ls),
(423,605,o),
(466,552,o),
(466,483,cs),
(466,399,o),
(414,353,o),
(344,353,cs),
(329,353,ls)
);
}
);
width = 770;
},
{
anchors = (
{
name = bottom;
pos = (367,0);
},
{
name = top;
pos = (317,710);
}
);
associatedMasterId = m01;
layerId = "E97F9A99-FD1C-4EA4-9D25-E3F7789D80BE";
name = "Jan 12, 22, 23:01";
shapes = (
{
closed = 1;
nodes = (
(310,0,l),
(310,16,l),
(235,57,l),
(235,660,l),
(65,660,l),
(65,644,l),
(145,604,l),
(145,56,l),
(65,16,l),
(65,0,l)
);
},
{
closed = 1;
nodes = (
(549,598,o),
(463,660,o),
(323,660,cs),
(182,660,l),
(182,605,l),
(300,605,ls),
(394,605,o),
(452,559,o),
(452,484,cs),
(452,411,o),
(390,358,o),
(306,358,cs),
(190,358,l),
(190,303,l),
(333,303,l),
(333,312,l),
(457,324,o),
(549,401,o),
(549,497,cs)
);
},
{
closed = 1;
nodes = (
(666,0,l),
(666,16,l),
(600,52,l),
(402,341,l),
(304,341,l),
(522,0,l)
);
}
);
width = 661;
},
{
anchors = (
{
name = bottom;
pos = (428,0);
},
{
name = top;
pos = (357,710);
}
);
associatedMasterId = m002;
layerId = "E74C8C9D-292A-4141-8682-630123C60FB2";
name = "Jan 12, 22, 23:04";
shapes = (
{
closed = 1;
nodes = (
(384,0,l),
(384,16,l),
(309,59,l),
(309,660,l),
(30,660,l),
(30,644,l),
(119,602,l),
(119,58,l),
(30,16,l),
(30,0,l)
);
},
{
closed = 1;
nodes = (
(653,598,o),
(567,660,o),
(427,660,cs),
(256,660,l),
(256,605,l),
(333,605,ls),
(423,605,o),
(466,560.466,o),
(466,479,cs),
(466,402.983,o),
(419,353,o),
(339,353,cs),
(264,353,l),
(264,308,l),
(398,308,l),
(414,319,l),
(551,342,o),
(653,394,o),
(653,497,cs)
);
},
{
closed = 1;
nodes = (
(780,0,l),
(780,16,l),
(704,59,l),
(512,361,l),
(321,336,l),
(516,0,l)
);
}
);
visible = 1;
width = 770;
}
);
unicode = 82;
},
{
color = 5;
glyphname = S;
kernLeft = kern_S3;
kernRight = kern_S3;
layers = (
{
anchors = (
{
name = bottom;
pos = (272,0);
},
{
name = top;
pos = (272,710);
}
);
layerId = m01;
shapes = (
{
closed = 1;
nodes = (
(356,-10,o),
(476,55,o),
(476,180,cs),
(476,282,o),
(420,319,o),
(299,378,cs),
(211,421,o),
(171,450,o),
(171,518,cs),
(171,577,o),
(212,622,o),
(274,622,cs),
(333,622,o),
(380,585,o),
(392,557,cs),
(427,477,ls),
(429,472,o),
(432,468,o),
(438,468,cs),
(443,468,o),
(446,472,o),
(446,483,cs),
(446,604,ls),
(446,618,o),
(440,626,o),
(418,637,cs),
(385,653,o),
(337,670,o),
(280,670,cs),
(179,670,o),
(81,577,o),
(81,487,cs),
(81,395,o),
(134,357,o),
(228,310,cs),
(328,260,o),
(390,239,o),
(390,152,cs),
(390,81,o),
(343,37,o),
(264,37,cs),
(212,37,o),
(137,67,o),
(116,113,cs),
(82,187,ls),
(79,194,o),
(76,200,o),
(70,200,cs),
(64,200,o),
(61,197,o),
(61,187,cs),
(61,56,ls),
(61,41,o),
(70,36,o),
(82,30,cs),
(138,2,o),
(197,-10,o),
(264,-10,cs)
);
}
);
width = 531;
},
{
anchors = (
{
name = bottom;
pos = (297,0);
},
{
name = top;
pos = (318,710);
}
);
layerId = m002;
shapes = (
{
closed = 1;
nodes = (
(396,-10,o),
(556,54,o),
(556,199,cs),
(556,289,o),
(516,346,o),
(353,418,cs),
(297,443,o),
(245,466,o),
(245,534,cs),
(245,593,o),
(293,615,o),
(342,615,cs),
(367,615,o),
(423,601,o),
(454,550,cs),
(501,472,ls),
(504,468,o),
(508,462,o),
(515,462,cs),
(521,462,o),
(525,466,o),
(525,476,cs),
(525,602,ls),
(525,618,o),
(516,628,o),
(496,636,cs),
(446,657,o),
(384,670,o),
(340,670,cs),
(159,670,o),
(61,547,o),
(61,457,cs),
(61,365,o),
(113,312,o),
(228,262,cs),
(330,218,o),
(375,199,o),
(375,142,cs),
(375,71,o),
(323,44,o),
(264,44,cs),
(188,44,o),
(144,81,o),
(126,113,cs),
(75,204,ls),
(70,212,o),
(67,217,o),
(61,217,cs),
(55,217,o),
(49,212,o),
(49,204,cs),
(49,67,ls),
(49,47,o),
(59,38,o),
(77,30,cs),
(111,14,o),
(195,-10,o),
(264,-10,cs)
);
}
);
width = 599;
},
{
anchors = (
{
name = bottom;
pos = (272,0);
},
{
name = top;
pos = (272,710);
}
);
associatedMasterId = m01;
layerId = "22478298-CD4D-40E8-8E0C-19024BB93B67";
name = "Jan 12, 22, 23:56";
shapes = (
{
closed = 1;
nodes = (
(356,-10,o),
(476,55,o),
(476,180,cs),
(476,282,o),
(420,319,o),
(299,378,cs),
(211,421,o),
(171,450,o),
(171,518,cs),
(171,577,o),
(213,622,o),
(272,622,cs),
(320,622,o),
(351,606,o),
(402,566,c),
(384,593,l),
(439,468,l),
(455,468,l),
(445,628,l),
(391,655,o),
(342,670,o),
(280,670,cs),
(179,670,o),
(81,577,o),
(81,487,cs),
(81,395,o),
(134,357,o),
(228,310,cs),
(328,260,o),
(390,239,o),
(390,152,cs),
(390,81,o),
(343,37,o),
(264,37,cs),
(215,37,o),
(168,56,o),
(115,102,c),
(142,56,l),
(76,200,l),
(60,200,l),
(70,36,l),
(132,5,o),
(182,-10,o),
(264,-10,cs)
);
}
);
width = 531;
},
{
anchors = (
{
name = bottom;
pos = (297,0);
},
{
name = top;
pos = (318,710);
}
);
associatedMasterId = m002;
layerId = "BF0CD365-D798-4350-B9E2-603EE4864644";
name = "Jan 13, 22, 00:28";
shapes = (
{
closed = 1;
nodes = (
(425,-10,o),
(555,71,o),
(555,203,cs),
(555,295.82,o),
(499.631,354.161,o),
(378,407,cs),
(275.419,452.256,o),
(244,479.581,o),
(244,527,cs),
(244,581.871,o),
(282,615,o),
(334,615,cs),
(381,615,o),
(414,596,o),
(451,564,c),
(410,611,l),
(516,462,l),
(534,462,l),
(524,622,l),
(471.381,652.207,o),
(398,670,o),
(326,670,cs),
(195,670,o),
(60,576,o),
(60,455,cs),
(60,372.753,o),
(112.219,310.91,o),
(207,272,cs),
(348.478,212.8,o),
(375,191.943,o),
(375,136,cs),
(375,71.91,o),
(323,44,o),
(255,44,cs),
(207,44,o),
(159,66,o),
(132,93,c),
(158,62,l),
(58,217,l),
(39,217,l),
(49,44,l),
(113,11,o),
(184,-10,o),
(276,-10,cs)
);
}
);
visible = 1;
width = 599;
}
);
unicode = 83;
},
{
color = 5;
glyphname = T;
kernLeft = kern_T2;
kernRight = kern_T1;
layers = (
{
anchors = (
{
name = bottom;
pos = (337,0);
},
{
name = top;
pos = (337,710);
}
);
layerId = m01;
shapes = (
{
closed = 1;
nodes = (
(472,0,ls),
(479,0,o),
(482,3,o),
(482,10,cs),
(482,15,o),
(478,18,o),
(472,20,cs),
(402,48,ls),
(388,54,o),
(382,61,o),
(382,76,cs),
(382,585,ls),
(382,600,o),
(387,605,o),
(402,605,cs),
(527,605,ls),
(541,605,o),
(546,601,o),
(551,592,cs),
(609,497,ls),
(613,490,o),
(616,488,o),
(621,488,cs),
(626,488,o),
(629,491,o),
(629,497,cs),
(629,640,ls),
(629,657,o),
(626,660,o),
(609,660,cs),
(65,660,ls),
(48,660,o),
(45,657,o),
(45,640,cs),
(45,497,ls),
(45,491,o),
(48,488,o),
(53,488,cs),
(58,488,o),
(61,490,o),
(65,497,cs),
(123,592,ls),
(128,601,o),
(133,605,o),
(147,605,cs),
(271,605,ls),
(287,605,o),
(292,600,o),
(292,585,cs),
(292,76,ls),
(292,61,o),
(286,52,o),
(272,47,cs),
(202,20,ls),
(196,18,o),
(192,14,o),
(192,9,cs),
(192,2,o),
(195,0,o),
(202,0,cs)
);
}
);
width = 674;
},
{
anchors = (
{
name = bottom;
pos = (359,0);
},
{
name = top;
pos = (359,710);
}
);
layerId = m002;
shapes = (
{
closed = 1;
nodes = (
(554,0,ls),
(561,0,o),
(564,3,o),
(564,10,cs),
(564,15,o),
(560,18,o),
(554,20,cs),
(475,50,ls),
(461,55,o),
(454,61,o),
(454,76,cs),
(454,585,ls),
(454,600,o),
(459,605,o),
(474,605,cs),
(566,605,ls),
(580,605,o),
(584,601,o),
(590,592,cs),
(668,477,ls),
(673,470,o),
(675,468,o),
(680,468,cs),
(685,468,o),
(688,471,o),
(688,477,cs),
(688,640,ls),
(688,657,o),
(685,660,o),
(668,660,cs),
(50,660,ls),
(33,660,o),
(30,657,o),
(30,640,cs),
(30,477,ls),
(30,471,o),
(33,468,o),
(38,468,cs),
(43,468,o),
(45,470,o),
(50,477,cs),
(128,592,ls),
(134,601,o),
(138,605,o),
(152,605,cs),
(243,605,ls),
(259,605,o),
(264,600,o),
(264,585,cs),
(264,76,ls),
(264,61,o),
(259,56,o),
(245,51,cs),
(164,20,ls),
(158,18,o),
(154,14,o),
(154,9,cs),
(154,2,o),
(157,0,o),
(164,0,cs)
);
}
);
width = 718;
},
{
anchors = (
{
name = bottom;
pos = (337,0);
},
{
name = top;
pos = (337,710);
}
);
associatedMasterId = m01;
layerId = "25E21B2D-786C-4824-9C59-BC6BD9225BFF";
name = "Jan 13, 22, 03:42";
shapes = (
{
closed = 1;
nodes = (
(482,0,l),
(482,16,l),
(382,56,l),
(382,605,l),
(545,605,l),
(613,458,l),
(629,458,l),
(629,660,l),
(45,660,l),
(45,458,l),
(61,458,l),
(129,605,l),
(292,605,l),
(292,56,l),
(192,16,l),
(192,0,l)
);
}
);
width = 674;
},
{
anchors = (
{
name = bottom;
pos = (359,0);
},
{
name = top;
pos = (359,710);
}
);
associatedMasterId = m002;
layerId = "1641C6D3-DFEC-448A-91A2-AE9DDB174972";
name = "Jan 13, 22, 03:50";
shapes = (
{
closed = 1;
nodes = (
(564,0,l),
(564,16,l),
(454,58,l),
(454,605,l),
(584,605,l),
(672,429,l),
(688,429,l),
(688,660,l),
(30,660,l),
(30,429,l),
(46,429,l),
(134,605,l),
(264,605,l),
(264,58,l),
(154,16,l),
(154,0,l)
);
}
);
visible = 1;
width = 718;
}
);
unicode = 84;
},
{
color = 5;
glyphname = U;
kernLeft = kern_U2;
kernRight = kern_U1;
layers = (
{
anchors = (
{
name = bottom;
pos = (402,0);
},
{
name = right;
pos = (431,0);
},
{
name = top;
pos = (415,710);
}
);
layerId = m01;
shapes = (
{
closed = 1;
nodes = (
(554,-10,o),
(665,70,o),
(665,256,cs),
(665,585,ls),
(665,600,o),
(668,607,o),
(685,615,cs),
(734,639,ls),
(740,642,o),
(744,645,o),
(744,650,cs),
(744,657,o),
(741,660,o),
(734,660,cs),
(505,660,ls),
(498,660,o),
(495,657,o),
(495,650,cs),
(495,645,o),
(499,642,o),
(505,640,cs),
(574,614,ls),
(591,608,o),
(595,600,o),
(595,585,cs),
(595,229,ls),
(595,105,o),
(517,51,o),
(431,51,cs),
(321,51,o),
(235,105,o),
(235,271,cs),
(235,585,ls),
(235,600,o),
(239,606,o),
(255,614,cs),
(305,639,ls),
(311,642,o),
(315,645,o),
(315,650,cs),
(315,657,o),
(312,660,o),
(305,660,cs),
(75,660,ls),
(68,660,o),
(65,657,o),
(65,650,cs),
(65,645,o),
(69,642,o),
(75,639,cs),
(125,614,ls),
(141,606,o),
(145,600,o),
(145,585,cs),
(145,256,ls),
(145,69,o),
(256,-10,o),
(405,-10,cs)
);
}
);
width = 809;
},
{
anchors = (
{
name = bottom;
pos = (468,0);
},
{
name = right;
pos = (479,0);
},
{
name = top;
pos = (483,710);
}
);
layerId = m002;
shapes = (
{
closed = 1;
nodes = (
(634,-10,o),
(736,90,o),
(736,276,cs),
(736,585,ls),
(736,600,o),
(740,605,o),
(756,612,cs),
(816,639,ls),
(822,642,o),
(826,645,o),
(826,650,cs),
(826,657,o),
(823,660,o),
(816,660,cs),
(586,660,ls),
(579,660,o),
(576,657,o),
(576,650,cs),
(576,645,o),
(580,642,o),
(586,639,cs),
(646,613,ls),
(663,606,o),
(666,600,o),
(666,585,cs),
(666,246,ls),
(666,125,o),
(581,76,o),
(505,76,cs),
(395,76,o),
(312,125,o),
(311,291,cs),
(310,585,ls),
(310,596,o),
(314,604,o),
(327,610,cs),
(390,639,ls),
(396,642,o),
(400,645,o),
(400,650,cs),
(400,657,o),
(397,660,o),
(390,660,cs),
(40,660,ls),
(33,660,o),
(30,657,o),
(30,650,cs),
(30,645,o),
(34,642,o),
(40,639,cs),
(101,611,ls),
(116,604,o),
(120,600,o),
(120,585,cs),
(120,276,ls),
(120,99,o),
(218,-10,o),
(435,-10,cs)
);
}
);
width = 856;
},
{
anchors = (
{
name = bottom;
pos = (402,0);
},
{
name = right;
pos = (431,0);
},
{
name = top;
pos = (415,710);
}
);
associatedMasterId = m01;
layerId = "E88D933E-B92E-4348-89B8-54FAEF7E494C";
name = "Jan 13, 22, 04:07";
shapes = (
{
closed = 1;
nodes = (
(554,-10,o),
(665,70,o),
(665,256,cs),
(665,605,l),
(744,644,l),
(744,660,l),
(495,660,l),
(495,644,l),
(595,606,l),
(595,236,ls),
(595,101,o),
(519,48,o),
(431,48,cs),
(321,48,o),
(235,105,o),
(235,271,cs),
(235,604,l),
(315,644,l),
(315,660,l),
(65,660,l),
(65,644,l),
(145,604,l),
(145,256,ls),
(145,70,o),
(256,-10,o),
(405,-10,cs)
);
}
);
visible = 1;
width = 809;
},
{
anchors = (
{
name = bottom;
pos = (468,0);
},
{
name = right;
pos = (479,0);
},
{
name = top;
pos = (483,710);
}
);
associatedMasterId = m002;
layerId = "653B3E56-0A50-42F8-B8C6-F18D48E259AF";
name = "Jan 13, 22, 05:07";
shapes = (
{
closed = 1;
nodes = (
(617.75,-10,o),
(736,66,o),
(736,302,cs),
(736,603,l),
(826,644,l),
(826,660,l),
(576,660,l),
(576,644,l),
(666,604,l),
(666,255,ls),
(666,124,o),
(586,76,o),
(498,76,cs),
(395,76,o),
(310,127,o),
(310,290,cs),
(310,602,l),
(400,644,l),
(400,660,l),
(30,660,l),
(30,644,l),
(120,602,l),
(120,302,ls),
(120,66,o),
(244.773,-10,o),
(435,-10,cs)
);
}
);
width = 856;
}
);
unicode = 85;
},
{
color = 5;
glyphname = V;
kernLeft = kern_V3;
kernRight = kern_V3;
layers = (
{
layerId = m01;
shapes = (
{
closed = 1;
nodes = (
(384,-20,o),
(388,-13,o),
(391,-5,cs),
(643,602,ls),
(646,608,o),
(650,615,o),
(659,620,cs),
(695,639,ls),
(701,642,o),
(705,645,o),
(705,650,cs),
(705,657,o),
(702,660,o),
(695,660,cs),
(505,660,ls),
(498,660,o),
(495,657,o),
(495,650,cs),
(495,645,o),
(500,642,o),
(505,640,cs),
(562,616,ls),
(571,612,o),
(573,609,o),
(573,605,cs),
(573,600,o),
(572,593,o),
(564,573,cs),
(401,168,ls),
(397,158,o),
(394,154,o),
(388,154,cs),
(383,154,o),
(380,157,o),
(376,168,cs),
(211,573,ls),
(203,592,o),
(202,596,o),
(202,602,cs),
(202,606,o),
(204,609,o),
(211,612,cs),
(276,640,ls),
(281,642,o),
(285,645,o),
(285,650,cs),
(285,657,o),
(282,660,o),
(275,660,cs),
(45,660,ls),
(38,660,o),
(35,657,o),
(35,651,cs),
(35,647,o),
(37,643,o),
(45,639,cs),
(90,616,ls),
(102,610,o),
(107,602,o),
(111,593,cs),
(356,-5,ls),
(358,-10,o),
(364,-20,o),
(372,-20,cs)
);
}
);
width = 740;
},
{
layerId = m002;
shapes = (
{
closed = 1;
nodes = (
(415,-20,o),
(423,-18,o),
(429,-5,cs),
(706,602,ls),
(709,608,o),
(711,611,o),
(719,616,cs),
(760,639,ls),
(765,642,o),
(769,645,o),
(769,650,cs),
(769,657,o),
(766,660,o),
(759,660,cs),
(562,660,ls),
(555,660,o),
(552,657,o),
(552,650,cs),
(552,645,o),
(557,641,o),
(562,639,cs),
(621,611,ls),
(625,609,o),
(628,606,o),
(628,600,cs),
(628,595,o),
(626,590,o),
(623,583,cs),
(471,247,ls),
(466,237,o),
(464,233,o),
(458,233,cs),
(453,233,o),
(451,236,o),
(446,247,cs),
(299,573,ls),
(291,592,o),
(287,596,o),
(287,602,cs),
(287,606,o),
(289,609,o),
(296,612,cs),
(351,639,ls),
(357,642,o),
(361,645,o),
(361,650,cs),
(361,657,o),
(358,660,o),
(351,660,cs),
(19,660,ls),
(12,660,o),
(9,657,o),
(9,650,cs),
(9,646,o),
(11,642,o),
(19,638,cs),
(65,612,ls),
(77,605,o),
(82,602,o),
(86,593,cs),
(356,-5,ls),
(362,-18,o),
(368,-20,o),
(391,-20,cs)
);
}
);
width = 780;
},
{
associatedMasterId = m01;
layerId = "26CD9CB5-BD36-45C8-A4FC-C01CCEA0BA24";
name = "Jan 13, 22, 18:50";
shapes = (
{
closed = 1;
nodes = (
(391,-5,l),
(656,632,l),
(632,605,l),
(705,644,l),
(705,660,l),
(495,660,l),
(495,644,l),
(577,610,l),
(577,606,l),
(373,99,l),
(411,144,l),
(366,144,l),
(404,99,l),
(199,602,l),
(199,607,l),
(285,644,l),
(285,660,l),
(35,660,l),
(35,644,l),
(144,588,l),
(94,632,l),
(356,-5,l)
);
}
);
width = 740;
},
{
associatedMasterId = m002;
layerId = "9C12ACA2-B91F-4843-AD90-106A41C63D84";
name = "Jan 13, 22, 20:54";
shapes = (
{
closed = 1;
nodes = (
(429,-5,l),
(720,632,l),
(680,594,l),
(769,644,l),
(769,660,l),
(552,660,l),
(552,644,l),
(654,594,l),
(645,632,l),
(435,168,l),
(486,229,l),
(431,229,l),
(482,168,l),
(272,632,l),
(260,594,l),
(361,644,l),
(361,660,l),
(9,660,l),
(9,644,l),
(118,581,l),
(68,632,l),
(356,-5,l)
);
}
);
visible = 1;
width = 780;
}
);
unicode = 86;
},
{
color = 5;
glyphname = W;
kernLeft = kern_W3;
kernRight = kern_W3;
layers = (
{
anchors = (
{
name = top;
pos = (506,710);
}
);
layerId = m01;
shapes = (
{
closed = 1;
nodes = (
(302,-16,o),
(306,-13,o),
(309,-5,cs),
(486,471,ls),
(488,476,o),
(490,478,o),
(494,478,cs),
(498,478,o),
(500,475,o),
(502,469,cs),
(678,-5,ls),
(680,-10,o),
(684,-16,o),
(695,-16,cs),
(707,-16,o),
(711,-13,o),
(713,-5,cs),
(896,599,ls),
(898,604,o),
(902,609,o),
(910,613,cs),
(957,639,ls),
(963,642,o),
(966,646,o),
(966,650,cs),
(966,657,o),
(963,660,o),
(956,660,cs),
(755,660,ls),
(750,660,o),
(745,657,o),
(745,652,cs),
(745,648,o),
(749,642,o),
(756,639,cs),
(813,614,ls),
(821,610,o),
(827,607,o),
(827,601,cs),
(827,595,o),
(825,588,o),
(821,574,cs),
(713,195,ls),
(710,185,o),
(708,183,o),
(704,183,cs),
(699,183,o),
(697,185,o),
(694,193,cs),
(529,651,ls),
(525,663,o),
(519,665,o),
(505,665,cs),
(492,665,o),
(486,662,o),
(482,651,cs),
(319,188,ls),
(318,185,o),
(316,179,o),
(312,179,cs),
(308,179,o),
(306,184,o),
(305,188,cs),
(192,580,ls),
(189,589,o),
(187,597,o),
(187,601,cs),
(187,607,o),
(192,610,o),
(198,613,cs),
(260,640,ls),
(267,643,o),
(269,646,o),
(269,650,cs),
(269,656,o),
(266,660,o),
(259,660,cs),
(25,660,ls),
(18,660,o),
(15,657,o),
(15,651,cs),
(15,646,o),
(17,643,o),
(25,639,cs),
(78,614,ls),
(86,610,o),
(91,604,o),
(95,592,cs),
(274,-3,ls),
(276,-10,o),
(281,-16,o),
(290,-16,cs)
);
}
);
width = 981;
},
{
anchors = (
{
name = top;
pos = (606,710);
}
);
layerId = m002;
shapes = (
{
closed = 1;
nodes = (
(348,-16,o),
(354,-13,o),
(358,-5,cs),
(541,401,ls),
(543,406,o),
(545,408,o),
(549,408,cs),
(553,408,o),
(554,405,o),
(557,399,cs),
(729,-5,ls),
(731,-10,o),
(739,-16,o),
(766,-16,cs),
(791,-16,o),
(799,-13,o),
(802,-5,cs),
(1000,599,ls),
(1003,607,o),
(1006,611,o),
(1014,615,cs),
(1062,639,ls),
(1068,642,o),
(1071,646,o),
(1071,650,cs),
(1071,657,o),
(1068,660,o),
(1061,660,cs),
(853,660,ls),
(846,660,o),
(843,657,o),
(843,652,cs),
(843,648,o),
(845,643,o),
(854,639,cs),
(911,613,ls),
(919,609,o),
(924,606,o),
(924,599,cs),
(924,593,o),
(923,590,o),
(919,576,cs),
(824,273,ls),
(822,265,o),
(819,260,o),
(814,260,cs),
(808,260,o),
(806,265,o),
(803,273,cs),
(648,651,ls),
(643,663,o),
(639,665,o),
(605,665,cs),
(572,665,o),
(568,662,o),
(563,651,cs),
(403,268,ls),
(401,263,o),
(398,259,o),
(393,259,cs),
(388,259,o),
(386,262,o),
(384,268,cs),
(288,580,ls),
(285,589,o),
(283,597,o),
(283,601,cs),
(283,607,o),
(288,610,o),
(294,613,cs),
(356,640,ls),
(363,643,o),
(365,646,o),
(365,650,cs),
(365,656,o),
(362,660,o),
(355,660,cs),
(20,660,ls),
(13,660,o),
(10,657,o),
(10,651,cs),
(10,646,o),
(12,643,o),
(20,638,cs),
(77,606,ls),
(85,601,o),
(89,598,o),
(93,585,cs),
(285,-5,ls),
(287,-12,o),
(292,-16,o),
(320,-16,cs)
);
}
);
width = 1081;
},
{
anchors = (
{
name = top;
pos = (506,710);
}
);
associatedMasterId = m01;
layerId = "F042700A-315C-4668-97E1-5BD292380836";
name = "Jan 13, 22, 21:17";
shapes = (
{
closed = 1;
nodes = (
(309,-5,l),
(512,543,l),
(471,485,l),
(516,485,l),
(475,543,l),
(678,-5,l),
(713,-5,l),
(906,632,l),
(876,595,l),
(966,644,l),
(966,660,l),
(745,660,l),
(745,644,l),
(854,595,l),
(838,632,l),
(694,129,l),
(726,174,l),
(681,174,l),
(717,129,l),
(524,665,l),
(487,665,l),
(296,122,l),
(333,174,l),
(288,174,l),
(324,122,l),
(177,632,l),
(150,592,l),
(269,644,l),
(269,660,l),
(15,660,l),
(15,644,l),
(124,592,l),
(83,632,l),
(274,-5,l)
);
}
);
width = 981;
},
{
anchors = (
{
name = top;
pos = (606,710);
}
);
associatedMasterId = m002;
layerId = "7DDFD848-427D-48D3-979B-84715EF1BB1C";
name = "Jan 13, 22, 21:27";
shapes = (
{
closed = 1;
nodes = (
(358,-5,l),
(575,477,l),
(518,410,l),
(576,410,l),
(523,477,l),
(729,-5,l),
(802,-5,l),
(1011,632,l),
(973,594,l),
(1071,644,l),
(1071,660,l),
(843,660,l),
(843,644,l),
(953,594,l),
(936,632,l),
(790,162,l),
(843,252,l),
(789,252,l),
(848,162,l),
(642,665,l),
(569,665,l),
(359,164,l),
(424,252,l),
(364,252,l),
(416,164,l),
(272,632,l),
(245,589,l),
(364,644,l),
(364,660,l),
(10,660,l),
(10,644,l),
(119,583,l),
(78,632,l),
(285,-5,l)
);
}
);
width = 1081;
}
);
unicode = 87;
},
{
color = 5;
glyphname = X;
kernLeft = kern_X3;
kernRight = kern_X3;
layers = (
{
layerId = m01;
shapes = (
{
closed = 1;
nodes = (
(250,0,ls),
(257,0,o),
(260,3,o),
(260,10,cs),
(260,13,o),
(260,16,o),
(251,20,cs),
(188,48,ls),
(185,49,o),
(182,52,o),
(182,56,cs),
(182,59,o),
(185,64,o),
(188,68,cs),
(334,260,ls),
(343,272,o),
(347,277,o),
(353,277,cs),
(359,277,o),
(365,269,o),
(373,258,cs),
(514,68,ls),
(517,64,o),
(518,61,o),
(518,58,cs),
(518,50,o),
(512,46,o),
(503,42,cs),
(460,21,ls),
(450,16,o),
(450,13,o),
(450,10,cs),
(450,3,o),
(453,0,o),
(460,0,cs),
(695,0,ls),
(702,0,o),
(705,3,o),
(705,10,cs),
(705,15,o),
(703,17,o),
(689,25,cs),
(651,46,ls),
(642,51,o),
(635,55,o),
(629,63,cs),
(430,325,ls),
(422,335,o),
(418,341,o),
(418,346,cs),
(418,351,o),
(424,359,o),
(431,368,cs),
(608,596,ls),
(612,601,o),
(617,607,o),
(627,613,cs),
(670,638,ls),
(680,644,o),
(680,648,o),
(680,652,cs),
(680,657,o),
(676,660,o),
(670,660,cs),
(480,660,ls),
(473,660,o),
(470,657,o),
(470,651,cs),
(470,648,o),
(470,644,o),
(480,639,cs),
(536,612,ls),
(542,609,o),
(543,607,o),
(543,604,cs),
(543,600,o),
(540,595,o),
(536,590,cs),
(394,409,ls),
(387,400,o),
(384,396,o),
(380,396,cs),
(376,396,o),
(373,400,o),
(368,407,cs),
(229,590,ls),
(225,596,o),
(223,599,o),
(223,603,cs),
(223,608,o),
(226,610,o),
(237,615,cs),
(289,639,ls),
(300,644,o),
(300,648,o),
(300,651,cs),
(300,657,o),
(297,660,o),
(290,660,cs),
(60,660,ls),
(55,660,o),
(50,658,o),
(50,651,cs),
(50,647,o),
(52,643,o),
(59,639,cs),
(95,619,ls),
(106,613,o),
(113,609,o),
(122,597,cs),
(308,345,ls),
(312,339,o),
(316,334,o),
(316,329,cs),
(316,324,o),
(312,318,o),
(308,313,cs),
(115,62,ls),
(111,57,o),
(108,53,o),
(100,49,cs),
(45,21,ls),
(35,16,o),
(35,13,o),
(35,10,cs),
(35,3,o),
(38,0,o),
(45,0,cs)
);
}
);
width = 740;
},
{
layerId = m002;
shapes = (
{
closed = 1;
nodes = (
(260,0,ls),
(267,0,o),
(270,3,o),
(270,10,cs),
(270,13,o),
(270,16,o),
(262,20,cs),
(202,51,ls),
(199,53,o),
(196,55,o),
(196,59,cs),
(196,62,o),
(197,66,o),
(202,72,cs),
(324,219,ls),
(334,231,o),
(338,236,o),
(344,236,cs),
(350,236,o),
(356,228,o),
(363,217,cs),
(465,68,ls),
(467,65,o),
(468,62,o),
(468,60,cs),
(468,54,o),
(464,51,o),
(454,46,cs),
(409,21,ls),
(399,16,o),
(399,13,o),
(399,10,cs),
(399,3,o),
(402,0,o),
(409,0,cs),
(776,0,ls),
(783,0,o),
(786,2,o),
(786,9,cs),
(786,15,o),
(783,18,o),
(774,23,cs),
(732,47,ls),
(718,55,o),
(712,60,o),
(706,68,cs),
(511,346,ls),
(501,360,o),
(497,366,o),
(497,373,cs),
(497,378,o),
(501,383,o),
(512,396,cs),
(685,597,ls),
(689,602,o),
(697,610,o),
(707,615,cs),
(753,638,ls),
(763,643,o),
(765,647,o),
(765,651,cs),
(765,656,o),
(762,660,o),
(755,660,cs),
(524,660,ls),
(517,660,o),
(514,657,o),
(514,651,cs),
(514,648,o),
(514,644,o),
(524,639,cs),
(584,607,ls),
(590,604,o),
(591,602,o),
(591,599,cs),
(591,595,o),
(589,591,o),
(584,585,cs),
(468,441,ls),
(462,434,o),
(460,432,o),
(456,432,cs),
(451,432,o),
(449,434,o),
(444,441,cs),
(344,584,ls),
(338,593,o),
(337,595,o),
(337,600,cs),
(337,604,o),
(338,605,o),
(349,611,cs),
(401,638,ls),
(412,644,o),
(412,648,o),
(412,651,cs),
(412,657,o),
(409,660,o),
(402,660,cs),
(40,660,ls),
(35,660,o),
(30,658,o),
(30,651,cs),
(30,647,o),
(32,643,o),
(39,639,cs),
(75,618,ls),
(86,612,o),
(99,604,o),
(104,597,cs),
(296,316,ls),
(300,310,o),
(302,307,o),
(302,300,cs),
(302,294,o),
(297,288,o),
(292,282,cs),
(107,62,ls),
(103,57,o),
(97,54,o),
(89,50,cs),
(30,21,ls),
(20,16,o),
(20,13,o),
(20,10,cs),
(20,3,o),
(23,0,o),
(30,0,cs)
);
}
);
width = 806;
},
{
associatedMasterId = m01;
layerId = "C96A7971-1D2A-4E9F-84C2-2F4C4616BFED";
name = "Jan 15, 22, 21:09";
shapes = (
{
closed = 1;
nodes = (
(705,0,l),
(705,16,l),
(596,76,l),
(664,16,l),
(220,602,l),
(220,607,l),
(300,644,l),
(300,660,l),
(50,660,l),
(50,644,l),
(159,584,l),
(96,632,l),
(523,56,l),
(523,52,l),
(450,16,l),
(450,0,l)
);
},
{
closed = 1;
nodes = (
(260,0,l),
(260,16,l),
(179,52,l),
(179,56,l),
(374,313,l),
(338,352,l),
(85,24,l),
(136,68,l),
(35,16,l),
(35,0,l)
);
},
{
closed = 1;
nodes = (
(470,660,l),
(470,644,l),
(546,607,l),
(546,603,l),
(366,373,l),
(399,327,l),
(636,632,l),
(599,597,l),
(680,644,l),
(680,660,l)
);
}
);
width = 740;
},
{
associatedMasterId = m002;
layerId = "393C0A27-AC50-4E8C-B28A-17702308B622";
name = "Jan 16, 22, 19:47";
shapes = (
{
closed = 1;
nodes = (
(786,0,l),
(786,16,l),
(673,81,l),
(739,21,l),
(334,598,l),
(334,603,l),
(412,644,l),
(412,660,l),
(30,660,l),
(30,644,l),
(143,579,l),
(80,632,l),
(471,59,l),
(471,55,l),
(399,16,l),
(399,0,l)
);
},
{
closed = 1;
nodes = (
(270,0,l),
(270,16,l),
(190,57,l),
(193,61,l),
(402,313,l),
(351,352,l),
(87,38,l),
(129,70,l),
(20,16,l),
(20,0,l)
);
},
{
closed = 1;
nodes = (
(514,660,l),
(514,644,l),
(594,602,l),
(594,598,l),
(412,372,l),
(453,327,l),
(713,630,l),
(638,581,l),
(765,644,l),
(765,660,l)
);
}
);
visible = 1;
width = 806;
}
);
unicode = 88;
},
{
color = 5;
glyphname = Y;
kernLeft = kern_Y3;
kernRight = kern_Y3;
layers = (
{
anchors = (
{
name = bottom;
pos = (363,0);
},
{
name = top;
pos = (374,710);
}
);
layerId = m01;
shapes = (
{
closed = 1;
nodes = (
(488,0,ls),
(495,0,o),
(498,3,o),
(498,9,cs),
(498,12,o),
(498,16,o),
(489,20,cs),
(421,50,ls),
(413,54,o),
(408,60,o),
(408,76,cs),
(408,296,ls),
(408,307,o),
(412,314,o),
(418,323,cs),
(612,601,ls),
(617,608,o),
(623,613,o),
(631,617,cs),
(673,639,ls),
(683,644,o),
(683,647,o),
(683,651,cs),
(683,656,o),
(680,660,o),
(673,660,cs),
(481,660,ls),
(474,660,o),
(471,657,o),
(471,651,cs),
(471,648,o),
(471,644,o),
(481,639,cs),
(530,615,ls),
(535,612,o),
(540,609,o),
(540,603,cs),
(540,598,o),
(538,594,o),
(535,590,cs),
(393,377,ls),
(390,372,o),
(387,368,o),
(383,368,cs),
(380,368,o),
(375,373,o),
(371,378,cs),
(217,587,ls),
(211,595,o),
(209,600,o),
(209,605,cs),
(209,610,o),
(214,614,o),
(227,620,cs),
(267,639,ls),
(277,644,o),
(277,648,o),
(277,651,cs),
(277,657,o),
(274,660,o),
(267,660,cs),
(45,660,ls),
(38,660,o),
(35,657,o),
(35,651,cs),
(35,648,o),
(35,644,o),
(46,638,cs),
(83,618,ls),
(94,612,o),
(99,607,o),
(109,593,cs),
(310,319,ls),
(315,313,o),
(318,306,o),
(318,299,cs),
(318,76,ls),
(318,63,o),
(314,54,o),
(302,49,cs),
(237,20,ls),
(228,16,o),
(228,13,o),
(228,9,cs),
(228,3,o),
(231,0,o),
(238,0,cs)
);
}
);
width = 718;
},
{
anchors = (
{
name = bottom;
pos = (393,0);
},
{
name = top;
pos = (442,710);
}
);
layerId = m002;
shapes = (
{
closed = 1;
nodes = (
(567,0,ls),
(574,0,o),
(577,3,o),
(577,9,cs),
(577,12,o),
(577,16,o),
(568,20,cs),
(501,52,ls),
(493,56,o),
(488,60,o),
(488,76,cs),
(488,296,ls),
(488,307,o),
(492,314,o),
(498,323,cs),
(692,601,ls),
(697,608,o),
(703,613,o),
(711,617,cs),
(758,639,ls),
(768,644,o),
(768,647,o),
(768,651,cs),
(768,656,o),
(765,660,o),
(758,660,cs),
(540,660,ls),
(533,660,o),
(530,657,o),
(530,651,cs),
(530,648,o),
(531,644,o),
(540,639,cs),
(596,610,ls),
(601,607,o),
(606,604,o),
(606,599,cs),
(606,595,o),
(605,592,o),
(602,587,cs),
(466,385,ls),
(462,379,o),
(460,377,o),
(457,377,cs),
(454,377,o),
(450,380,o),
(446,386,cs),
(298,585,ls),
(292,593,o),
(291,598,o),
(291,601,cs),
(291,606,o),
(294,609,o),
(304,614,cs),
(353,639,ls),
(363,644,o),
(363,648,o),
(363,651,cs),
(363,657,o),
(360,660,o),
(353,660,cs),
(20,660,ls),
(13,660,o),
(10,657,o),
(10,651,cs),
(10,648,o),
(10,644,o),
(20,638,cs),
(68,610,ls),
(77,605,o),
(84,599,o),
(90,591,cs),
(290,319,ls),
(294,313,o),
(298,306,o),
(298,299,cs),
(298,76,ls),
(298,63,o),
(295,57,o),
(283,51,cs),
(218,20,ls),
(209,16,o),
(209,13,o),
(209,9,cs),
(209,3,o),
(212,0,o),
(218,0,cs)
);
}
);
width = 778;
},
{
anchors = (
{
name = bottom;
pos = (363,0);
},
{
name = top;
pos = (374,710);
}
);
associatedMasterId = m01;
layerId = "53F558CD-C4A5-4C37-B59B-91C58C18E70F";
name = "Jan 16, 22, 22:30";
shapes = (
{
closed = 1;
nodes = (
(498,0,l),
(498,16,l),
(408,56,l),
(408,332,l),
(378,266,l),
(634,632,l),
(598,600,l),
(683,644,l),
(683,660,l),
(471,660,l),
(471,644,l),
(544,608,l),
(544,604,l),
(372,346,l),
(395,346,l),
(204,605,l),
(204,609,l),
(277,644,l),
(277,660,l),
(35,660,l),
(35,644,l),
(130,592,l),
(80,632,l),
(349,266,l),
(318,332,l),
(318,56,l),
(228,16,l),
(228,0,l)
);
}
);
width = 718;
},
{
anchors = (
{
name = bottom;
pos = (393,0);
},
{
name = top;
pos = (442,710);
}
);
associatedMasterId = m002;
layerId = "2C0F758C-B3EB-4D05-B99F-E581F23C94C1";
name = "Jan 17, 22, 13:42";
shapes = (
{
closed = 1;
nodes = (
(577,0,l),
(577,16,l),
(488,58,l),
(488,354,l),
(457,264,l),
(714,632,l),
(644,584,l),
(768,644,l),
(768,660,l),
(530,660,l),
(530,644,l),
(610,603,l),
(610,599,l),
(442,348,l),
(474,348,l),
(286,601,l),
(286,605,l),
(363,644,l),
(363,660,l),
(10,660,l),
(10,644,l),
(110,586,l),
(60,632,l),
(329,266,l),
(298,354,l),
(298,58,l),
(209,16,l),
(209,0,l)
);
}
);
visible = 1;
width = 778;
}
);
unicode = 89;
},
{
color = 5;
glyphname = Z;
kernLeft = kern_Z3;
kernRight = kern_Z3;
layers = (
{
anchors = (
{
name = bottom;
pos = (333,0);
},
{
name = top;
pos = (333,710);
}
);
layerId = m01;
shapes = (
{
closed = 1;
nodes = (
(536,0,ls),
(551,0,o),
(556,5,o),
(556,20,cs),
(556,181,ls),
(556,188,o),
(553,192,o),
(548,192,cs),
(544,192,o),
(539,190,o),
(531,172,cs),
(491,84,ls),
(482,64,o),
(475,55,o),
(458,55,cs),
(230,55,ls),
(218,55,o),
(214,60,o),
(214,66,cs),
(214,74,o),
(218,79,o),
(228,97,cs),
(527,604,ls),
(540,626,o),
(545,636,o),
(545,643,cs),
(545,656,o),
(539,660,o),
(525,660,cs),
(126,660,ls),
(110,660,o),
(102,653,o),
(102,640,cs),
(102,498,ls),
(102,484,o),
(104,478,o),
(111,478,cs),
(117,478,o),
(121,484,o),
(127,496,cs),
(165,574,ls),
(176,597,o),
(187,605,o),
(210,605,cs),
(417,605,ls),
(423,605,o),
(425,603,o),
(425,599,cs),
(425,595,o),
(424,593,o),
(417,581,cs),
(100,42,ls),
(92,28,o),
(90,20,o),
(90,15,cs),
(90,3,o),
(97,0,o),
(110,0,cs)
);
}
);
width = 646;
},
{
anchors = (
{
name = bottom;
pos = (369,0);
},
{
name = top;
pos = (369,710);
}
);
layerId = m002;
shapes = (
{
closed = 1;
nodes = (
(636,0,ls),
(651,0,o),
(656,5,o),
(656,20,cs),
(656,218,ls),
(656,225,o),
(653,229,o),
(648,229,cs),
(644,229,o),
(639,226,o),
(630,209,cs),
(566,84,ls),
(556,65,o),
(550,55,o),
(533,55,cs),
(330,55,ls),
(318,55,o),
(314,60,o),
(314,66,cs),
(314,74,o),
(317,79,o),
(328,97,cs),
(627,593,ls),
(643,619,o),
(645,630,o),
(645,640,cs),
(645,653,o),
(637,660,o),
(620,660,cs),
(116,660,ls),
(100,660,o),
(92,653,o),
(92,640,cs),
(92,461,ls),
(92,447,o),
(94,441,o),
(101,441,cs),
(107,441,o),
(111,447,o),
(117,459,cs),
(175,574,ls),
(186,595,o),
(197,605,o),
(220,605,cs),
(407,605,ls),
(413,605,o),
(415,603,o),
(415,599,cs),
(415,595,o),
(414,593,o),
(407,581,cs),
(100,70,ls),
(80,37,o),
(80,28,o),
(80,23,cs),
(80,6,o),
(89,0,o),
(105,0,cs)
);
}
);
width = 736;
},
{
anchors = (
{
name = bottom;
pos = (333,0);
},
{
name = top;
pos = (333,710);
}
);
associatedMasterId = m01;
layerId = "AAE2B430-AB9A-4020-8E9F-7E6DAA100A4C";
name = "Jan 17, 22, 13:56";
shapes = (
{
closed = 1;
nodes = (
(556,0,l),
(556,192,l),
(540,192,l),
(478,55,l),
(182,55,l),
(182,19,l),
(545,635,l),
(545,660,l),
(102,660,l),
(102,478,l),
(118,478,l),
(180,605,l),
(452,605,l),
(452,641,l),
(90,25,l),
(90,0,l)
);
}
);
width = 646;
},
{
anchors = (
{
name = bottom;
pos = (369,0);
},
{
name = top;
pos = (369,710);
}
);
associatedMasterId = m002;
layerId = "E2382E2D-0D3A-4E57-9B64-DB661FC5ACE2";
name = "Jan 17, 22, 18:44";
shapes = (
{
closed = 1;
nodes = (
(656,0,l),
(656,229,l),
(640,229,l),
(551,55,l),
(275,55,l),
(275,9,l),
(645,623,l),
(645,660,l),
(92,660,l),
(92,441,l),
(108,441,l),
(190,605,l),
(442,605,l),
(442,639,l),
(80,37,l),
(80,0,l)
);
}
);
visible = 1;
width = 736;
}
);
unicode = 90;
},
{
color = 5;
glyphname = a;
kernLeft = kernLC_a2;
kernRight = kernLC_a1;
layers = (
{
anchors = (
{
name = bottom;
pos = (237,0);
},
{
name = right;
pos = (402,0);
},
{
name = top;
pos = (225,510);
}
);
layerId = m01;
shapes = (
{
closed = 1;
nodes = (
(226,-10,o),
(268,23,o),
(289,39,cs),
(295,44,o),
(299,45,o),
(302,45,cs),
(306,45,o),
(309,44,o),
(312,36,cs),
(319,20,o),
(338,-10,o),
(382,-10,cs),
(440,-10,o),
(478,29,o),
(478,43,cs),
(478,47,o),
(476,50,o),
(471,50,cs),
(418,50,ls),
(398,50,o),
(381,59,o),
(381,87,cs),
(381,341,ls),
(381,435,o),
(308,460,o),
(237,460,cs),
(166,460,o),
(59,409,o),
(59,333,cs),
(59,307,o),
(77,288,o),
(103,288,cs),
(133,288,o),
(148,309,o),
(148,324,cs),
(148,334,o),
(142,342,o),
(142,362,cs),
(142,387,o),
(170,414,o),
(211,414,cs),
(272,414,o),
(301,382,o),
(301,332,cs),
(301,267,ls),
(301,261,o),
(301,257,o),
(292,255,cs),
(104,221,o),
(47,175,o),
(47,94,cs),
(47,29,o),
(93,-10,o),
(156,-10,cs)
);
},
{
closed = 1;
nodes = (
(152,52,o),
(125,73,o),
(125,114,cs),
(125,177,o),
(172,194,o),
(281,219,cs),
(286,220,o),
(292,221,o),
(294,221,cs),
(299,221,o),
(301,219,o),
(301,213,cs),
(301,98,ls),
(301,71,o),
(270,52,o),
(200,52,cs)
);
}
);
width = 489;
},
{
anchors = (
{
name = bottom;
pos = (248,0);
},
{
name = right;
pos = (459,0);
},
{
name = top;
pos = (258,510);
}
);
layerId = m002;
shapes = (
{
closed = 1;
nodes = (
(206,-10,o),
(229,10,o),
(265,44,cs),
(271,50,o),
(275,56,o),
(282,56,cs),
(287,56,o),
(292,52,o),
(296,45,cs),
(312,16,o),
(337,-10,o),
(412,-10,cs),
(500,-10,o),
(531,27,o),
(531,41,cs),
(531,45,o),
(529,48,o),
(524,48,cs),
(488,48,ls),
(472,48,o),
(462,60,o),
(462,87,cs),
(462,330,ls),
(462,422,o),
(381,470,o),
(256,470,cs),
(162,470,o),
(43,404,o),
(43,332,cs),
(43,293,o),
(68,278,o),
(102,278,cs),
(142,278,o),
(162,298,o),
(162,325,cs),
(162,345,o),
(154,357,o),
(154,380,cs),
(154,400,o),
(170,418,o),
(204,418,cs),
(262,418,o),
(282,381,o),
(282,332,cs),
(282,289,ls),
(282,283,o),
(282,279,o),
(273,277,cs),
(85,232,o),
(25,210,o),
(25,114,cs),
(25,49,o),
(65,-8,o),
(146,-9,cs)
);
},
{
closed = 1;
nodes = (
(220,84,o),
(192,103,o),
(192,144,cs),
(192,208,o),
(236,219,o),
(266,229,cs),
(269,230,o),
(273,231,o),
(277,231,cs),
(281,231,o),
(282,228,o),
(282,223,cs),
(282,105,ls),
(282,87,o),
(272,84,o),
(251,84,cs)
);
}
);
width = 531;
},
{
anchors = (
{
name = bottom;
pos = (237,0);
},
{
name = right;
pos = (402,0);
},
{
name = top;
pos = (225,510);
}
);
associatedMasterId = m01;
layerId = "E8331F28-C29C-4CAC-B9CA-9E333DCFB48C";
name = "Jan 17, 22, 18:50";
shapes = (
{
closed = 1;
nodes = (
(212,-10,o),
(266,16,o),
(301,50,c),
(319,50,l),
(319,83,l),
(269,60,o),
(237,52,o),
(200,52,cs),
(152,52,o),
(125,73,o),
(125,114,cs),
(125,162,o),
(144,197,o),
(333,229,c),
(333,265,l),
(206,235,ls),
(91,208,o),
(47,159,o),
(47,94,c),
(47,29,o),
(93,-10,o),
(156,-10,cs)
);
},
{
closed = 1;
nodes = (
(430,-10,o),
(462,16,o),
(478,45,c),
(478,48,l),
(475,50,l),
(437,50,ls),
(407,50,o),
(390,57,o),
(381,67,c),
(381,351,ls),
(381,435,o),
(308,460,o),
(237,460,cs),
(191,460,o),
(150,442,o),
(113,418,cs),
(77,395,o),
(60,362,o),
(60,333,cs),
(60,309,o),
(66,305,o),
(86,305,cs),
(138,305,l),
(143,310,l),
(143,338,ls),
(143,384,o),
(160,413,o),
(211,413,cs),
(257,413,o),
(301,376,o),
(301,330,cs),
(301,71,l),
(303,71,l),
(309,23,o),
(336,-10,o),
(385,-10,cs)
);
},
{
closed = 1;
nodes = (
(128,288,o),
(148,308,o),
(148,333,cs),
(148,357,o),
(128,377,o),
(104,377,cs),
(79,377,o),
(59,357,o),
(59,333,cs),
(59,308,o),
(79,288,o),
(104,288,cs)
);
}
);
visible = 1;
width = 489;
},
{
anchors = (
{
name = bottom;
pos = (248,0);
},
{
name = right;
pos = (459,0);
},
{
name = top;
pos = (258,510);
}
);
associatedMasterId = m002;
layerId = "49E1A50A-76A1-4244-860A-0A432FCEA692";
name = "Jan 17, 22, 18:52";
shapes = (
{
closed = 1;
nodes = (
(207,-9,o),
(249,23,o),
(282,64,c),
(302,64,l),
(302,97,l),
(286,90,o),
(271,84,o),
(253,84,cs),
(216,84,o),
(192,105,o),
(192,147,cs),
(192,204,o),
(227,224,o),
(314,240,c),
(314,287,l),
(188,254,ls),
(54,219,o),
(26,190,o),
(25,113,cs),
(23,34,o),
(82,-9,o),
(148,-9,cs)
);
},
{
closed = 1;
nodes = (
(479,-10,o),
(516,16,o),
(531,38,c),
(531,59,l),
(527,63,l),
(505,63,ls),
(486,63,o),
(472,69,o),
(462,78,c),
(462,330,ls),
(462,424,o),
(374,470,o),
(258,470,cs),
(207,470,o),
(169,460,o),
(115,427,cs),
(73,402,o),
(44,375,o),
(44,346,cs),
(44,323,o),
(51,313,o),
(71,313,cs),
(147,313,l),
(150,317,l),
(150,375,ls),
(150,404.913,o),
(167,418,o),
(205,418,cs),
(254,418,o),
(282,388,o),
(282,333,cs),
(282,69,l),
(284,69,l),
(306,17,o),
(347,-10,o),
(417,-10,cs)
);
}
);
width = 531;
}
);
unicode = 97;
},
{
color = 5;
glyphname = ae;
kernLeft = kernLC_a2;
kernRight = kernLC_e1;
layers = (
{
anchors = (
{
name = top;
pos = (377,510);
}
);
layerId = m01;
shapes = (
{
closed = 1;
nodes = (
(243,-10,o),
(289,29,o),
(324,58,cs),
(330,63,o),
(333,67,o),
(337,67,cs),
(343,67,o),
(345,63,o),
(348,59,cs),
(384,15,o),
(439,-10,o),
(515,-10,cs),
(616,-10,o),
(679,67,o),
(679,83,cs),
(679,92,o),
(676,95,o),
(669,95,cs),
(654,95,o),
(617,65,o),
(561,65,cs),
(431,65,o),
(384,153,o),
(384,223,cs),
(384,234,o),
(391,242,o),
(403,242,cs),
(663,242,ls),
(676,242,o),
(685,252,o),
(685,267,cs),
(685,375,o),
(625,460,o),
(515,460,cs),
(468,460,o),
(421,441,o),
(383,404,cs),
(380,402,o),
(378,401,o),
(375,401,cs),
(372,401,o),
(371,402,o),
(368,407,cs),
(344,446,o),
(290,460,o),
(237,460,cs),
(166,460,o),
(60,408,o),
(60,333,cs),
(60,309,o),
(77,289,o),
(102,289,cs),
(127,289,o),
(143,303,o),
(143,328,cs),
(143,385,o),
(158,413,o),
(211,413,cs),
(277,413,o),
(302,361,o),
(302,328,cs),
(302,271,ls),
(302,260,o),
(298,256,o),
(289,254,cs),
(83,220,o),
(47,157,o),
(47,94,cs),
(47,29,o),
(93,-10,o),
(156,-10,cs)
);
},
{
closed = 1;
nodes = (
(152,52,o),
(125,73,o),
(125,114,cs),
(125,187,o),
(209,204,o),
(288,220,cs),
(297,222,o),
(302,220,o),
(302,210,cs),
(302,170,o),
(307,132,o),
(322,102,cs),
(324,98,o),
(325,94,o),
(325,91,cs),
(325,88,o),
(320,85,o),
(314,82,cs),
(280,65,o),
(238,52,o),
(200,52,cs)
);
},
{
closed = 1;
nodes = (
(393,288,o),
(388,294,o),
(388,304,cs),
(388,344,o),
(429,416,o),
(501,416,cs),
(568,416,o),
(606,350,o),
(606,304,cs),
(606,294,o),
(599,288,o),
(589,288,cs),
(404,288,ls)
);
}
);
width = 737;
},
{
anchors = (
{
name = top;
pos = (386,510);
}
);
layerId = m002;
shapes = (
{
closed = 1;
nodes = (
(231,-10,o),
(274,36,o),
(303,65,cs),
(309,71,o),
(313,75,o),
(317,75,cs),
(323,75,o),
(325,72,o),
(328,68,cs),
(368,19,o),
(429,-10,o),
(515,-10,cs),
(656,-10,o),
(725,105,o),
(725,128,cs),
(725,137,o),
(722,140,o),
(715,140,cs),
(700,140,o),
(664,119,o),
(605,119,cs),
(495,119,o),
(454,173,o),
(454,243,cs),
(454,254,o),
(461,262,o),
(473,262,cs),
(701,262,ls),
(714,262,o),
(723,272,o),
(723,287,cs),
(723,395,o),
(658,470,o),
(548,470,cs),
(501,470,o),
(462,461,o),
(415,438,cs),
(411,436,o),
(409,435,o),
(407,435,cs),
(405,435,o),
(403,436,o),
(398,439,cs),
(361,461,o),
(310,470,o),
(257,470,cs),
(160,470,o),
(44,404,o),
(44,336,cs),
(44,308,o),
(53,298,o),
(102,298,cs),
(127,298,o),
(150,303,o),
(150,328,cs),
(150,385,o),
(143,418,o),
(206,418,cs),
(272,418,o),
(281,361,o),
(282,328,cs),
(283,292,ls),
(283,281,o),
(279,277,o),
(270,275,cs),
(67,237,o),
(25,188,o),
(25,115,cs),
(25,50,o),
(63,-10,o),
(156,-10,cs)
);
},
{
closed = 1;
nodes = (
(209,84,o),
(192,105,o),
(192,146,cs),
(192,164,o),
(189,213,o),
(268,229,cs),
(277,231,o),
(282,229,o),
(282,219,cs),
(282,179,o),
(286,142,o),
(301,112,cs),
(303,108,o),
(304,104,o),
(304,101,cs),
(304,98,o),
(299,94,o),
(293,92,cs),
(284,89,o),
(275,84,o),
(257,84,cs)
);
},
{
closed = 1;
nodes = (
(466,306,o),
(461,312,o),
(461,322,cs),
(461,362,o),
(479,425,o),
(525,425,cs),
(570,425,o),
(587,368,o),
(587,322,cs),
(587,312,o),
(580,306,o),
(570,306,cs),
(477,306,ls)
);
}
);
width = 755;
},
{
anchors = (
{
name = top;
pos = (377,510);
}
);
associatedMasterId = m01;
layerId = "20E81CFC-AB3E-4821-A7D6-D7B082583603";
name = "Dec 21, 21, 21:41";
shapes = (
{
closed = 1;
nodes = (
(593,-10,o),
(656,37,o),
(687,95,c),
(687,105,l),
(684,105,l),
(634,78,o),
(592,65,o),
(555,65,cs),
(424,65,o),
(382,155,o),
(382,251,cs),
(382,355,o),
(427,416,o),
(500,416,cs),
(559,416,o),
(596,377,o),
(611,284,c),
(629,288,l),
(372,288,l),
(372,242,l),
(681,242,l),
(686,247,l),
(686,384,o),
(621,460,o),
(516,460,cs),
(453,460,o),
(395,427,o),
(355,373,c),
(380,373,l),
(369,439,o),
(302,460,o),
(238,460,cs),
(192,460,o),
(151,442,o),
(114,418,cs),
(78,395,o),
(61,362,o),
(61,333,cs),
(61,309,o),
(67,305,o),
(87,305,cs),
(139,305,l),
(144,310,l),
(144,338,ls),
(144,384,o),
(161,413,o),
(212,413,cs),
(258,413,o),
(302,376,o),
(302,330,cs),
(302,207,ls),
(302,74,o),
(385,-10,o),
(512,-10,cs)
);
},
{
closed = 1;
nodes = (
(234,-10,o),
(298,26,o),
(336,71,c),
(344,71,l),
(344,97,l),
(294,70,o),
(253,52,o),
(201,52,cs),
(153,52,o),
(126,73,o),
(126,114,cs),
(126,162,o),
(145,197,o),
(334,229,c),
(334,265,l),
(207,235,ls),
(92,208,o),
(48,159,o),
(48,94,c),
(48,29,o),
(94,-10,o),
(157,-10,cs)
);
}
);
width = 737;
},
{
anchors = (
{
name = top;
pos = (386,510);
}
);
associatedMasterId = m002;
layerId = "DA826375-6CC1-4E10-ACC0-1CC06FD879B2";
name = "Dec 21, 21, 21:41";
shapes = (
{
closed = 1;
nodes = (
(614,-10,o),
(691,46,o),
(725,124,c),
(725,145,l),
(722,145,l),
(680,124,o),
(637,119,o),
(598,119,cs),
(500,119,o),
(454,171,o),
(454,247,cs),
(454,359,o),
(479,425,o),
(523,425,cs),
(562,425,o),
(585,396,o),
(591,294,c),
(647,306,l),
(390,306,l),
(390,262,l),
(721,262,l),
(724,267,l),
(722,395,o),
(661,470,o),
(551,470,cs),
(480,470,o),
(416,446,o),
(369,405,c),
(437,405,l),
(403,449,o),
(337,470,o),
(258,470,cs),
(207,470,o),
(169,460,o),
(115,427,cs),
(73,402,o),
(44,375,o),
(44,346,cs),
(44,323,o),
(51,313,o),
(71,313,cs),
(147,313,l),
(150,317,l),
(150,375,ls),
(150,405,o),
(167,418,o),
(205,418,cs),
(254,418,o),
(282,388,o),
(282,333,cs),
(282,209,ls),
(282,77,o),
(370,-10,o),
(513,-10,cs)
);
},
{
closed = 1;
nodes = (
(223,-9,o),
(274,28,o),
(311,77,c),
(330,77,l),
(330,112,l),
(307,97,o),
(281,84,o),
(253,84,cs),
(216,84,o),
(192,105,o),
(192,147,cs),
(192,204,o),
(227,224,o),
(314,240,c),
(314,287,l),
(188,254,ls),
(54,219,o),
(25,190,o),
(25,113,cs),
(25,34,o),
(82,-9,o),
(148,-9,cs)
);
}
);
visible = 1;
width = 755;
}
);
unicode = 230;
},
{
color = 5;
glyphname = b;
kernLeft = kern_b2;
kernRight = kernLC_o1;
layers = (
{
layerId = m01;
shapes = (
{
closed = 1;
nodes = (
(127,0,o),
(158,13,o),
(169,13,cs),
(180,13,o),
(222,-10,o),
(277,-10,cs),
(409,-10,o),
(511,83,o),
(511,247,cs),
(511,379,o),
(438,460,o),
(337,460,cs),
(252,460,o),
(206,418,o),
(191,418,cs),
(184,418,o),
(183,422,o),
(183,432,cs),
(183,738,ls),
(183,745,o),
(179,747,o),
(175,747,cs),
(171,747,o),
(165,745,o),
(155,741,cs),
(55,700,ls),
(48,697,o),
(46,695,o),
(46,691,cs),
(46,686,o),
(50,682,o),
(57,676,cs),
(95,643,ls),
(103,636,o),
(103,628,o),
(103,616,cs),
(103,18,ls),
(103,6,o),
(106,0,o),
(114,0,cs)
);
},
{
closed = 1;
nodes = (
(257,38,o),
(218,52,o),
(196,69,cs),
(183,79,o),
(183,87,o),
(183,99,cs),
(183,341,ls),
(183,353,o),
(183,361,o),
(193,367,cs),
(220,384,o),
(258,391,o),
(282,391,cs),
(364,391,o),
(431,340,o),
(431,224,cs),
(431,90,o),
(372,38,o),
(303,38,cs)
);
}
);
width = 560;
},
{
layerId = m002;
shapes = (
{
closed = 1;
nodes = (
(107,0,o),
(170,28,o),
(189,28,cs),
(203,28,o),
(231,-10,o),
(335,-10,cs),
(453,-10,o),
(571,83,o),
(571,247,cs),
(571,379,o),
(495,470,o),
(404,470,cs),
(320,470,o),
(280,416,o),
(267,416,cs),
(262,416,o),
(261,419,o),
(261,424,cs),
(261,739,ls),
(261,746,o),
(257,750,o),
(252,750,cs),
(246,750,o),
(234,747,o),
(216,743,cs),
(26,698,ls),
(21,697,o),
(15,693,o),
(15,687,cs),
(15,681,o),
(18,677,o),
(26,672,cs),
(72,642,ls),
(81,636,o),
(81,632,o),
(81,620,cs),
(81,14,ls),
(81,7,o),
(82,0,o),
(89,0,cs)
);
},
{
closed = 1;
nodes = (
(290,45,o),
(276,52,o),
(270,59,cs),
(261,71,o),
(261,78,o),
(261,90,cs),
(261,345,ls),
(261,354,o),
(261,362,o),
(270,369,cs),
(277,374,o),
(288,379,o),
(302,379,cs),
(354,379,o),
(391,317,o),
(391,224,cs),
(391,140,o),
(375,45,o),
(308,45,cs)
);
}
);
width = 596;
},
{
associatedMasterId = m01;
layerId = "B1092EFD-99FD-451A-A7A7-6B76B505DF90";
name = "Jan 17, 22, 19:24";
shapes = (
{
closed = 1;
nodes = (
(109,-10,l),
(183,65,l),
(183,750,l),
(177,750,l),
(43,695,l),
(43,688,l),
(103,636,l),
(103,-10,l)
);
},
{
closed = 1;
nodes = (
(409,-10,o),
(511,83,o),
(511,247,cs),
(511,379,o),
(438,460,o),
(337,460,cs),
(283,460,o),
(238,441,o),
(187,398,c),
(173,398,l),
(173,354,l),
(207,379,o),
(246,391,o),
(282,391,cs),
(364,391,o),
(431,340,o),
(431,224,cs),
(431,90,o),
(372,38,o),
(303,38,cs),
(252,38,o),
(214,51,o),
(173,88,c),
(123,20,l),
(166,3,o),
(217,-10,o),
(277,-10,cs)
);
}
);
visible = 1;
width = 560;
},
{
associatedMasterId = m002;
layerId = "08F0084B-19EC-422B-9E8C-445229F6F527";
name = "Jan 17, 22, 20:34";
shapes = (
{
closed = 1;
nodes = (
(97,0,l),
(261,58,l),
(261,750,l),
(245,750,l),
(15,695,l),
(15,679,l),
(81,636,l),
(81,0,l)
);
},
{
closed = 1;
nodes = (
(459,-10,o),
(571,90,o),
(571,247,cs),
(571,385,o),
(489,470,o),
(407,470,cs),
(356,470,o),
(314,453,o),
(267,412,c),
(249,412,l),
(249,359,l),
(274,372,o),
(284,379,o),
(307,379,cs),
(346,379,o),
(391,328,o),
(391,220,cs),
(391,74,o),
(344,45,o),
(306,45,cs),
(283,45,o),
(263,59,o),
(259,77,c),
(189,37,l),
(233,-1,o),
(279,-10,o),
(335,-10,cs)
);
}
);
width = 596;
}
);
unicode = 98;
},
{
color = 5;
glyphname = c;
kernLeft = kernLC_o2;
kernRight = kernLC_c1;
layers = (
{
anchors = (
{
name = bottom;
pos = (260,0);
},
{
name = top;
pos = (264,510);
}
);
layerId = m01;
shapes = (
{
closed = 1;
nodes = (
(376,-10,o),
(434,79,o),
(434,96,cs),
(434,100,o),
(432,102,o),
(428,102,cs),
(416,102,o),
(369,65,o),
(302,65,cs),
(171,65,o),
(129,155,o),
(129,251,cs),
(129,355,o),
(178,416,o),
(247,416,cs),
(306,416,o),
(311,389,o),
(317,369,cs),
(325,344,o),
(337,317,o),
(377,317,cs),
(411,317,o),
(432,345,o),
(432,375,cs),
(432,422,o),
(363,460,o),
(280,460,cs),
(150,460,o),
(50,354,o),
(50,205,cs),
(50,75,o),
(130,-10,o),
(259,-10,cs)
);
}
);
width = 479;
},
{
anchors = (
{
name = bottom;
pos = (273,0);
},
{
name = top;
pos = (274,510);
}
);
layerId = m002;
shapes = (
{
closed = 1;
nodes = (
(390,-10,o),
(458,108,o),
(458,129,cs),
(458,136,o),
(454,140,o),
(448,140,cs),
(436,140,o),
(406,119,o),
(339,119,cs),
(258,119,o),
(203,155,o),
(203,251,cs),
(203,355,o),
(224,426,o),
(277,426,cs),
(308,426,o),
(314,404,o),
(318,378,cs),
(324,337,o),
(349,307,o),
(388,307,cs),
(431,307,o),
(458,337,o),
(458,378,cs),
(458,427,o),
(396,470,o),
(280,470,cs),
(130,470,o),
(30,358,o),
(30,205,cs),
(30,75,o),
(130,-10,o),
(259,-10,cs)
);
}
);
width = 488;
},
{
anchors = (
{
name = bottom;
pos = (260,0);
},
{
name = top;
pos = (264,510);
}
);
associatedMasterId = m01;
layerId = "3C317697-B611-471C-9056-CA6040938381";
name = "Jan 27, 22, 17:37";
shapes = (
{
closed = 1;
nodes = (
(340,-10,o),
(403,37,o),
(434,95,c),
(434,105,l),
(431,105,l),
(381,78,o),
(339,65,o),
(302,65,cs),
(171,65,o),
(129,155,o),
(129,251,cs),
(129,355,o),
(174,416,o),
(247,416,cs),
(291,416,o),
(320,398,o),
(340,371,cs),
(374,325,l),
(381,325,l),
(419,357,ls),
(429,365,o),
(432,371,o),
(432,381,cs),
(432,389,o),
(427,398,o),
(416,411,cs),
(390,440,o),
(334,460,o),
(280,460,cs),
(150,460,o),
(50,354,o),
(50,205,cs),
(50,75,o),
(130,-10,o),
(259,-10,cs)
);
},
{
closed = 1;
nodes = (
(407,317,o),
(432,342,o),
(432,374,cs),
(432,405,o),
(407,430,o),
(376,430,cs),
(344,430,o),
(319,405,o),
(319,374,cs),
(319,342,o),
(344,317,o),
(376,317,cs)
);
}
);
width = 479;
},
{
anchors = (
{
name = bottom;
pos = (273,0);
},
{
name = top;
pos = (274,510);
}
);
associatedMasterId = m002;
layerId = "D7003349-0C18-4DD7-A14C-B57528CD900F";
name = "Jan 27, 22, 17:59";
shapes = (
{
closed = 1;
nodes = (
(350,-10,o),
(425,47,o),
(458,124,c),
(458,145,l),
(455,145,l),
(413,124,o),
(370,119,o),
(331,119,cs),
(243,119,o),
(202,176,o),
(202,257,cs),
(202,356,o),
(225,426,o),
(279,426,cs),
(311,426,o),
(324,407,o),
(349,372,cs),
(384,322,l),
(391,322,l),
(444,367,ls),
(454,376,o),
(456,381,o),
(456,391,cs),
(456,399,o),
(452,408,o),
(441,421,cs),
(414,451,o),
(362,470,o),
(295,470,cs),
(131,470,o),
(30,362,o),
(30,209,cs),
(30,77,o),
(122,-10,o),
(251,-10,cs)
);
},
{
closed = 1;
nodes = (
(428,307,o),
(458,337,o),
(458,375,cs),
(458,413,o),
(428,443,o),
(390,443,cs),
(352,443,o),
(322,413,o),
(322,375,cs),
(322,337,o),
(352,307,o),
(390,307,cs)
);
}
);
width = 488;
}
);
unicode = 99;
},
{
color = 5;
glyphname = ccedilla;
kernLeft = kernLC_o2;
kernRight = kernLC_c1;
layers = (
{
layerId = m01;
shapes = (
{
closed = 1;
nodes = (
(315,-240,o),
(357,-211,o),
(357,-157,cs),
(357,-71,o),
(258,-60,o),
(258,-53,cs),
(258,-48,o),
(261,-40,o),
(265,-30,cs),
(271,-15,o),
(276,-10,o),
(282,-9,cs),
(384,7,o),
(434,81,o),
(434,94,cs),
(434,99,o),
(431,102,o),
(426,102,cs),
(416,102,o),
(369,65,o),
(302,65,cs),
(171,65,o),
(129,155,o),
(129,251,cs),
(129,355,o),
(174,416,o),
(247,416,cs),
(340,416,o),
(340,325,o),
(378,325,cs),
(413,325,o),
(432,362,o),
(432,381,cs),
(432,417,o),
(363,460,o),
(280,460,cs),
(150,460,o),
(50,354,o),
(50,205,cs),
(50,86,o),
(111,7,o),
(227,-8,cs),
(231,-9,o),
(235,-12,o),
(235,-15,cs),
(235,-21,o),
(196,-87,o),
(196,-102,cs),
(196,-114,o),
(297,-118,o),
(297,-173,cs),
(297,-194,o),
(276,-210,o),
(251,-210,cs),
(207,-210,o),
(190,-199,o),
(184,-199,cs),
(179,-199,o),
(177,-201,o),
(177,-206,cs),
(177,-223,o),
(227,-240,o),
(252,-240,cs)
);
}
);
width = 479;
},
{
layerId = m002;
shapes = (
{
closed = 1;
nodes = (
(337,-240,o),
(380,-200,o),
(380,-146,cs),
(380,-49,o),
(281,-41,o),
(281,-34,cs),
(281,-29,o),
(282,-26,o),
(286,-16,cs),
(289,-8,o),
(296,-4,o),
(302,-3,cs),
(404,13,o),
(458,112,o),
(458,131,cs),
(458,138,o),
(454,142,o),
(447,142,cs),
(437,142,o),
(408,119,o),
(341,119,cs),
(249,119,o),
(202,163,o),
(202,259,cs),
(202,363,o),
(228,426,o),
(281,426,cs),
(347,426,o),
(350,322,o),
(388,322,cs),
(423,322,o),
(456,367,o),
(456,386,cs),
(456,422,o),
(406,470,o),
(291,470,cs),
(123,470,o),
(30,354,o),
(30,205,cs),
(30,86,o),
(107,3,o),
(236,-11,cs),
(240,-11,o),
(244,-15,o),
(244,-18,cs),
(244,-24,o),
(207,-90,o),
(207,-101,cs),
(207,-111,o),
(303,-113,o),
(303,-171,cs),
(303,-196,o),
(279,-208,o),
(251,-208,cs),
(207,-208,o),
(204,-199,o),
(198,-199,cs),
(192,-199,o),
(190,-203,o),
(190,-208,cs),
(190,-225,o),
(229,-240,o),
(264,-240,cs)
);
}
);
width = 488;
},
{
associatedMasterId = m01;
layerId = "C4A4E73E-2EAF-4BF8-A17A-363554F041EA";
name = "Dec 21, 21, 22:18";
shapes = (
{
closed = 1;
nodes = (
(340,-10,o),
(403,37,o),
(434,95,c),
(434,105,l),
(431,105,l),
(381,78,o),
(339,65,o),
(302,65,cs),
(171,65,o),
(129,155,o),
(129,251,cs),
(129,355,o),
(174,416,o),
(247,416,cs),
(291,416,o),
(320,398,o),
(340,371,cs),
(374,325,l),
(381,325,l),
(419,357,ls),
(429,365,o),
(432,371,o),
(432,381,cs),
(432,389,o),
(427,398,o),
(416,411,cs),
(390,440,o),
(334,460,o),
(280,460,cs),
(150,460,o),
(50,354,o),
(50,205,cs),
(50,75,o),
(130,-10,o),
(259,-10,cs)
);
},
{
closed = 1;
nodes = (
(216,-210,o),
(198,-206,o),
(180,-198,c),
(177,-198,l),
(177,-210,l),
(195,-231,o),
(223,-240,o),
(260,-240,c),
(323,-240,o),
(357,-203,o),
(357,-155,cs),
(357,-98,o),
(325,-75,o),
(234,-49,c),
(247,-69,l),
(288,20,l),
(253,20,l),
(196,-103,l),
(275,-128,o),
(297,-142,o),
(297,-171,cs),
(297,-192,o),
(283,-210,o),
(243,-210,cs)
);
}
);
width = 479;
},
{
associatedMasterId = m002;
layerId = "1A27C41C-6FAC-4A10-8B52-5538170654D1";
name = "Dec 21, 21, 22:18";
shapes = (
{
closed = 1;
nodes = (
(350,-10,o),
(425,47,o),
(458,124,c),
(458,145,l),
(455,145,l),
(413,124,o),
(370,119,o),
(331,119,cs),
(243,119,o),
(202,176,o),
(202,257,cs),
(202,356,o),
(225,426,o),
(279,426,cs),
(317,426,o),
(325,402,o),
(351,367,cs),
(384,322,l),
(391,322,l),
(444,367,ls),
(454,376,o),
(456,381,o),
(456,391,cs),
(456,399,o),
(452,408,o),
(441,421,cs),
(414,451,o),
(362,470,o),
(295,470,cs),
(131,470,o),
(30,362,o),
(30,209,cs),
(30,77,o),
(122,-10,o),
(251,-10,cs)
);
},
{
closed = 1;
nodes = (
(231,-208,o),
(209,-205,o),
(194,-197,c),
(190,-197,l),
(190,-220,l),
(211,-233,o),
(236,-240,o),
(270,-240,cs),
(335,-240,o),
(380,-200,o),
(380,-143,cs),
(380,-85,o),
(348,-51,o),
(248,-27,c),
(265,-61,l),
(305,27,l),
(265,27,l),
(206,-103,l),
(285,-122,o),
(303,-142,o),
(303,-170,cs),
(303,-196,o),
(281,-208,o),
(247,-208,cs)
);
}
);
visible = 1;
width = 488;
}
);
unicode = 231;
},
{
color = 5;
glyphname = d;
kernLeft = kernLC_o2;
kernRight = kernLC_l1;
layers = (
{
anchors = (
{
name = bottom;
pos = (271,0);
},
{
name = right;
pos = (577,740);
}
);
layerId = m01;
shapes = (
{
closed = 1;
nodes = (
(312,-10,o),
(353,47,o),
(368,47,cs),
(373,47,o),
(376,43,o),
(376,37,cs),
(376,10,ls),
(376,4,o),
(380,0,o),
(387,0,cs),
(513,0,ls),
(520,0,o),
(523,2,o),
(523,9,cs),
(523,12,o),
(521,17,o),
(513,20,cs),
(467,39,ls),
(452,45,o),
(452,51,o),
(452,65,cs),
(452,729,ls),
(452,740,o),
(449,745,o),
(442,745,cs),
(433,745,o),
(426,742,o),
(413,737,cs),
(322,701,ls),
(314,698,o),
(311,694,o),
(311,691,cs),
(311,686,o),
(313,683,o),
(318,679,cs),
(357,648,ls),
(372,636,o),
(372,631,o),
(372,616,cs),
(372,469,ls),
(372,459,o),
(369,454,o),
(362,454,cs),
(354,454,o),
(335,460,o),
(285,460,cs),
(155,460,o),
(44,364,o),
(44,194,cs),
(44,68,o),
(117,-10,o),
(218,-10,cs)
);
},
{
closed = 1;
nodes = (
(191,59,o),
(124,107,o),
(124,217,cs),
(124,357,o),
(192,411,o),
(272,411,cs),
(300,411,o),
(328,402,o),
(352,384,cs),
(372,369,o),
(372,357,o),
(372,339,cs),
(372,119,ls),
(372,95,o),
(372,89,o),
(354,79,cs),
(331,66,o),
(295,59,o),
(273,59,cs)
);
}
);
width = 559;
},
{
anchors = (
{
name = bottom;
pos = (303,0);
},
{
name = right;
pos = (635,740);
}
);
layerId = m002;
shapes = (
{
closed = 1;
nodes = (
(282,-10,o),
(318,48,o),
(333,48,cs),
(338,48,o),
(341,44,o),
(341,38,cs),
(341,10,ls),
(341,4,o),
(345,0,o),
(352,0,cs),
(574,0,ls),
(581,0,o),
(584,2,o),
(584,9,cs),
(584,12,o),
(584,16,o),
(574,20,cs),
(530,39,ls),
(515,45,o),
(515,51,o),
(515,65,cs),
(515,719,ls),
(515,739,o),
(508,745,o),
(491,745,cs),
(479,745,o),
(460,741,o),
(439,736,cs),
(285,700,ls),
(272,697,o),
(266,693,o),
(266,687,cs),
(266,681,o),
(269,678,o),
(275,674,cs),
(319,646,ls),
(335,636,o),
(335,625,o),
(335,606,cs),
(335,478,ls),
(335,468,o),
(332,464,o),
(326,464,cs),
(318,464,o),
(305,470,o),
(255,470,cs),
(125,470,o),
(25,364,o),
(25,194,cs),
(25,68,o),
(108,-10,o),
(191,-10,cs)
);
},
{
closed = 1;
nodes = (
(248,81,o),
(205,131,o),
(205,227,cs),
(205,387,o),
(246,415,o),
(286,415,cs),
(310,415,o),
(323,406,o),
(328,399,cs),
(335,389,o),
(335,385,o),
(335,367,cs),
(335,115,ls),
(335,105,o),
(335,95,o),
(318,87,cs),
(311,84,o),
(302,81,o),
(290,81,cs)
);
}
);
width = 599;
},
{
anchors = (
{
name = bottom;
pos = (271,0);
},
{
name = right;
pos = (577,740);
}
);
associatedMasterId = m01;
layerId = "EEC6AE8E-BA10-4788-B23D-78F7503CEF72";
name = "Jan 27, 22, 20:08";
shapes = (
{
closed = 1;
nodes = (
(272,-10,o),
(316,8,o),
(367,51,c),
(382,51,l),
(382,96,l),
(348,71,o),
(309,59,o),
(273,59,cs),
(191,59,o),
(124,107,o),
(124,217,cs),
(124,357,o),
(192,411,o),
(272,411,cs),
(319,411,o),
(350,390,o),
(392,352,c),
(432,430,l),
(393,447,o),
(358,460,o),
(285,460,cs),
(155,460,o),
(44,364,o),
(44,194,cs),
(44,68,o),
(117,-10,o),
(218,-10,cs)
);
},
{
closed = 1;
nodes = (
(523,0,l),
(523,16,l),
(452,45,l),
(452,750,l),
(446,750,l),
(307,695,l),
(307,688,l),
(372,636,l),
(372,60,l),
(382,0,l)
);
}
);
visible = 1;
width = 559;
},
{
anchors = (
{
name = bottom;
pos = (303,0);
},
{
name = right;
pos = (635,740);
}
);
associatedMasterId = m002;
layerId = "2A1757D9-3D3D-4945-AA85-6397F166A476";
name = "Jan 27, 22, 21:12";
shapes = (
{
closed = 1;
nodes = (
(240,-10,o),
(282,8,o),
(330,49,c),
(347,49,l),
(347,101,l),
(322,88,o),
(312,81,o),
(289,81,cs),
(250,81,o),
(205,129,o),
(205,231,cs),
(205,385,o),
(244,415,o),
(289,415,cs),
(312,415,o),
(333,401,o),
(337,383,c),
(407,423,l),
(363,460,o),
(312,470,o),
(256,470,cs),
(114,470,o),
(25,361,o),
(25,195,cs),
(25,70,o),
(107,-10,o),
(189,-10,cs)
);
},
{
closed = 1;
nodes = (
(584,0,l),
(584,16,l),
(515,45,l),
(515,750,l),
(499,750,l),
(264,695,l),
(264,681,l),
(335,636,l),
(335,60,l),
(345,0,l)
);
}
);
width = 599;
}
);
unicode = 100;
},
{
color = 5;
glyphname = eth;
kernLeft = kernLC_o2;
kernRight = kernLC_eth3;
layers = (
{
layerId = m01;
shapes = (
{
closed = 1;
nodes = (
(405,-10,o),
(495,103,o),
(495,259,cs),
(495,405,o),
(436,533,o),
(333,627,cs),
(329,630,o),
(326,633,o),
(326,636,cs),
(326,640,o),
(329,643,o),
(335,649,cs),
(414,726,ls),
(418,730,o),
(421,733,o),
(421,737,cs),
(421,740,o),
(418,741,o),
(414,741,cs),
(374,741,ls),
(365,741,o),
(355,736,o),
(349,730,cs),
(294,677,ls),
(290,673,o),
(287,670,o),
(283,670,cs),
(279,670,o),
(274,672,o),
(269,676,cs),
(239,699,o),
(138,747,o),
(116,747,cs),
(113,747,o),
(112,743,o),
(112,740,cs),
(112,725,ls),
(112,717,o),
(118,714,o),
(121,713,cs),
(173,691,o),
(203,677,o),
(239,646,cs),
(246,640,o),
(247,637,o),
(247,634,cs),
(247,631,o),
(244,627,o),
(241,624,cs),
(156,541,ls),
(150,535,o),
(147,532,o),
(147,528,cs),
(147,525,o),
(149,523,o),
(153,523,cs),
(191,523,ls),
(202,523,o),
(214,530,o),
(222,538,cs),
(276,591,ls),
(281,596,o),
(284,597,o),
(286,597,cs),
(288,597,o),
(291,595,o),
(294,591,cs),
(322,558,o),
(329,541,o),
(351,500,cs),
(365,474,o),
(367,465,o),
(367,460,cs),
(367,455,o),
(362,454,o),
(357,455,cs),
(338,458,o),
(316,460,o),
(289,460,cs),
(160,460,o),
(50,378,o),
(50,215,cs),
(50,91,o),
(139,-10,o),
(270,-10,cs)
);
},
{
closed = 1;
nodes = (
(182,33,o),
(140,141,o),
(140,226,cs),
(140,368,o),
(203,411,o),
(276,411,cs),
(323,411,o),
(367,386,o),
(384,358,cs),
(394,342,o),
(402,296,o),
(402,264,cs),
(402,102,o),
(346,33,o),
(280,33,cs)
);
}
);
width = 545;
},
{
layerId = m002;
shapes = (
{
closed = 1;
nodes = (
(405,-10,o),
(532,80,o),
(532,259,cs),
(532,405,o),
(467,532,o),
(331,631,cs),
(327,634,o),
(323,637,o),
(323,640,cs),
(323,644,o),
(327,648,o),
(333,653,cs),
(417,726,ls),
(421,729,o),
(424,733,o),
(424,737,cs),
(424,740,o),
(421,741,o),
(417,741,cs),
(371,741,ls),
(362,741,o),
(353,737,o),
(346,730,cs),
(286,677,ls),
(282,673,o),
(280,671,o),
(276,671,cs),
(272,671,o),
(267,673,o),
(262,676,cs),
(229,697,o),
(88,748,o),
(66,748,cs),
(63,748,o),
(62,744,o),
(62,741,cs),
(62,708,ls),
(62,700,o),
(68,697,o),
(71,696,cs),
(123,676,o),
(167,656,o),
(204,625,cs),
(210,620,o),
(212,618,o),
(212,615,cs),
(212,612,o),
(210,610,o),
(207,607,cs),
(133,541,ls),
(127,536,o),
(124,532,o),
(124,528,cs),
(124,525,o),
(126,523,o),
(130,523,cs),
(178,523,ls),
(186,523,o),
(192,526,o),
(201,534,cs),
(243,571,ls),
(247,575,o),
(250,577,o),
(252,577,cs),
(254,577,o),
(258,573,o),
(260,570,cs),
(265,563,o),
(277,549,o),
(298,511,cs),
(312,485,o),
(313,478,o),
(313,473,cs),
(313,470,o),
(309,466,o),
(304,467,cs),
(292,470,o),
(277,470,o),
(269,470,cs),
(140,470,o),
(25,378,o),
(25,215,cs),
(25,91,o),
(139,-10,o),
(270,-10,cs)
);
},
{
closed = 1;
nodes = (
(220,44,o),
(205,141,o),
(205,226,cs),
(205,368,o),
(228,418,o),
(276,418,cs),
(319,418,o),
(332,383,o),
(336,370,cs),
(339,360,o),
(347,296,o),
(347,264,cs),
(347,102,o),
(327,44,o),
(280,44,cs)
);
}
);
width = 557;
},
{
associatedMasterId = m01;
layerId = "E5878F48-0911-476F-B415-7A18AD531CC2";
name = "Dec 22, 21, 11:54";
shapes = (
{
closed = 1;
nodes = (
(405,-10,o),
(495,103,o),
(495,259,cs),
(495,490,o),
(348,676,o),
(112,749,c),
(112,716,l),
(297,651,o),
(402,481,o),
(402,264,cs),
(402,102,o),
(346,33,o),
(280,33,cs),
(182,33,o),
(140,141,o),
(140,226,cs),
(140,368,o),
(203,411,o),
(276,411,cs),
(327,411,o),
(365,389,o),
(405,348,c),
(436,429,l),
(397,446,o),
(362,460,o),
(289,460,cs),
(160,460,o),
(50,378,o),
(50,215,cs),
(50,91,o),
(139,-10,o),
(270,-10,cs)
);
},
{
closed = 1;
nodes = (
(207,523,l),
(429,741,l),
(360,741,l),
(138,523,l)
);
}
);
width = 545;
},
{
associatedMasterId = m002;
layerId = "780638A0-15EB-4731-935B-C995310E228F";
name = "Dec 22, 21, 11:54";
shapes = (
{
closed = 1;
nodes = (
(420,-10,o),
(532,95,o),
(532,264,cs),
(532,495,o),
(334,695,o),
(62,749,c),
(62,699,l),
(247,634,o),
(347,516,o),
(347,269,cs),
(347,110,o),
(328,43,o),
(278,43,cs),
(232,43,o),
(205,108,o),
(205,235,cs),
(205,341,o),
(218,418,o),
(275,418,cs),
(321,418,o),
(335,383,o),
(358,336,c),
(391,439,l),
(357,454,o),
(326,470,o),
(267,470,cs),
(130,470,o),
(25,366,o),
(25,230,cs),
(25,93,o),
(131,-10,o),
(275,-10,cs)
);
},
{
closed = 1;
nodes = (
(189,523,l),
(434,741,l),
(358,741,l),
(113,523,l)
);
}
);
visible = 1;
width = 557;
}
);
unicode = 240;
},
{
color = 5;
glyphname = e;
kernLeft = kernLC_o2;
kernRight = kernLC_e1;
layers = (
{
anchors = (
{
name = bottom;
pos = (264,0);
},
{
name = right;
pos = (358,0);
},
{
name = top;
pos = (260,510);
}
);
layerId = m01;
shapes = (
{
closed = 1;
nodes = (
(362,-10,o),
(431,80,o),
(430,94,cs),
(430,98,o),
(427,101,o),
(423,101,cs),
(413,101,o),
(370,65,o),
(307,65,cs),
(174,65,o),
(130,153,o),
(130,223,cs),
(130,234,o),
(137,242,o),
(149,242,cs),
(409,242,ls),
(422,242,o),
(431,252,o),
(431,267,cs),
(431,375,o),
(375,460,o),
(261,460,cs),
(159,460,o),
(50,362,o),
(50,209,cs),
(50,77,o),
(123,-10,o),
(261,-10,cs)
);
},
{
closed = 1;
nodes = (
(139,288,o),
(134,294,o),
(134,304,cs),
(134,344,o),
(175,416,o),
(247,416,cs),
(317,416,o),
(352,348,o),
(352,303,cs),
(352,293,o),
(346,288,o),
(336,288,cs),
(150,288,ls)
);
}
);
width = 484;
},
{
anchors = (
{
name = bottom;
pos = (269,0);
},
{
name = right;
pos = (389,0);
},
{
name = top;
pos = (260,510);
}
);
layerId = m002;
shapes = (
{
closed = 1;
nodes = (
(417,-10,o),
(473,111,o),
(473,130,cs),
(473,136,o),
(469,140,o),
(462,140,cs),
(449,140,o),
(419,119,o),
(345,119,cs),
(250,119,o),
(202,173,o),
(202,243,cs),
(202,254,o),
(209,262,o),
(221,262,cs),
(449,262,ls),
(462,262,o),
(471,272,o),
(471,287,cs),
(471,395,o),
(408,470,o),
(288,470,cs),
(149,470,o),
(30,362,o),
(30,209,cs),
(30,77,o),
(123,-10,o),
(261,-10,cs)
);
},
{
closed = 1;
nodes = (
(212,306,o),
(207,312,o),
(207,322,cs),
(207,362,o),
(230,425,o),
(271,425,cs),
(317,425,o),
(336,366,o),
(336,321,cs),
(336,311,o),
(330,306,o),
(320,306,cs),
(223,306,ls)
);
}
);
width = 503;
},
{
anchors = (
{
name = bottom;
pos = (264,0);
},
{
name = right;
pos = (358,0);
},
{
name = top;
pos = (260,510);
}
);
associatedMasterId = m01;
layerId = "9C99212D-5FE6-416F-B098-3624CC077AE6";
name = "Jan 17, 22, 21:36";
shapes = (
{
closed = 1;
nodes = (
(340,-10,o),
(403,37,o),
(434,95,c),
(434,105,l),
(431,105,l),
(381,78,o),
(339,65,o),
(302,65,cs),
(171,65,o),
(129,155,o),
(129,251,cs),
(129,355,o),
(174,416,o),
(247,416,cs),
(306,416,o),
(343,377,o),
(358,284,c),
(376,288,l),
(119,288,l),
(119,242,l),
(428,242,l),
(433,247,l),
(433,384,o),
(368,460,o),
(263,460,cs),
(150,460,o),
(50,354,o),
(50,205,cs),
(50,75,o),
(130,-10,o),
(259,-10,cs)
);
}
);
width = 484;
},
{
anchors = (
{
name = bottom;
pos = (269,0);
},
{
name = right;
pos = (389,0);
},
{
name = top;
pos = (260,510);
}
);
associatedMasterId = m002;
layerId = "96D7C2BD-8E3D-4FD4-B8BF-A516E0BD2F7A";
name = "Jan 17, 22, 21:44";
shapes = (
{
closed = 1;
nodes = (
(362,-10,o),
(439,46,o),
(473,124,c),
(473,145,l),
(470,145,l),
(428,124,o),
(385,119,o),
(346,119,cs),
(248,119,o),
(202,171,o),
(202,247,cs),
(202,359,o),
(227,425,o),
(271,425,cs),
(310,425,o),
(332.506,395.738,o),
(339,294,c),
(395,306,l),
(138,306,l),
(138,262,l),
(469,262,l),
(472,267,l),
(470,395,o),
(409,470,o),
(299,470,cs),
(147,470,o),
(30,362,o),
(30,209,cs),
(30,77,o),
(118,-10,o),
(261,-10,cs)
);
}
);
visible = 1;
width = 503;
}
);
unicode = 101;
},
{
color = 5;
glyphname = f;
kernLeft = kernLC_f2;
kernRight = kernLC_f1;
layers = (
{
layerId = m01;
shapes = (
{
closed = 1;
nodes = (
(258,0,ls),
(265,0,o),
(268,3,o),
(268,9,cs),
(268,12,o),
(268,16,o),
(254,22,cs),
(211,40,ls),
(197,46,o),
(197,52,o),
(197,66,cs),
(197,393,ls),
(197,400,o),
(200,403,o),
(207,403,cs),
(319,403,ls),
(326,403,o),
(329,406,o),
(329,413,cs),
(329,440,ls),
(329,447,o),
(326,450,o),
(319,450,cs),
(207,450,ls),
(200,450,o),
(197,453,o),
(197,460,cs),
(197,617,o),
(206,668,o),
(265,668,cs),
(302,668,o),
(311,646,o),
(342,646,cs),
(366,646,o),
(386,663,o),
(386,699,cs),
(386,734,o),
(358,750,o),
(311,750,cs),
(164,750,o),
(117,561,o),
(117,460,cs),
(117,453,o),
(114,450,o),
(107,450,cs),
(49,450,ls),
(42,450,o),
(39,447,o),
(39,440,cs),
(39,413,ls),
(39,406,o),
(42,403,o),
(49,403,cs),
(106,403,ls),
(114,403,o),
(117,400,o),
(117,393,cs),
(117,68,ls),
(117,52,o),
(117,48,o),
(105,42,cs),
(64,21,ls),
(54,16,o),
(54,12,o),
(54,9,cs),
(54,3,o),
(57,0,o),
(64,0,cs)
);
}
);
width = 342;
},
{
layerId = m002;
shapes = (
{
closed = 1;
nodes = (
(258,0,ls),
(265,0,o),
(268,3,o),
(268,9,cs),
(268,12,o),
(268,16,o),
(254,22,cs),
(211,40,ls),
(197,46,o),
(197,52,o),
(197,66,cs),
(197,393,ls),
(197,400,o),
(200,403,o),
(207,403,cs),
(319,403,ls),
(326,403,o),
(329,406,o),
(329,413,cs),
(329,440,ls),
(329,447,o),
(326,450,o),
(319,450,cs),
(207,450,ls),
(200,450,o),
(197,453,o),
(197,460,cs),
(197,617,o),
(206,668,o),
(265,668,cs),
(302,668,o),
(311,646,o),
(342,646,cs),
(366,646,o),
(386,663,o),
(386,699,cs),
(386,734,o),
(358,750,o),
(311,750,cs),
(164,750,o),
(117,561,o),
(117,460,cs),
(117,453,o),
(114,450,o),
(107,450,cs),
(49,450,ls),
(42,450,o),
(39,447,o),
(39,440,cs),
(39,413,ls),
(39,406,o),
(42,403,o),
(49,403,cs),
(106,403,ls),
(114,403,o),
(117,400,o),
(117,393,cs),
(117,68,ls),
(117,52,o),
(117,48,o),
(105,42,cs),
(64,21,ls),
(54,16,o),
(54,12,o),
(54,9,cs),
(54,3,o),
(57,0,o),
(64,0,cs)
);
}
);
width = 389;
},
{
associatedMasterId = m01;
layerId = "37B39915-5A6D-4618-A1A3-BE5DE8D60598";
name = "Jan 27, 22, 22:54";
shapes = (
{
closed = 1;
nodes = (
(268,0,l),
(268,16,l),
(197,46,l),
(197,530,ls),
(197,622,o),
(216,668,o),
(289,668,cs),
(315,668,o),
(334,665,o),
(354,657,cs),
(381,646,l),
(388,646,l),
(408,695,ls),
(411,702,o),
(412,708,o),
(412,713,cs),
(412,725,o),
(402,732,o),
(382,741,cs),
(373,745,o),
(358,750,o),
(346,750,cs),
(204,750,o),
(117,555,o),
(117,490,cs),
(117,48,l),
(54,16,l),
(54,0,l)
);
},
{
closed = 1;
nodes = (
(329,403,l),
(329,450,l),
(39,450,l),
(39,403,l)
);
},
{
closed = 1;
nodes = (
(377,638,o),
(402,663,o),
(402,694,cs),
(402,725,o),
(377,750,o),
(346,750,cs),
(315,750,o),
(290,725,o),
(290,694,cs),
(290,663,o),
(315,638,o),
(346,638,cs)
);
}
);
visible = 1;
width = 342;
},
{
associatedMasterId = m002;
layerId = "113F3FA6-432E-41E7-ACB7-7505CF33ADD0";
name = "Jan 27, 22, 22:57";
shapes = (
{
closed = 1;
nodes = (
(356,0,l),
(356,16,l),
(274,48,l),
(274,510,ls),
(274,629.392,o),
(282,665,o),
(331,665,cs),
(352,665,o),
(367,657,o),
(391,644,cs),
(404,637,l),
(414,637,l),
(445,695,ls),
(449,703,o),
(451,709,o),
(451,715,cs),
(451,725,o),
(448,729,o),
(431,739,cs),
(420,745,o),
(403,750,o),
(385,750,cs),
(275,750,o),
(94,594,o),
(94,485,cs),
(94,48,l),
(25,16,l),
(25,0,l)
);
},
{
closed = 1;
nodes = (
(384,416,l),
(384,460,l),
(20,460,l),
(20,416,l)
);
}
);
width = 389;
}
);
unicode = 102;
},
{
color = 5;
glyphname = g;
kernLeft = kernLC_g3;
kernRight = kernLC_g3;
layers = (
{
anchors = (
{
name = top;
pos = (263,510);
}
);
layerId = m01;
shapes = (
{
closed = 1;
nodes = (
(360,142,o),
(436,210,o),
(436,301,cs),
(436,362,o),
(402,389,o),
(402,397,cs),
(402,401,o),
(405,402,o),
(412,406,cs),
(463,436,ls),
(475,443,o),
(476,445,o),
(476,450,cs),
(476,456,o),
(472,460,o),
(463,460,cs),
(258,460,ls),
(156,460,o),
(80,391,o),
(80,301,cs),
(80,235,o),
(115,200,o),
(134,185,cs),
(143,178,o),
(148,174,o),
(148,170,cs),
(148,166,o),
(142,163,o),
(134,159,cs),
(105,144,o),
(70,124,o),
(70,75,cs),
(70,24,o),
(112,3,o),
(132,-3,cs),
(139,-5,o),
(144,-7,o),
(144,-11,cs),
(144,-14,o),
(141,-17,o),
(133,-21,cs),
(93,-41,o),
(61,-68,o),
(61,-121,cs),
(61,-188,o),
(112,-240,o),
(239,-240,cs),
(383,-240,o),
(473,-154,o),
(473,-68,cs),
(473,12,o),
(435,59,o),
(323,59,cs),
(223,59,ls),
(165,59,o),
(140,69,o),
(140,109,cs),
(140,131,o),
(159,156,o),
(178,156,cs),
(189,156,o),
(209,142,o),
(258,142,cs)
);
},
{
closed = 1;
nodes = (
(132,-71,o),
(140,-44,o),
(158,-28,cs),
(179,-10,o),
(191,-10,o),
(208,-10,cs),
(302,-10,ls),
(383,-10,o),
(400,-41,o),
(400,-88,cs),
(400,-152,o),
(340,-212,o),
(251,-212,cs),
(184,-212,o),
(132,-169,o),
(132,-110,cs)
);
},
{
closed = 1;
nodes = (
(206,183,o),
(162,234,o),
(162,304,cs),
(162,367,o),
(194,420,o),
(251,420,cs),
(309,420,o),
(354,371,o),
(354,298,cs),
(354,236,o),
(321,183,o),
(268,183,cs)
);
}
);
width = 536;
},
{
anchors = (
{
name = top;
pos = (255,510);
}
);
layerId = m002;
shapes = (
{
closed = 1;
nodes = (
(358,159,o),
(451,222,o),
(451,311,cs),
(451,374,o),
(405,398,o),
(405,406,cs),
(405,410,o),
(408,411,o),
(415,415,cs),
(463,445,ls),
(475,452,o),
(476,454,o),
(476,459,cs),
(476,465,o),
(472,469,o),
(463,469,cs),
(258,469,ls),
(139,469,o),
(52,406,o),
(52,316,cs),
(52,255,o),
(85,222,o),
(104,207,cs),
(113,200,o),
(117,197,o),
(117,193,cs),
(117,189,o),
(112,185,o),
(104,181,cs),
(54,155,o),
(31,124,o),
(31,75,cs),
(31,24,o),
(55,-10,o),
(93,-32,cs),
(100,-36,o),
(103,-39,o),
(103,-42,cs),
(103,-46,o),
(100,-48,o),
(92,-53,cs),
(56,-73,o),
(31,-92,o),
(31,-143,cs),
(31,-210,o),
(102,-240,o),
(223,-240,cs),
(383,-240,o),
(493,-144,o),
(493,-48,cs),
(493,32,o),
(455,95,o),
(343,95,cs),
(223,95,ls),
(186,95,o),
(150,102,o),
(150,142,cs),
(150,157,o),
(157,171,o),
(165,171,cs),
(176,171,o),
(199,159,o),
(256,159,cs)
);
},
{
closed = 1;
nodes = (
(124,-98,o),
(128,-86,o),
(139,-71,cs),
(147,-61,o),
(162,-55,o),
(192,-55,cs),
(288,-55,ls),
(328,-55,o),
(352,-69,o),
(352,-116,cs),
(352,-162,o),
(307,-199,o),
(224,-199,cs),
(164,-199,o),
(124,-176,o),
(124,-117,cs)
);
},
{
closed = 1;
nodes = (
(217,202,o),
(196,241,o),
(196,311,cs),
(196,374,o),
(208,426,o),
(251,426,cs),
(290,426,o),
(308,384,o),
(308,311,cs),
(308,249,o),
(296,202,o),
(258,202,cs)
);
}
);
width = 529;
},
{
anchors = (
{
name = top;
pos = (263,510);
}
);
associatedMasterId = m01;
layerId = "E42BA3D1-D1CD-4C41-B68B-242CBB13CD47";
name = "Jan 19, 22, 13:52";
shapes = (
{
closed = 1;
nodes = (
(360,142,o),
(436,210,o),
(436,301,cs),
(436,346,o),
(412,394,o),
(380,414,c),
(351,439,l),
(328,451,o),
(288,460,o),
(258,460,cs),
(156,460,o),
(80,391,o),
(80,301,cs),
(80,210,o),
(156,142,o),
(258,142,cs)
);
},
{
closed = 1;
nodes = (
(206,183,o),
(162,233.802,o),
(162,304,cs),
(162,367.472,o),
(194,420,o),
(251,420,cs),
(309,420,o),
(354,371.015,o),
(354,298,cs),
(354,235.571,o),
(321,183,o),
(268,183,cs)
);
},
{
closed = 1;
nodes = (
(496,450,l),
(334,441,l),
(334,387,l),
(387,387,l),
(403,402,l),
(496,396,l)
);
},
{
closed = 1;
nodes = (
(383,-240,o),
(473,-154,o),
(473,-68,cs),
(473,16,o),
(428,59,o),
(331,59,cs),
(211,59,ls),
(162,59,o),
(140,74,o),
(140,109,cs),
(140,131,o),
(152,151,o),
(185,161,c),
(185,178,l),
(150,178,l),
(150,167,l),
(96,139,l),
(78,121,o),
(70,101,o),
(70,75,cs),
(70,24,o),
(112,-10,o),
(185,-10,cs),
(292,-10,ls),
(373,-10,o),
(400,-29,o),
(400,-88,cs),
(400,-152,o),
(340,-212,o),
(251,-212,cs),
(184,-212,o),
(132,-169,o),
(132,-110,cs),
(132,-58,o),
(147,-24,o),
(195,-2,c),
(195,5,l),
(148,5,l),
(148,-11,l),
(79,-57,l),
(67,-75,o),
(61,-96,o),
(61,-121,cs),
(61,-188,o),
(112,-240,o),
(239,-240,cs)
);
}
);
width = 536;
},
{
anchors = (
{
name = top;
pos = (255,510);
}
);
associatedMasterId = m002;
layerId = "21955260-1840-4BF5-9849-B1CD398A4819";
name = "Jan 19, 22, 18:56";
shapes = (
{
closed = 1;
nodes = (
(369,159,o),
(456,226,o),
(456,314,cs),
(456,356,o),
(428,395,o),
(394,414,c),
(369,445,l),
(342,459,o),
(300,469,o),
(256,469,cs),
(143,469,o),
(56,402,o),
(56,314,cs),
(56,226,o),
(143,159,o),
(256,159,cs)
);
},
{
closed = 1;
nodes = (
(223,202,o),
(201,238.143,o),
(201,317,cs),
(201,385.263,o),
(217,426,o),
(256,426,cs),
(291,426,o),
(313,388.762,o),
(313,311,cs),
(313,240.535,o),
(297,202,o),
(261,202,cs)
);
},
{
closed = 1;
nodes = (
(523,459,l),
(333,444,l),
(333,385,l),
(395,385,l),
(418,403,l),
(523,394,l)
);
},
{
closed = 1;
nodes = (
(391,-240,o),
(498,-143,o),
(498,-47,cs),
(498,46,o),
(447,95,o),
(338,95,cs),
(234,95,ls),
(178,95,o),
(154,109,o),
(154,142,cs),
(154,163,o),
(167,182,o),
(200,191,c),
(200,206,l),
(124,206,l),
(124,190,l),
(65,153,l),
(43,131,o),
(36,105,o),
(36,72,cs),
(36,-5,o),
(98,-55,o),
(206,-55,cs),
(278,-55,ls),
(336,-55,o),
(357,-70,o),
(357,-116,cs),
(357,-162,o),
(308,-199,o),
(227,-199,cs),
(155,-199,o),
(128,-164,o),
(128,-116,cs),
(128,-81,o),
(146,-59,o),
(177,-44,c),
(177,-30,l),
(111,-30,l),
(111,-44,l),
(53,-80,l),
(40,-101,o),
(35,-117,o),
(35,-141,cs),
(35,-198,o),
(88,-240,o),
(218,-240,c)
);
}
);
visible = 1;
width = 538;
}
);
unicode = 103;
},
{
color = 5;
glyphname = h;
kernLeft = kernLC_l2;
kernRight = kernLC_n1;
layers = (
{
anchors = (
{
name = bottom;
pos = (296,0);
},
{
name = top;
pos = (296,765);
}
);
layerId = m01;
shapes = (
{
closed = 1;
nodes = (
(252,0,ls),
(259,0,o),
(262,3,o),
(262,9,cs),
(262,12,o),
(262,16,o),
(252,20,cs),
(201,41,ls),
(191,45,o),
(191,50,o),
(191,59,cs),
(191,329,ls),
(191,372,o),
(256,386,o),
(299,386,cs),
(375,386,o),
(401,347,o),
(401,285,cs),
(401,58,ls),
(401,45,o),
(394,42,o),
(386,39,cs),
(340,20,ls),
(333,17,o),
(330,13,o),
(330,9,cs),
(330,3,o),
(333,0,o),
(340,0,cs),
(534,0,ls),
(541,0,o),
(544,3,o),
(544,9,cs),
(544,12,o),
(540,18,o),
(530,23,cs),
(499,39,ls),
(487,45,o),
(481,48,o),
(481,58,cs),
(481,329,ls),
(481,400,o),
(454,460,o),
(346,460,cs),
(255,460,o),
(209,393,o),
(197,393,cs),
(192,393,o),
(191,397,o),
(191,405,cs),
(191,730,ls),
(191,738,o),
(191,747,o),
(184,747,cs),
(176,747,o),
(168,743,o),
(156,738,cs),
(76,705,ls),
(59,698,o),
(54,696,o),
(54,691,cs),
(54,687,o),
(56,684,o),
(61,679,cs),
(102,644,ls),
(109,638,o),
(111,634,o),
(111,625,cs),
(111,59,ls),
(111,53,o),
(111,48,o),
(101,43,cs),
(58,21,ls),
(48,16,o),
(48,12,o),
(48,9,cs),
(48,4,o),
(51,0,o),
(58,0,cs)
);
}
);
width = 582;
},
{
anchors = (
{
name = bottom;
pos = (326,0);
},
{
name = top;
pos = (326,765);
}
);
layerId = m002;
shapes = (
{
closed = 1;
nodes = (
(296,0,ls),
(303,0,o),
(306,3,o),
(306,9,cs),
(306,12,o),
(306,16,o),
(297,24,cs),
(277,41,ls),
(268,48,o),
(269,54,o),
(269,59,cs),
(269,329,ls),
(269,352,o),
(297,366,o),
(327,366,cs),
(353,366,o),
(382,353,o),
(382,294,cs),
(382,59,ls),
(382,48,o),
(375,43,o),
(370,38,cs),
(355,25,ls),
(345,16,o),
(345,12,o),
(345,9,cs),
(345,3,o),
(348,0,o),
(355,0,cs),
(615,0,ls),
(622,0,o),
(625,3,o),
(625,9,cs),
(625,12,o),
(621,18,o),
(611,23,cs),
(580,39,ls),
(568,45,o),
(562,48,o),
(562,58,cs),
(562,329,ls),
(562,407,o),
(532,470,o),
(424,470,cs),
(324,470,o),
(289,400,o),
(275,400,cs),
(270,400,o),
(269,404,o),
(269,412,cs),
(269,736,ls),
(269,744,o),
(267,750,o),
(260,750,cs),
(253,750,o),
(244,748,o),
(232,745,cs),
(36,698,ls),
(23,695,o),
(23,690,o),
(23,686,cs),
(23,683,o),
(23,679,o),
(31,674,cs),
(80,642,ls),
(89,636,o),
(89,631,o),
(89,625,cs),
(89,59,ls),
(89,53,o),
(89,48,o),
(79,43,cs),
(30,21,ls),
(20,16,o),
(20,12,o),
(20,9,cs),
(20,4,o),
(23,0,o),
(30,0,cs)
);
}
);
width = 641;
},
{
anchors = (
{
name = bottom;
pos = (296,0);
},
{
name = top;
pos = (296,765);
}
);
associatedMasterId = m01;
layerId = "9D762C65-8D9F-498A-AD80-1FA5C4C14712";
name = "Jan 17, 22, 22:11";
shapes = (
{
closed = 1;
nodes = (
(262,0,l),
(262,16,l),
(191,45,l),
(191,750,l),
(185,750,l),
(51,695,l),
(51,688,l),
(111,636,l),
(111,48,l),
(48,16,l),
(48,0,l)
);
},
{
closed = 1;
nodes = (
(544,0,l),
(544,16,l),
(481,48,l),
(481,343,ls),
(481,420,o),
(425,460,o),
(347,460,cs),
(290,460,o),
(246,437,o),
(195,386,c),
(183,386,l),
(183,342,l),
(205,371,o),
(262,386,o),
(302,386,cs),
(360,386,o),
(401,355,o),
(401,296,cs),
(401,45,l),
(330,16,l),
(330,0,l)
);
}
);
width = 582;
},
{
anchors = (
{
name = bottom;
pos = (326,0);
},
{
name = top;
pos = (326,765);
}
);
associatedMasterId = m002;
layerId = "497F6E56-AFD0-443F-81FD-9749A8490593";
name = "Jan 19, 22, 21:56";
shapes = (
{
closed = 1;
nodes = (
(306,0,l),
(306,16,l),
(269,48,l),
(269,750,l),
(253,750,l),
(23,695,l),
(23,679,l),
(89,636,l),
(89,48,l),
(20,16,l),
(20,0,l)
);
},
{
closed = 1;
nodes = (
(631,0,l),
(631,16,l),
(562,48,l),
(562,343,ls),
(562,427,o),
(504,470,o),
(421,470,cs),
(356,470,o),
(318,440,o),
(273,396,c),
(261,396,l),
(261,339,l),
(277,354,o),
(304,366,o),
(326,366,cs),
(359,366,o),
(382,345,o),
(382,306,cs),
(382,48,l),
(345,16,l),
(345,0,l)
);
}
);
visible = 1;
width = 641;
}
);
unicode = 104;
},
{
color = 5;
glyphname = i;
kernLeft = kernLC_i2;
kernRight = kernLC_i1;
layers = (
{
anchors = (
{
name = bottom;
pos = (157,0);
},
{
name = right;
pos = (175,0);
},
{
name = top;
pos = (157,510);
}
);
layerId = m01;
shapes = (
{
closed = 1;
nodes = (
(250,0,ls),
(257,0,o),
(260,3,o),
(260,9,cs),
(260,12,o),
(260,16,o),
(250,21,cs),
(205,44,ls),
(197,48,o),
(197,52,o),
(197,68,cs),
(197,441,ls),
(197,449,o),
(196,456,o),
(187,456,cs),
(182,456,o),
(174,453,o),
(167,450,cs),
(74,412,ls),
(62,407,o),
(60,404,o),
(60,400,cs),
(60,396,o),
(64,392,o),
(72,385,cs),
(108,354,ls),
(117,346,o),
(117,341,o),
(117,326,cs),
(117,68,ls),
(117,52,o),
(117,48,o),
(101,40,cs),
(64,21,ls),
(54,16,o),
(54,12,o),
(54,9,cs),
(54,4,o),
(57,0,o),
(64,0,cs)
);
},
{
closed = 1;
nodes = (
(188,581,o),
(214,607,o),
(214,641,cs),
(214,676,o),
(188,701,o),
(154,701,cs),
(119,701,o),
(94,676,o),
(94,641,cs),
(94,607,o),
(119,581,o),
(154,581,cs)
);
}
);
width = 313;
},
{
anchors = (
{
name = bottom;
pos = (179,0);
},
{
name = right;
pos = (210,0);
},
{
name = top;
pos = (179,510);
}
);
layerId = m002;
shapes = (
{
closed = 1;
nodes = (
(316,0,ls),
(323,0,o),
(326,4,o),
(326,9,cs),
(326,12,o),
(326,16,o),
(317,21,cs),
(276,44,ls),
(269,48,o),
(269,54,o),
(269,68,cs),
(269,450,ls),
(269,462,o),
(265,468,o),
(258,468,cs),
(248,468,o),
(236,466,o),
(170,450,cs),
(40,419,ls),
(23,415,o),
(23,410,o),
(23,407,cs),
(23,403,o),
(23,399,o),
(40,388,cs),
(80,362,ls),
(89,356,o),
(89,341,o),
(89,326,cs),
(89,68,ls),
(89,54,o),
(89,48,o),
(74,41,cs),
(33,22,ls),
(20,16,o),
(20,12,o),
(20,9,cs),
(20,4,o),
(23,0,o),
(30,0,cs)
);
},
{
closed = 1;
nodes = (
(224,554,o),
(258,588,o),
(258,635,cs),
(258,682,o),
(224,716,o),
(177,716,cs),
(130,716,o),
(96,682,o),
(96,635,cs),
(96,588,o),
(130,554,o),
(177,554,cs)
);
}
);
width = 346;
},
{
anchors = (
{
name = bottom;
pos = (157,0);
},
{
name = right;
pos = (175,0);
},
{
name = top;
pos = (157,510);
}
);
associatedMasterId = m01;
layerId = "77FC2A85-6A70-487C-9F66-9656A50B43D1";
name = "Jan 19, 22, 12:02";
shapes = (
{
closed = 1;
nodes = (
(188,581,o),
(214,607,o),
(214,641,cs),
(214,676,o),
(188,701,o),
(154,701,cs),
(119,701,o),
(94,676,o),
(94,641,cs),
(94,607,o),
(119,581,o),
(154,581,cs)
);
},
{
closed = 1;
nodes = (
(260,0,l),
(260,16,l),
(197,48,l),
(197,460,l),
(191,460,l),
(57,405,l),
(57,398,l),
(117,346,l),
(117,48,l),
(54,16,l),
(54,0,l)
);
},
{
closed = 1;
nodes = (
(188,581,o),
(214,607,o),
(214,641,cs),
(214,676,o),
(188,701,o),
(154,701,cs),
(119,701,o),
(94,676,o),
(94,641,cs),
(94,607,o),
(119,581,o),
(154,581,cs)
);
}
);
visible = 1;
width = 313;
},
{
anchors = (
{
name = bottom;
pos = (179,0);
},
{
name = right;
pos = (210,0);
},
{
name = top;
pos = (179,510);
}
);
associatedMasterId = m002;
layerId = "4A50F3A7-92C0-42D9-B4AB-F98B9F2375A3";
name = "Jan 20, 22, 17:06";
shapes = (
{
closed = 1;
nodes = (
(326,0,ls),
(326,16,l),
(269,48,l),
(269,470,l),
(253,470,l),
(23,415,l),
(23,399,l),
(89,356,l),
(89,48,l),
(20,16,l),
(20,0,ls)
);
},
{
closed = 1;
nodes = (
(224,554,o),
(258,588,o),
(258,635,cs),
(258,682,o),
(224,716,o),
(177,716,cs),
(130,716,o),
(96,682,o),
(96,635,cs),
(96,588,o),
(130,554,o),
(177,554,cs)
);
}
);
width = 346;
}
);
unicode = 105;
},
{
color = 5;
glyphname = idotless;
layers = (
{
anchors = (
{
name = bottom;
pos = (157,0);
},
{
name = right;
pos = (175,0);
},
{
name = top;
pos = (157,510);
}
);
layerId = m01;
shapes = (
{
closed = 1;
nodes = (
(84,0,o),
(108,0,o),
(151,0,cs),
(190,0,o),
(202,0,o),
(241,0,cs),
(256,0,o),
(260,3,o),
(260,12,cs),
(260,31,o),
(197,40,o),
(197,62,cs),
(197,441,ls),
(197,449,o),
(196,456,o),
(187,456,cs),
(182,456,o),
(174,453,o),
(167,450,cs),
(81,415,ls),
(65,408,o),
(62,404,o),
(62,400,cs),
(62,395,o),
(64,391,o),
(70,386,cs),
(107,357,ls),
(114,352,o),
(117,347,o),
(117,338,cs),
(117,62,ls),
(117,41,o),
(53,31,o),
(53,12,cs),
(53,4,o),
(57,0,o),
(71,0,cs)
);
}
);
width = 313;
},
{
anchors = (
{
name = bottom;
pos = (179,0);
},
{
name = right;
pos = (210,0);
},
{
name = top;
pos = (179,510);
}
);
layerId = m002;
shapes = (
{
closed = 1;
nodes = (
(51,-4,o),
(88,0,o),
(191,0,cs),
(232,0,o),
(268,-4,o),
(307,-4,cs),
(322,-4,o),
(326,-1,o),
(326,8,cs),
(326,27,o),
(269,36,o),
(269,58,c),
(269,455,l),
(269,463,o),
(265,470,o),
(258,470,cs),
(250,470,o),
(243,468,o),
(198,457,cs),
(42,420,ls),
(26,416,o),
(23,412,o),
(23,408,cs),
(23,403,o),
(24,398,o),
(31,394,cs),
(79,363,ls),
(87,358,o),
(89,353,o),
(89,344,c),
(89,58,l),
(89,37,o),
(20,27,o),
(20,8,cs),
(20,0,o),
(24,-4,o),
(38,-4,cs)
);
}
);
width = 346;
}
);
unicode = 305;
},
{
color = 5;
glyphname = j;
kernLeft = kernLC_j2;
kernRight = kernLC_i1;
layers = (
{
anchors = (
{
name = top;
pos = (157,510);
}
);
layerId = m01;
shapes = (
{
closed = 1;
nodes = (
(96,-230,o),
(197,-142,o),
(197,0,cs),
(197,441,ls),
(197,449,o),
(196,456,o),
(187,456,cs),
(182,456,o),
(174,453,o),
(167,450,cs),
(81,415,ls),
(65,408,o),
(62,404,o),
(62,400,cs),
(62,395,o),
(64,391,o),
(70,386,cs),
(102,359,ls),
(110,352,o),
(117,346,o),
(117,328,cs),
(117,-32,ls),
(117,-182,o),
(54,-203,o),
(54,-219,cs),
(54,-226,o),
(58,-230,o),
(67,-230,cs)
);
},
{
closed = 1;
nodes = (
(188,581,o),
(214,607,o),
(214,641,cs),
(214,676,o),
(188,701,o),
(154,701,cs),
(119,701,o),
(94,676,o),
(94,641,cs),
(94,607,o),
(119,581,o),
(154,581,cs)
);
}
);
width = 314;
},
{
anchors = (
{
name = top;
pos = (176,510);
}
);
layerId = m002;
shapes = (
{
closed = 1;
nodes = (
(66,-230,o),
(267,-142,o),
(267,0,c),
(267,457,l),
(267,465,o),
(266,472,o),
(259,472,cs),
(252,472,o),
(240,469,o),
(233,467,cs),
(39,421,ls),
(23,417,o),
(20,410,o),
(20,406,cs),
(20,401,o),
(22,396,o),
(28,392,cs),
(77,357,ls),
(85,352,o),
(87,347,o),
(87,338,c),
(87,-62,l),
(87,-182,o),
(24,-203,o),
(24,-216,cs),
(24,-224,o),
(28,-230,o),
(37,-230,cs)
);
},
{
closed = 1;
nodes = (
(221,554,o),
(255,588,o),
(255,635,cs),
(255,682,o),
(221,716,o),
(174,716,cs),
(127,716,o),
(93,682,o),
(93,635,cs),
(93,588,o),
(127,554,o),
(174,554,cs)
);
}
);
width = 341;
},
{
anchors = (
{
name = top;
pos = (157,510);
}
);
associatedMasterId = m01;
layerId = "C826D741-87A5-4A7E-80B1-BDBFDD93D8D1";
name = "Feb 1, 22, 00:47";
shapes = (
{
closed = 1;
nodes = (
(164,-177,o),
(197,-101,o),
(197,0,cs),
(197,460,l),
(191,460,l),
(57,405,l),
(57,398,l),
(117,346,l),
(117,-10,ls),
(117,-122,o),
(100,-171,o),
(54,-214,c),
(54,-230,l)
);
},
{
closed = 1;
nodes = (
(188,581,o),
(214,607,o),
(214,641,cs),
(214,676,o),
(188,701,o),
(154,701,cs),
(119,701,o),
(94,676,o),
(94,641,cs),
(94,607,o),
(119,581,o),
(154,581,cs)
);
}
);
visible = 1;
width = 314;
}
);
unicode = 106;
},
{
color = 5;
glyphname = k;
kernLeft = kernLC_l2;
kernRight = kernLC_k1;
layers = (
{
anchors = (
{
name = bottom;
pos = (295,0);
}
);
layerId = m01;
shapes = (
{
closed = 1;
nodes = (
(191,731,ls),
(191,739,o),
(190,746,o),
(181,746,cs),
(176,746,o),
(168,743,o),
(161,740,cs),
(68,702,ls),
(56,697,o),
(54,694,o),
(54,690,cs),
(54,686,o),
(58,682,o),
(66,675,cs),
(102,644,ls),
(111,636,o),
(111,631,o),
(111,616,cs),
(111,68,ls),
(111,52,o),
(111,48,o),
(95,40,cs),
(58,21,ls),
(48,16,o),
(48,12,o),
(48,9,cs),
(48,4,o),
(51,0,o),
(58,0,cs),
(252,0,ls),
(259,0,o),
(262,3,o),
(262,9,cs),
(262,12,o),
(262,16,o),
(252,20,cs),
(199,42,ls),
(191,45,o),
(191,52,o),
(191,68,cs),
(191,223,ls),
(191,229,o),
(192,232,o),
(195,232,cs),
(198,232,o),
(200,230,o),
(210,219,cs),
(377,29,ls),
(395,8,o),
(407,0,o),
(438,0,cs),
(519,0,ls),
(527,0,o),
(530,4,o),
(530,8,cs),
(530,14,o),
(528,17,o),
(519,22,cs),
(481,42,ls),
(466,50,o),
(456,61,o),
(446,72,cs),
(288,246,ls),
(276,259,o),
(270,265,o),
(270,271,cs),
(270,276,o),
(275,280,o),
(288,290,cs),
(429,399,ls),
(453,418,o),
(493,427,o),
(493,443,cs),
(493,450,o),
(490,450,o),
(473,450,cs),
(459,450,o),
(444,450,o),
(400,450,cs),
(347,450,o),
(335,450,o),
(323,450,cs),
(307,450,o),
(303,450,o),
(303,443,cs),
(303,435,o),
(310,430,o),
(343,405,cs),
(348,401,o),
(352,399,o),
(352,396,cs),
(352,393,o),
(349,389,o),
(345,386,cs),
(210,271,ls),
(202,264,o),
(198,262,o),
(195,262,cs),
(192,262,o),
(191,264,o),
(191,271,cs)
);
}
);
width = 558;
},
{
anchors = (
{
name = bottom;
pos = (369,0);
}
);
layerId = m002;
shapes = (
{
closed = 1;
nodes = (
(191,731,ls),
(191,739,o),
(190,746,o),
(181,746,cs),
(176,746,o),
(168,743,o),
(161,740,cs),
(68,702,ls),
(56,697,o),
(54,694,o),
(54,690,cs),
(54,686,o),
(58,682,o),
(66,675,cs),
(102,644,ls),
(111,636,o),
(111,631,o),
(111,616,cs),
(111,68,ls),
(111,52,o),
(111,48,o),
(95,40,cs),
(58,21,ls),
(48,16,o),
(48,12,o),
(48,9,cs),
(48,4,o),
(51,0,o),
(58,0,cs),
(252,0,ls),
(259,0,o),
(262,3,o),
(262,9,cs),
(262,12,o),
(262,16,o),
(252,20,cs),
(199,42,ls),
(191,45,o),
(191,52,o),
(191,68,cs),
(191,223,ls),
(191,229,o),
(192,232,o),
(195,232,cs),
(198,232,o),
(200,230,o),
(210,219,cs),
(377,29,ls),
(395,8,o),
(407,0,o),
(438,0,cs),
(519,0,ls),
(527,0,o),
(530,4,o),
(530,8,cs),
(530,14,o),
(528,17,o),
(519,22,cs),
(481,42,ls),
(466,50,o),
(456,61,o),
(446,72,cs),
(288,246,ls),
(276,259,o),
(270,265,o),
(270,271,cs),
(270,276,o),
(275,280,o),
(288,290,cs),
(429,399,ls),
(453,418,o),
(493,427,o),
(493,443,cs),
(493,450,o),
(490,450,o),
(473,450,cs),
(459,450,o),
(444,450,o),
(400,450,cs),
(347,450,o),
(335,450,o),
(323,450,cs),
(307,450,o),
(303,450,o),
(303,443,cs),
(303,435,o),
(310,430,o),
(343,405,cs),
(348,401,o),
(352,399,o),
(352,396,cs),
(352,393,o),
(349,389,o),
(345,386,cs),
(210,271,ls),
(202,264,o),
(198,262,o),
(195,262,cs),
(192,262,o),
(191,264,o),
(191,271,cs)
);
}
);
width = 632;
},
{
anchors = (
{
name = bottom;
pos = (295,0);
}
);
associatedMasterId = m01;
layerId = "B2829AF3-42A8-4022-96A4-6373E5473744";
name = "Feb 1, 22, 22:47";
shapes = (
{
closed = 1;
nodes = (
(262,0,l),
(262,16,l),
(191,45,l),
(191,750,l),
(185,750,l),
(51,695,l),
(51,688,l),
(111,636,l),
(111,48,l),
(48,16,l),
(48,0,l)
);
},
{
closed = 1;
nodes = (
(530,0,l),
(530,16,l),
(466,50,l),
(244,294,l),
(244,257,l),
(429,399,l),
(493,434,l),
(493,450,l),
(303,450,l),
(303,434,l),
(352,398,l),
(352,392,l),
(191,255,l),
(191,240,l),
(360,52,l),
(398,0,l)
);
}
);
visible = 1;
width = 558;
},
{
anchors = (
{
name = bottom;
pos = (369,0);
}
);
associatedMasterId = m002;
layerId = "38C1DA68-892B-4190-A505-A9BE577862FB";
name = "Feb 8, 22, 22:27";
shapes = (
{
closed = 1;
nodes = (
(329,0,l),
(329,16,l),
(269,48,l),
(269,750,l),
(253,750,l),
(23,695,l),
(23,679,l),
(89,636,l),
(89,48,l),
(20,16,l),
(20,0,l)
);
},
{
closed = 1;
nodes = (
(642,0,l),
(642,16,l),
(578,50,l),
(379,357,l),
(379,292,l),
(524,409,l),
(588,444,l),
(588,460,l),
(363,460,l),
(363,444,l),
(412,408,l),
(412,402,l),
(263,260,l),
(263,245,l),
(380,52,l),
(406,0,l)
);
}
);
width = 632;
}
);
unicode = 107;
},
{
color = 5;
glyphname = l;
kernLeft = kernLC_l2;
kernRight = kernLC_l1;
layers = (
{
anchors = (
{
name = bottom;
pos = (147,0);
},
{
name = mid;
pos = (295,300);
},
{
name = right;
pos = (313,740);
},
{
name = top;
pos = (147,765);
}
);
layerId = m01;
shapes = (
{
closed = 1;
nodes = (
(240,0,ls),
(247,0,o),
(250,3,o),
(250,9,cs),
(250,12,o),
(250,16,o),
(240,21,cs),
(195,44,ls),
(187,48,o),
(187,52,o),
(187,68,cs),
(187,731,ls),
(187,739,o),
(186,746,o),
(177,746,cs),
(172,746,o),
(164,743,o),
(157,740,cs),
(64,702,ls),
(52,697,o),
(50,694,o),
(50,690,cs),
(50,686,o),
(54,682,o),
(62,675,cs),
(98,644,ls),
(107,636,o),
(107,631,o),
(107,616,cs),
(107,68,ls),
(107,52,o),
(107,48,o),
(91,40,cs),
(54,21,ls),
(44,16,o),
(44,12,o),
(44,9,cs),
(44,4,o),
(47,0,o),
(54,0,cs)
);
}
);
width = 294;
},
{
anchors = (
{
name = bottom;
pos = (179,0);
},
{
name = mid;
pos = (397,300);
},
{
name = right;
pos = (389,740);
},
{
name = top;
pos = (179,765);
}
);
layerId = m002;
shapes = (
{
closed = 1;
nodes = (
(240,0,ls),
(247,0,o),
(250,3,o),
(250,9,cs),
(250,12,o),
(250,16,o),
(240,21,cs),
(195,44,ls),
(187,48,o),
(187,52,o),
(187,68,cs),
(187,731,ls),
(187,739,o),
(186,746,o),
(177,746,cs),
(172,746,o),
(164,743,o),
(157,740,cs),
(64,702,ls),
(52,697,o),
(50,694,o),
(50,690,cs),
(50,686,o),
(54,682,o),
(62,675,cs),
(98,644,ls),
(107,636,o),
(107,631,o),
(107,616,cs),
(107,68,ls),
(107,52,o),
(107,48,o),
(91,40,cs),
(54,21,ls),
(44,16,o),
(44,12,o),
(44,9,cs),
(44,4,o),
(47,0,o),
(54,0,cs)
);
}
);
width = 346;
},
{
anchors = (
{
name = bottom;
pos = (147,0);
},
{
name = mid;
pos = (295,300);
},
{
name = right;
pos = (313,740);
},
{
name = top;
pos = (147,765);
}
);
associatedMasterId = m01;
layerId = "EFB65A4D-6767-48CB-A5AA-9B4B3ADCFA88";
name = "Feb 1, 22, 22:30";
shapes = (
{
closed = 1;
nodes = (
(250,0,l),
(250,16,l),
(187,48,l),
(187,750,l),
(181,750,l),
(47,695,l),
(47,688,l),
(107,636,l),
(107,48,l),
(44,16,l),
(44,0,l)
);
}
);
visible = 1;
width = 294;
}
);
unicode = 108;
},
{
color = 5;
glyphname = m;
kernLeft = kernLC_n2;
kernRight = kernLC_n1;
layers = (
{
anchors = (
{
name = bottom;
pos = (431,0);
}
);
layerId = m01;
shapes = (
{
closed = 1;
nodes = (
(246,0,ls),
(253,0,o),
(256,3,o),
(256,8,cs),
(256,11,o),
(256,16,o),
(244,22,cs),
(207,40,ls),
(191,48,o),
(191,53,o),
(191,68,cs),
(191,296,ls),
(191,359,o),
(230,386,o),
(299,386,cs),
(365,386,o),
(391,348,o),
(391,285,cs),
(391,68,ls),
(391,54,o),
(391,48,o),
(372,39,cs),
(345,26,ls),
(324,16,o),
(324,12,o),
(324,8,cs),
(324,3,o),
(327,0,o),
(334,0,cs),
(530,0,ls),
(537,0,o),
(540,3,o),
(540,9,cs),
(540,12,o),
(540,16,o),
(527,22,cs),
(486,41,ls),
(471,48,o),
(471,54,o),
(471,68,cs),
(471,296,ls),
(471,359,o),
(520,386,o),
(578,386,cs),
(646,386,o),
(680,351,o),
(680,296,cs),
(679,68,ls),
(679,54,o),
(679,48,o),
(659,39,cs),
(619,21,ls),
(608,16,o),
(608,12,o),
(608,8,cs),
(608,4,o),
(611,0,o),
(618,0,cs),
(812,0,ls),
(819,0,o),
(822,3,o),
(822,9,cs),
(822,12,o),
(822,16,o),
(812,21,cs),
(771,42,ls),
(759,48,o),
(759,54,o),
(759,68,cs),
(760,329,ls),
(760,421,o),
(711,460,o),
(623,460,cs),
(564,460,o),
(530,434,o),
(494,397,cs),
(484,387,o),
(479,386,o),
(473,386,cs),
(468,386,o),
(463,394,o),
(457,403,cs),
(445,425,o),
(419,460,o),
(344,460,cs),
(255,460,o),
(205,392,o),
(196,392,cs),
(192,392,o),
(188,395,o),
(188,404,cs),
(188,445,ls),
(188,453,o),
(184,456,o),
(177,456,cs),
(169,456,o),
(144,446,o),
(83,419,cs),
(63,410,o),
(57,406,o),
(57,400,cs),
(57,396,o),
(58,392,o),
(65,386,cs),
(96,359,ls),
(111,346,o),
(111,338,o),
(111,326,cs),
(111,68,ls),
(111,53,o),
(111,48,o),
(97,41,cs),
(58,21,ls),
(48,16,o),
(48,12,o),
(48,8,cs),
(48,3,o),
(51,0,o),
(58,0,cs)
);
}
);
width = 860;
},
{
anchors = (
{
name = bottom;
pos = (468,0);
}
);
layerId = m002;
shapes = (
{
closed = 1;
nodes = (
(296,0,ls),
(303,0,o),
(306,3,o),
(306,8,cs),
(306,11,o),
(306,16,o),
(296,25,cs),
(283,36,ls),
(269,48,o),
(269,53,o),
(269,68,cs),
(269,316,ls),
(269,346,o),
(295,366,o),
(323,366,cs),
(358,366,o),
(378,346,o),
(378,300,cs),
(378,68,ls),
(378,54,o),
(378,48,o),
(369,40,cs),
(356,29,ls),
(341,16,o),
(341,13,o),
(341,9,cs),
(341,4,o),
(344,0,o),
(351,0,cs),
(586,0,ls),
(593,0,o),
(596,3,o),
(596,9,cs),
(596,12,o),
(596,16,o),
(586,24,cs),
(571,37,ls),
(558,48,o),
(558,54,o),
(558,68,cs),
(558,306,ls),
(558,339,o),
(572,366,o),
(609,366,cs),
(668,366,o),
(670,321,o),
(670,296,cs),
(669,68,ls),
(669,54,o),
(669,48,o),
(657,38,cs),
(643,26,ls),
(633,18,o),
(631,12,o),
(631,8,cs),
(631,4,o),
(634,0,o),
(641,0,cs),
(908,0,ls),
(915,0,o),
(918,3,o),
(918,9,cs),
(918,12,o),
(918,16,o),
(905,22,cs),
(861,42,ls),
(849,48,o),
(849,54,o),
(849,68,cs),
(850,329,ls),
(850,421,o),
(797,470,o),
(709,470,cs),
(650,470,o),
(599,428,o),
(574,406,cs),
(565,398,o),
(561,396,o),
(555,396,cs),
(550,396,o),
(547,402,o),
(541,411,cs),
(529,433,o),
(497,470,o),
(422,470,cs),
(333,470,o),
(283,396,o),
(274,396,cs),
(270,396,o),
(266,399,o),
(266,408,cs),
(266,459,ls),
(266,467,o),
(262,470,o),
(255,470,cs),
(247,470,o),
(113,434,o),
(49,413,cs),
(31,407,o),
(23,403,o),
(23,397,cs),
(23,393,o),
(23,389,o),
(31,385,cs),
(73,364,ls),
(89,356,o),
(89,350,o),
(89,336,cs),
(89,68,ls),
(89,53,o),
(89,48,o),
(76,42,cs),
(30,21,ls),
(20,17,o),
(20,12,o),
(20,8,cs),
(20,3,o),
(23,0,o),
(30,0,cs)
);
}
);
width = 928;
}
);
unicode = 109;
},
{
color = 5;
glyphname = n;
kernLeft = kernLC_n2;
kernRight = kernLC_n1;
layers = (
{
anchors = (
{
name = bottom;
pos = (296,0);
},
{
name = top;
pos = (296,510);
}
);
layerId = m01;
shapes = (
{
closed = 1;
nodes = (
(252,0,ls),
(259,0,o),
(262,3,o),
(262,9,cs),
(262,12,o),
(262,16,o),
(251,21,cs),
(205,42,ls),
(191,48,o),
(191,58,o),
(191,68,cs),
(191,335,ls),
(191,345,o),
(191,351,o),
(200,358,cs),
(222,375,o),
(269,386,o),
(299,386,cs),
(372,386,o),
(401,357,o),
(401,285,cs),
(401,68,ls),
(401,58,o),
(401,48,o),
(390,43,cs),
(339,20,ls),
(330,16,o),
(330,12,o),
(330,9,cs),
(330,4,o),
(333,0,o),
(340,0,cs),
(534,0,ls),
(541,0,o),
(544,4,o),
(544,9,cs),
(544,12,o),
(544,16,o),
(534,21,cs),
(493,42,ls),
(481,48,o),
(481,58,o),
(481,68,cs),
(481,320,ls),
(481,395,o),
(452,460,o),
(347,460,cs),
(283,460,o),
(235,423,o),
(214,404,cs),
(202,393,o),
(199,390,o),
(195,390,cs),
(191,390,o),
(189,395,o),
(188,404,cs),
(183,445,ls),
(182,453,o),
(179,457,o),
(174,457,cs),
(168,457,o),
(162,454,o),
(152,450,cs),
(60,409,ls),
(53,406,o),
(53,403,o),
(53,401,cs),
(53,397,o),
(58,392,o),
(66,385,cs),
(101,355,ls),
(111,346,o),
(111,342,o),
(111,326,cs),
(111,68,ls),
(111,58,o),
(111,48,o),
(97,41,cs),
(58,21,ls),
(48,16,o),
(48,12,o),
(48,9,cs),
(48,3,o),
(51,0,o),
(58,0,cs)
);
}
);
width = 582;
},
{
anchors = (
{
name = bottom;
pos = (326,0);
},
{
name = top;
pos = (326,510);
}
);
layerId = m002;
shapes = (
{
closed = 1;
nodes = (
(296,0,ls),
(303,0,o),
(306,4,o),
(306,9,cs),
(306,13,o),
(306,16,o),
(298,23,cs),
(283,36,ls),
(269,48,o),
(269,55,o),
(269,68,cs),
(269,326,ls),
(269,337,o),
(269,346,o),
(277,351,cs),
(290,359,o),
(308,366,o),
(327,366,cs),
(353,366,o),
(382,356,o),
(382,294,cs),
(382,68,ls),
(382,55,o),
(382,48,o),
(372,39,cs),
(353,23,ls),
(345,16,o),
(345,12,o),
(345,9,cs),
(345,4,o),
(348,0,o),
(355,0,cs),
(621,0,ls),
(628,0,o),
(631,4,o),
(631,9,cs),
(631,12,o),
(631,16,o),
(618,22,cs),
(574,42,ls),
(562,48,o),
(562,58,o),
(562,68,cs),
(562,320,ls),
(562,406,o),
(528,470,o),
(423,470,cs),
(349,470,o),
(311,431,o),
(290,412,cs),
(278,401,o),
(276,399,o),
(272,399,cs),
(268,399,o),
(267,404,o),
(266,413,cs),
(261,454,ls),
(260,463,o),
(258,470,o),
(248,470,cs),
(243,470,o),
(236,468,o),
(226,465,cs),
(43,411,ls),
(24,405,o),
(23,400,o),
(23,397,cs),
(23,393,o),
(23,389,o),
(35,383,cs),
(79,361,ls),
(89,356,o),
(89,348,o),
(89,332,cs),
(89,68,ls),
(89,58,o),
(89,48,o),
(76,42,cs),
(30,21,ls),
(20,16,o),
(20,12,o),
(20,9,cs),
(20,3,o),
(23,0,o),
(30,0,cs)
);
}
);
width = 641;
},
{
anchors = (
{
name = bottom;
pos = (296,0);
},
{
name = top;
pos = (296,510);
}
);
associatedMasterId = m01;
layerId = "F66C4A59-F1E6-4545-902A-6FDDF62A20F1";
name = "Jan 19, 22, 22:22";
shapes = (
{
closed = 1;
nodes = (
(262,0,l),
(262,16,l),
(191,48,l),
(191,380,l),
(181,460,l),
(175,460,l),
(51,405,l),
(51,398,l),
(111,346,l),
(111,48,l),
(48,16,l),
(48,0,l)
);
},
{
closed = 1;
nodes = (
(544,0,l),
(544,16,l),
(481,48,l),
(481,343,ls),
(481,420,o),
(425,460,o),
(347,460,cs),
(290,460,o),
(246,437,o),
(195,386,c),
(183,386,l),
(183,342,l),
(205,371,o),
(262,386,o),
(302,386,cs),
(360,386,o),
(401,355,o),
(401,296,cs),
(401,48,l),
(330,16,l),
(330,0,l)
);
}
);
width = 582;
},
{
anchors = (
{
name = bottom;
pos = (326,0);
},
{
name = top;
pos = (326,510);
}
);
associatedMasterId = m002;
layerId = "6D236B57-4AB3-48DE-9198-44D689FCC1F2";
name = "Jan 20, 22, 16:13";
shapes = (
{
closed = 1;
nodes = (
(306,0,l),
(306,16,l),
(269,48,l),
(269,390,l),
(259,470,l),
(243,470,l),
(23,405,l),
(23,389,l),
(89,356,l),
(89,48,l),
(20,16,l),
(20,0,l)
);
},
{
closed = 1;
nodes = (
(631,0,l),
(631,16,l),
(562,48,l),
(562,343,ls),
(562,427,o),
(504,470,o),
(421,470,cs),
(356,470,o),
(318,440,o),
(273,396,c),
(261,396,l),
(261,339,l),
(277,354,o),
(304,366,o),
(326,366,cs),
(359,366,o),
(382,345,o),
(382,306,cs),
(382,48,l),
(345,16,l),
(345,0,l)
);
}
);
visible = 1;
width = 641;
}
);
unicode = 110;
},
{
color = 5;
glyphname = o;
kernLeft = kernLC_o2;
kernRight = kernLC_o1;
layers = (
{
anchors = (
{
name = bottom;
pos = (276,0);
},
{
name = right;
pos = (306,0);
},
{
name = top;
pos = (267,510);
}
);
layerId = m01;
shapes = (
{
closed = 1;
nodes = (
(401,-10,o),
(490,91,o),
(490,225,cs),
(490,359,o),
(401,460,o),
(270,460,cs),
(139,460,o),
(50,359,o),
(50,225,cs),
(50,91,o),
(139,-10,o),
(270,-10,cs)
);
},
{
closed = 1;
nodes = (
(183,33,o),
(142,140,o),
(142,246,cs),
(142,333,o),
(176,418,o),
(258,418,cs),
(359,418,o),
(398,311,o),
(398,205,cs),
(398,119,o),
(365,33,o),
(284,33,cs)
);
}
);
width = 540;
},
{
anchors = (
{
name = bottom;
pos = (276,0);
},
{
name = right;
pos = (318,0);
},
{
name = top;
pos = (276,510);
}
);
layerId = m002;
shapes = (
{
closed = 1;
nodes = (
(425,-10,o),
(527,102,o),
(527,230,cs),
(527,359,o),
(425,470,o),
(276,470,cs),
(127,470,o),
(25,359,o),
(25,230,cs),
(25,102,o),
(127,-10,o),
(276,-10,cs)
);
},
{
closed = 1;
nodes = (
(229,43,o),
(205,139.646,o),
(205,251,cs),
(205,343.541,o),
(224,418,o),
(269,418,cs),
(324,418,o),
(347,321.354,o),
(347,210,cs),
(347,118.522,o),
(328,43,o),
(285,43,cs)
);
}
);
width = 552;
},
{
anchors = (
{
name = bottom;
pos = (276,0);
},
{
name = right;
pos = (306,0);
},
{
name = top;
pos = (267,510);
}
);
associatedMasterId = m01;
layerId = "4CBBB6A8-6555-465B-8A5C-1EA5702F162B";
name = "Jan 20, 22, 10:37";
shapes = (
{
closed = 1;
nodes = (
(401,-10,o),
(490,91,o),
(490,225,cs),
(490,359,o),
(401,460,o),
(270,460,cs),
(139,460,o),
(50,359,o),
(50,225,cs),
(50,91,o),
(139,-10,o),
(270,-10,cs)
);
},
{
closed = 1;
nodes = (
(182.703,33,o),
(140,140,o),
(140,246,cs),
(140,333,o),
(176,418,o),
(258,418,cs),
(359,418,o),
(400,311,o),
(400,205,cs),
(400,119,o),
(365.299,33,o),
(284,33,cs)
);
}
);
visible = 1;
width = 540;
}
);
unicode = 111;
},
{
color = 5;
glyphname = oslash;
kernLeft = kernLC_o2;
kernRight = kernLC_o1;
layers = (
{
anchors = (
{
name = top;
pos = (267,510);
}
);
layerId = m01;
shapes = (
{
closed = 1;
nodes = (
(401,-10,o),
(490,91,o),
(490,225,cs),
(490,284,o),
(472,337,o),
(442,377,cs),
(439,381,o),
(436,384,o),
(436,388,cs),
(436,392,o),
(438,394,o),
(440,397,cs),
(471,436,ls),
(476,442,o),
(483,451,o),
(483,455,cs),
(483,459,o),
(480,460,o),
(475,460,cs),
(435,460,ls),
(426,460,o),
(421,457,o),
(416,450,cs),
(402,433,ls),
(399,430,o),
(396,426,o),
(393,426,cs),
(390,426,o),
(386,428,o),
(382,431,cs),
(350,450,o),
(312,460,o),
(270,460,cs),
(139,460,o),
(50,359,o),
(50,225,cs),
(50,165,o),
(68,112,o),
(99,72,cs),
(102,68,o),
(104,65,o),
(104,62,cs),
(104,59,o),
(102,55,o),
(100,53,cs),
(65,9,ls),
(59,2,o),
(57,-2,o),
(57,-5,cs),
(57,-8,o),
(59,-10,o),
(63,-10,cs),
(103,-10,ls),
(111,-10,o),
(119,-6,o),
(124,0,cs),
(141,21,ls),
(143,23,o),
(145,25,o),
(147,25,cs),
(149,25,o),
(153,22,o),
(157,20,cs),
(189,0,o),
(227,-10,o),
(270,-10,cs)
);
},
{
closed = 1;
nodes = (
(158,136,o),
(156,140,o),
(154,146,cs),
(144,177,o),
(140,211,o),
(140,246,cs),
(140,333,o),
(176,418,o),
(258,418,cs),
(292,418,o),
(320,405,o),
(341,384,cs),
(346,380,o),
(349,375,o),
(349,371,cs),
(349,367,o),
(346,362,o),
(341,356,cs),
(171,143,ls),
(167,138,o),
(165,136,o),
(160,136,cs)
);
},
{
closed = 1;
nodes = (
(248,33,o),
(223,44,o),
(198,69,cs),
(194,73,o),
(191,76,o),
(191,80,cs),
(191,85,o),
(194,87,o),
(197,91,cs),
(366,304,ls),
(371,310,o),
(375,316,o),
(379,316,cs),
(382,316,o),
(384,311,o),
(386,305,cs),
(396,274,o),
(400,239,o),
(400,205,cs),
(400,119,o),
(365,33,o),
(284,33,cs)
);
}
);
width = 540;
},
{
anchors = (
{
name = top;
pos = (276,510);
}
);
layerId = m002;
shapes = (
{
closed = 1;
nodes = (
(415,-10,o),
(527,91,o),
(527,225,cs),
(527,292,o),
(505,348,o),
(468,387,cs),
(465,391,o),
(463,391,o),
(463,395,cs),
(463,399,o),
(464,401,o),
(467,404,cs),
(505,446,ls),
(512,453,o),
(518,461,o),
(518,465,cs),
(518,469,o),
(515,470,o),
(510,470,cs),
(467,470,ls),
(458,470,o),
(454,469,o),
(447,460,cs),
(428,438,ls),
(425,435,o),
(422,431,o),
(419,431,cs),
(416,431,o),
(412,433,o),
(408,436,cs),
(376,455,o),
(330,470,o),
(270,470,cs),
(139,470,o),
(25,369,o),
(25,225,cs),
(25,165,o),
(49,115,o),
(83,75,cs),
(86,71,o),
(88,68,o),
(88,65,cs),
(88,62,o),
(86,58,o),
(84,56,cs),
(42,9,ls),
(35,2,o),
(34,-2,o),
(34,-5,cs),
(34,-8,o),
(36,-10,o),
(40,-10,cs),
(84,-10,ls),
(92,-10,o),
(100,-5,o),
(105,0,cs),
(128,25,ls),
(130,27,o),
(132,29,o),
(134,29,cs),
(136,29,o),
(140,26,o),
(144,24,cs),
(176,4,o),
(227,-10,o),
(270,-10,cs)
);
},
{
closed = 1;
nodes = (
(210,204,o),
(206,209,o),
(206,214,cs),
(205,230,o),
(205,251,o),
(205,266,cs),
(205,353,o),
(226,418,o),
(268,418,cs),
(302,418,o),
(316,390,o),
(327,358,cs),
(329,353,o),
(331,343,o),
(331,339,cs),
(331,335,o),
(328,330,o),
(323,324,cs),
(223,211,ls),
(219,206,o),
(217,204,o),
(212,204,cs)
);
},
{
closed = 1;
nodes = (
(253,43,o),
(236,73,o),
(223,108,cs),
(221,113,o),
(219,120,o),
(219,124,cs),
(219,129,o),
(226,134,o),
(229,138,cs),
(329,250,ls),
(334,256,o),
(338,262,o),
(342,262,cs),
(345,262,o),
(346,257,o),
(346,251,cs),
(346,235,o),
(346,221,o),
(346,187,cs),
(346,101,o),
(321,43,o),
(284,43,cs)
);
}
);
width = 552;
},
{
anchors = (
{
name = top;
pos = (267,510);
}
);
associatedMasterId = m01;
layerId = "3076C4F0-F134-43F6-B7D5-A38DBB6F1AF4";
name = "Dec 22, 21, 13:16";
shapes = (
{
closed = 1;
nodes = (
(401,-10,o),
(490,91,o),
(490,225,cs),
(490,359,o),
(401,460,o),
(270,460,cs),
(139,460,o),
(50,359,o),
(50,225,cs),
(50,91,o),
(139,-10,o),
(270,-10,cs)
);
},
{
closed = 1;
nodes = (
(183,33,o),
(140,140,o),
(140,246,cs),
(140,333,o),
(176,418,o),
(258,418,cs),
(359,418,o),
(400,311,o),
(400,205,cs),
(400,119,o),
(365,33,o),
(284,33,cs)
);
},
{
closed = 1;
nodes = (
(116,-10,l),
(490,460,l),
(424,460,l),
(50,-10,l)
);
}
);
width = 540;
},
{
anchors = (
{
name = top;
pos = (276,510);
}
);
associatedMasterId = m002;
layerId = "0B319F0A-1186-4BAF-8537-FE2E6BC8C6C3";
name = "Dec 22, 21, 13:16";
shapes = (
{
closed = 1;
nodes = (
(425,-10,o),
(527,102,o),
(527,230,cs),
(527,359,o),
(425,470,o),
(276,470,cs),
(127,470,o),
(25,359,o),
(25,230,cs),
(25,102,o),
(127,-10,o),
(276,-10,cs)
);
},
{
closed = 1;
nodes = (
(229,43,o),
(205,140,o),
(205,251,cs),
(205,344,o),
(224,418,o),
(269,418,cs),
(324,418,o),
(347,321,o),
(347,210,cs),
(347,119,o),
(328,43,o),
(285,43,cs)
);
},
{
closed = 1;
nodes = (
(96,-10,l),
(527,470,l),
(456,470,l),
(25,-10,l)
);
}
);
visible = 1;
width = 552;
}
);
unicode = 248;
},
{
color = 5;
glyphname = oe;
kernLeft = kernLC_o2;
kernRight = kernLC_e1;
layers = (
{
layerId = m01;
shapes = (
{
closed = 1;
nodes = (
(341,-10,o),
(398,19,o),
(438,67,cs),
(439,69,o),
(442,72,o),
(445,72,cs),
(448,72,o),
(450,69,o),
(453,65,cs),
(487,20,o),
(541,-10,o),
(622,-10,cs),
(723,-10,o),
(786,67,o),
(786,83,cs),
(786,92,o),
(783,95,o),
(776,95,cs),
(761,95,o),
(724,65,o),
(668,65,cs),
(538,65,o),
(491,153,o),
(491,223,cs),
(491,234,o),
(498,242,o),
(510,242,cs),
(770,242,ls),
(783,242,o),
(792,252,o),
(792,267,cs),
(792,375,o),
(732,460,o),
(622,460,cs),
(564,460,o),
(504,428,o),
(463,373,cs),
(460,369,o),
(457,365,o),
(454,365,cs),
(451,365,o),
(449,368,o),
(446,372,cs),
(407,426,o),
(346,460,o),
(270,460,cs),
(139,460,o),
(50,359,o),
(50,225,cs),
(50,91,o),
(139,-10,o),
(270,-10,cs)
);
},
{
closed = 1;
nodes = (
(183,33,o),
(140,140,o),
(140,246,cs),
(140,333,o),
(176,418,o),
(258,418,cs),
(359,418,o),
(400,311,o),
(400,205,cs),
(400,119,o),
(365,33,o),
(284,33,cs)
);
},
{
closed = 1;
nodes = (
(495,344,o),
(536,416,o),
(608,416,cs),
(675,416,o),
(713,350,o),
(713,304,cs),
(713,294,o),
(706,288,o),
(696,288,cs),
(511,288,ls),
(500,288,o),
(495,294,o),
(495,304,cs)
);
}
);
width = 845;
},
{
layerId = m002;
shapes = (
{
closed = 1;
nodes = (
(331,-10,o),
(373,2,o),
(420,32,cs),
(423,34,o),
(426,36,o),
(429,36,cs),
(432,36,o),
(435,34,o),
(438,32,cs),
(477,5,o),
(527,-10,o),
(586,-10,cs),
(717,-10,o),
(798,97,o),
(798,122,cs),
(798,133,o),
(792,138,o),
(782,138,cs),
(761,138,o),
(747,119,o),
(671,119,cs),
(573,119,o),
(527,173,o),
(527,243,cs),
(527,254,o),
(534,262,o),
(546,262,cs),
(774,262,ls),
(787,262,o),
(796,272,o),
(796,287,cs),
(796,385,o),
(734,470,o),
(624,470,cs),
(559,470,o),
(501,451,o),
(455,416,cs),
(452,414,o),
(448,412,o),
(446,412,cs),
(444,412,o),
(442,413,o),
(439,415,cs),
(397,449,o),
(340,470,o),
(276,470,cs),
(127,470,o),
(25,359,o),
(25,230,cs),
(25,102,o),
(127,-10,o),
(276,-10,cs)
);
},
{
closed = 1;
nodes = (
(229,43,o),
(205,140,o),
(205,251,cs),
(205,344,o),
(224,418,o),
(269,418,cs),
(324,418,o),
(347,321,o),
(347,210,cs),
(347,119,o),
(328,43,o),
(285,43,cs)
);
},
{
closed = 1;
nodes = (
(530,362,o),
(560,425,o),
(596,425,cs),
(640,425,o),
(662,372,o),
(662,322,cs),
(662,312,o),
(655,306,o),
(645,306,cs),
(546,306,ls),
(535,306,o),
(530,312,o),
(530,322,cs)
);
}
);
width = 828;
},
{
associatedMasterId = m01;
layerId = "625C369D-F91B-4F40-B282-FB54091A1F53";
name = "Dec 22, 21, 14:48";
shapes = (
{
closed = 1;
nodes = (
(352,-10,o),
(417,29,o),
(455,91,c),
(437,91,l),
(470,28,o),
(534,-10,o),
(620,-10,cs),
(701,-10,o),
(764,37,o),
(795,95,c),
(795,105,l),
(792,105,l),
(742,78,o),
(700,65,o),
(663,65,cs),
(532,65,o),
(490,155,o),
(490,251,cs),
(490,355,o),
(535,416,o),
(608,416,cs),
(667,416,o),
(704,377,o),
(719,284,c),
(737,288,l),
(480,288,l),
(480,242,l),
(789,242,l),
(794,247,l),
(794,384,o),
(729,460,o),
(624,460,cs),
(551,460,o),
(484,416,o),
(445,345,c),
(462,345,l),
(426,415,o),
(358,460,o),
(270,460,cs),
(139,460,o),
(50,359,o),
(50,225,cs),
(50,91,o),
(139,-10,o),
(270,-10,cs)
);
},
{
closed = 1;
nodes = (
(183,33,o),
(140,140,o),
(140,246,cs),
(140,333,o),
(176,418,o),
(258,418,cs),
(359,418,o),
(400,311,o),
(400,205,cs),
(400,119,o),
(365,33,o),
(284,33,cs)
);
}
);
width = 845;
},
{
associatedMasterId = m002;
layerId = "71E47F38-206A-4E2D-B837-B79E55FC2FD1";
name = "Dec 22, 21, 14:48";
shapes = (
{
closed = 1;
nodes = (
(360,-10,o),
(429,26,o),
(473,80,c),
(391,80,l),
(430,23,o),
(497,-10,o),
(586,-10,cs),
(687,-10,o),
(764,46,o),
(798,124,c),
(798,145,l),
(795,145,l),
(753,124,o),
(710,119,o),
(671,119,cs),
(573,119,o),
(527,171,o),
(527,247,cs),
(527,359,o),
(552,425,o),
(596,425,cs),
(635,425,o),
(658,396,o),
(664,294,c),
(720,306,l),
(463,306,l),
(463,262,l),
(794,262,l),
(797,267,l),
(795,395,o),
(734,470,o),
(624,470,cs),
(535,470,o),
(458,433,o),
(409,372,c),
(481,372,l),
(437,431,o),
(365,470,o),
(276,470,cs),
(127,470,o),
(25,359,o),
(25,230,cs),
(25,102,o),
(127,-10,o),
(276,-10,cs)
);
},
{
closed = 1;
nodes = (
(229,43,o),
(205,140,o),
(205,251,cs),
(205,344,o),
(224,418,o),
(269,418,cs),
(324,418,o),
(347,321,o),
(347,210,cs),
(347,119,o),
(328,43,o),
(285,43,cs)
);
}
);
visible = 1;
width = 828;
}
);
unicode = 339;
},
{
color = 5;
glyphname = p;
kernLeft = kernLC_n2;
kernRight = kernLC_o1;
layers = (
{
layerId = m01;
shapes = (
{
closed = 1;
nodes = (
(79,-235,o),
(103,-230,o),
(146,-230,cs),
(185,-230,o),
(204,-235,o),
(243,-235,cs),
(258,-235,o),
(262,-231,o),
(262,-222,cs),
(262,-202,o),
(191,-199,o),
(191,-172,cs),
(191,-24,ls),
(191,-9,o),
(198,0,o),
(216,0,cs),
(240,0,o),
(257,-10,o),
(292,-10,cs),
(438,-10,o),
(520,105,o),
(520,244,cs),
(520,395,o),
(432,460,o),
(344,460,cs),
(250,460,o),
(203,399,o),
(195,399,cs),
(189,399,o),
(189,404,o),
(188,411,cs),
(184,440,ls),
(183,448,o),
(181,456,o),
(174,456,cs),
(166,456,o),
(161,453,o),
(76,416,cs),
(59,409,o),
(54,406,o),
(54,401,cs),
(54,397,o),
(56,394,o),
(61,389,cs),
(102,354,ls),
(109,348,o),
(111,344,o),
(111,335,cs),
(111,-172,ls),
(111,-193,o),
(48,-203,o),
(48,-222,cs),
(48,-230,o),
(52,-235,o),
(66,-235,cs)
);
},
{
closed = 1;
nodes = (
(244,37,o),
(191,59,o),
(191,102,c),
(191,334,l),
(191,369,o),
(237,391,o),
(289,391,cs),
(362,391,o),
(438,348,o),
(438,218,cs),
(438,107,o),
(402,37,o),
(318,37,cs)
);
}
);
width = 567;
},
{
layerId = m002;
shapes = (
{
closed = 1;
nodes = (
(51,-235,o),
(139,-230,o),
(184,-230,cs),
(219,-230,o),
(305,-235,o),
(332,-235,cs),
(347,-235,o),
(351,-231,o),
(351,-222,cs),
(351,-202,o),
(269,-199,o),
(269,-172,cs),
(269,-27,ls),
(269,-15,o),
(272,-7,o),
(284,-7,cs),
(301,-7,o),
(318,-10,o),
(340,-10,cs),
(486,-10,o),
(579,105,o),
(579,244,cs),
(579,375,o),
(503,470,o),
(415,470,cs),
(327,470,o),
(280,412,o),
(273,412,cs),
(267,412,o),
(266,417,o),
(265,424,cs),
(261,454,ls),
(260,463,o),
(258,469,o),
(251,469,cs),
(237,469,o),
(226,465,o),
(45,412,cs),
(28,407,o),
(23,401,o),
(23,396,cs),
(23,392,o),
(24,388,o),
(30,384,cs),
(80,352,ls),
(88,347,o),
(89,342,o),
(89,333,cs),
(89,-172,ls),
(89,-193,o),
(20,-203,o),
(20,-222,cs),
(20,-230,o),
(24,-235,o),
(38,-235,cs)
);
},
{
closed = 1;
nodes = (
(283,45,o),
(269,63,o),
(269,82,c),
(269,334,l),
(269,369,o),
(282,379,o),
(314,379,cs),
(355,379,o),
(399,336,o),
(399,206,cs),
(399,95,o),
(362,45,o),
(318,45,cs)
);
}
);
width = 604;
}
);
unicode = 112;
},
{
color = 5;
glyphname = thorn;
kernLeft = kernLC_l2;
kernRight = kernLC_o1;
layers = (
{
layerId = m01;
shapes = (
{
closed = 1;
nodes = (
(79,-235,o),
(103,-230,o),
(146,-230,cs),
(185,-230,o),
(204,-235,o),
(243,-235,cs),
(258,-235,o),
(262,-231,o),
(262,-222,cs),
(262,-202,o),
(191,-199,o),
(191,-172,cs),
(191,-24,ls),
(191,-9,o),
(198,0,o),
(216,0,cs),
(240,0,o),
(257,-10,o),
(292,-10,cs),
(438,-10,o),
(520,105,o),
(520,244,cs),
(520,395,o),
(432,460,o),
(344,460,cs),
(250,460,o),
(206,402,o),
(198,402,cs),
(192,402,o),
(191,407,o),
(191,414,cs),
(192,734,ls),
(192,742,o),
(189,750,o),
(182,750,cs),
(174,750,o),
(169,747,o),
(76,706,cs),
(59,699,o),
(54,696,o),
(54,691,cs),
(54,687,o),
(56,684,o),
(61,679,cs),
(102,644,ls),
(109,638,o),
(111,634,o),
(111,625,cs),
(111,-172,ls),
(111,-193,o),
(48,-203,o),
(48,-222,cs),
(48,-230,o),
(52,-235,o),
(66,-235,cs)
);
},
{
closed = 1;
nodes = (
(244,37,o),
(191,59,o),
(191,102,cs),
(191,334,ls),
(191,369,o),
(237,391,o),
(289,391,cs),
(362,391,o),
(438,348,o),
(438,218,cs),
(438,107,o),
(402,37,o),
(318,37,cs)
);
}
);
width = 567;
},
{
layerId = m002;
shapes = (
{
closed = 1;
nodes = (
(51,-235,o),
(139,-230,o),
(184,-230,cs),
(219,-230,o),
(305,-235,o),
(332,-235,cs),
(347,-235,o),
(351,-231,o),
(351,-222,cs),
(351,-202,o),
(269,-199,o),
(269,-172,cs),
(269,-27,ls),
(269,-15,o),
(272,-7,o),
(284,-7,cs),
(301,-7,o),
(318,-10,o),
(340,-10,cs),
(486,-10,o),
(579,105,o),
(579,244,cs),
(579,375,o),
(503,470,o),
(415,470,cs),
(327,470,o),
(284,416,o),
(277,416,cs),
(271,416,o),
(269,421,o),
(269,428,cs),
(269,735,ls),
(269,744,o),
(266,750,o),
(259,750,cs),
(245,750,o),
(234,746,o),
(45,702,cs),
(28,698,o),
(23,691,o),
(23,686,cs),
(23,682,o),
(24,678,o),
(30,674,cs),
(80,642,ls),
(88,637,o),
(89,632,o),
(89,623,cs),
(89,-172,ls),
(89,-193,o),
(20,-203,o),
(20,-222,cs),
(20,-230,o),
(24,-235,o),
(38,-235,cs)
);
},
{
closed = 1;
nodes = (
(283,45,o),
(269,63,o),
(269,82,cs),
(269,334,ls),
(269,369,o),
(282,379,o),
(314,379,cs),
(355,379,o),
(399,336,o),
(399,206,cs),
(399,95,o),
(362,45,o),
(318,45,cs)
);
}
);
width = 599;
},
{
associatedMasterId = m01;
layerId = "4D8089FE-3C08-4D4D-BB6C-3A41695456F9";
name = "Dec 22, 21, 14:59";
shapes = (
{
closed = 1;
nodes = (
(262,-230,l),
(262,-214,l),
(191,-182,l),
(191,750,l),
(175,750,l),
(51,695,l),
(51,688,l),
(111,636,l),
(111,-182,l),
(48,-214,l),
(48,-230,l)
);
},
{
closed = 1;
nodes = (
(417,-10,o),
(519,83,o),
(519,247,cs),
(519,379,o),
(446,460,o),
(345,460,cs),
(291,460,o),
(247,442,o),
(196,399,c),
(181,399,l),
(181,354,l),
(215,379,o),
(254,391,o),
(290,391,cs),
(372,391,o),
(439,337,o),
(439,214,cs),
(439,87,o),
(385,38,o),
(321,38,cs),
(266,38,o),
(224,50,o),
(181,88,c),
(131,20,l),
(174,1,o),
(225,-10,o),
(292,-10,cs)
);
}
);
visible = 1;
width = 567;
},
{
associatedMasterId = m002;
layerId = "7CD4546C-A985-42C3-84D4-4DD2DB1A2174";
name = "Dec 22, 21, 14:59";
shapes = (
{
closed = 1;
nodes = (
(351,-230,l),
(351,-214,l),
(269,-182,l),
(269,750,l),
(253,750,l),
(23,695,l),
(23,679,l),
(89,636,l),
(89,-182,l),
(20,-214,l),
(20,-230,l)
);
},
{
closed = 1;
nodes = (
(467,-10,o),
(579,90,o),
(579,247,cs),
(579,385,o),
(497,470,o),
(415,470,cs),
(365,470,o),
(324,453,o),
(277,414,c),
(257,414,l),
(257,359,l),
(282,372,o),
(292,379,o),
(315,379,cs),
(354,379,o),
(399,328,o),
(399,220,cs),
(399,74,o),
(352,45,o),
(314,45,cs),
(291,45,o),
(271,59,o),
(267,77,c),
(197,37,l),
(241,-1,o),
(287,-10,o),
(343,-10,cs)
);
}
);
width = 599;
}
);
unicode = 254;
},
{
color = 5;
glyphname = q;
kernLeft = kernLC_o2;
kernRight = kernLC_q1;
layers = (
{
layerId = m01;
shapes = (
{
closed = 1;
nodes = (
(502,-230,l),
(511,-230,o),
(519,-229,o),
(519,-220,cs),
(519,-202,o),
(456,-195,o),
(456,-165,cs),
(456,38,o),
(456,236,o),
(456,439,cs),
(456,449,o),
(454,460,o),
(442,460,cs),
(431,460,o),
(417,439,o),
(404,439,cs),
(393,439,o),
(368,460,o),
(285,460,cs),
(158,460,o),
(48,363,o),
(48,194,cs),
(48,47,o),
(145,-10,o),
(215,-10,cs),
(305,-10,o),
(333,31,o),
(364,34,cs),
(374,34,o),
(376,28,o),
(376,18,cs),
(376,-159,ls),
(376,-193,o),
(305,-202,o),
(305,-220,cs),
(305,-228,o),
(312,-230,o),
(325,-230,c)
);
},
{
closed = 1;
nodes = (
(184,59,o),
(128,117,o),
(128,217,cs),
(128,366,o),
(197,411,o),
(271,411,cs),
(325,411,o),
(376,387,o),
(376,356,cs),
(376,113,ls),
(376,92,o),
(314,59,o),
(279,59,cs)
);
}
);
width = 558;
},
{
layerId = m002;
shapes = (
{
closed = 1;
nodes = (
(567,-230,l),
(576,-230,o),
(584,-229,o),
(584,-220,cs),
(584,-202,o),
(515,-195,o),
(515,-165,cs),
(515,38,o),
(515,223,o),
(515,426,cs),
(515,452,o),
(502,470,o),
(480,470,cs),
(446,470,o),
(420,442,o),
(393,442,cs),
(378,442,o),
(362,470,o),
(275,470,cs),
(125,470,o),
(25,363,o),
(25,194,cs),
(25,67,o),
(112,-10,o),
(182,-10,cs),
(272,-10,o),
(292,31,o),
(323,34,cs),
(333,34,o),
(335,28,o),
(335,18,cs),
(335,-159,ls),
(335,-193,o),
(253,-202,o),
(253,-220,cs),
(253,-228,o),
(260,-230,o),
(273,-230,c)
);
},
{
closed = 1;
nodes = (
(247,81,o),
(205,133,o),
(205,223,cs),
(205,372,o),
(235,415,o),
(286,415,cs),
(324,415,o),
(335,403,o),
(335,372,cs),
(335,123,ls),
(335,102,o),
(327,81,o),
(292,81,cs)
);
}
);
width = 594;
}
);
unicode = 113;
},
{
color = 5;
glyphname = r;
kernLeft = kernLC_n2;
kernRight = kernLC_r1;
layers = (
{
anchors = (
{
name = bottom;
pos = (155,0);
},
{
name = top;
pos = (222,510);
}
);
layerId = m01;
shapes = (
{
closed = 1;
nodes = (
(256,0,ls),
(263,0,o),
(266,3,o),
(266,8,cs),
(266,12,o),
(266,16,o),
(255,21,cs),
(213,40,ls),
(195,48,o),
(195,55,o),
(195,68,cs),
(195,297,ls),
(195,361,o),
(241,378,o),
(257,378,cs),
(280,378,o),
(283,350,o),
(323,350,cs),
(359,350,o),
(377,376,o),
(377,409,cs),
(377,440,o),
(348,460,o),
(319,460,cs),
(284,460,o),
(242,445,o),
(208,391,cs),
(206,387,o),
(202,384,o),
(197,384,cs),
(193,384,o),
(192,388,o),
(191,401,cs),
(187,440,ls),
(186,450,o),
(184,457,o),
(178,457,cs),
(172,457,o),
(167,454,o),
(157,450,cs),
(73,413,ls),
(64,409,o),
(58,406,o),
(58,401,cs),
(58,396,o),
(61,393,o),
(70,385,cs),
(107,353,ls),
(115,346,o),
(115,335,o),
(115,325,cs),
(115,68,ls),
(115,55,o),
(115,48,o),
(103,42,cs),
(64,22,ls),
(52,16,o),
(52,13,o),
(52,9,cs),
(52,3,o),
(55,0,o),
(62,0,cs)
);
}
);
width = 397;
},
{
anchors = (
{
name = bottom;
pos = (179,0);
},
{
name = top;
pos = (264,510);
}
);
layerId = m002;
shapes = (
{
closed = 1;
nodes = (
(346,0,ls),
(353,0,o),
(356,4,o),
(356,9,cs),
(356,13,o),
(356,16,o),
(345,20,cs),
(288,41,ls),
(269,48,o),
(269,55,o),
(269,68,cs),
(269,297,ls),
(269,342,o),
(313,358,o),
(329,358,cs),
(341,358,o),
(348,330,o),
(392,330,cs),
(428,330,o),
(459,361,o),
(459,400,cs),
(459,450,o),
(428,471,o),
(389,471,cs),
(354,471,o),
(323,448,o),
(286,396,cs),
(281,389,o),
(279,386,o),
(274,386,cs),
(269,386,o),
(267,388,o),
(265,407,cs),
(262,437,ls),
(261,450,o),
(256,464,o),
(244,464,cs),
(226,464,o),
(199,457,o),
(176,450,cs),
(38,409,ls),
(29,406,o),
(23,402,o),
(23,397,cs),
(23,392,o),
(25,387,o),
(35,381,cs),
(80,352,ls),
(89,346,o),
(89,339,o),
(89,326,cs),
(89,68,ls),
(89,55,o),
(89,48,o),
(76,42,cs),
(31,21,ls),
(20,16,o),
(20,13,o),
(20,9,cs),
(20,3,o),
(23,0,o),
(30,0,cs)
);
}
);
width = 443;
},
{
anchors = (
{
name = bottom;
pos = (155,0);
},
{
name = top;
pos = (222,510);
}
);
associatedMasterId = m01;
layerId = "3209D012-9C79-4F6E-9653-34582E09E762";
name = "Jan 20, 22, 21:20";
shapes = (
{
closed = 1;
nodes = (
(266,0,l),
(266,16,l),
(195,48,l),
(195,367,l),
(185,460,l),
(179,460,l),
(55,405,l),
(55,398,l),
(115,346,l),
(115,48,l),
(52,16,l),
(52,0,l)
);
},
{
closed = 1;
nodes = (
(279,378,o),
(293,377,o),
(308,371,cs),
(346,356,l),
(353,356,l),
(373,405,ls),
(376,412,o),
(377,418,o),
(377,423,cs),
(377,435,o),
(362,445,o),
(347,451,cs),
(338,455,o),
(322,460,o),
(311,460,cs),
(277,460,o),
(244,450,o),
(198,375,c),
(187,375,l),
(187,322,l),
(208,360,o),
(234,378,o),
(266,378,cs)
);
},
{
closed = 1;
nodes = (
(352,350,o),
(377,375,o),
(377,405,cs),
(377,435,o),
(352,460,o),
(322,460,cs),
(292,460,o),
(267,435,o),
(267,405,cs),
(267,375,o),
(292,350,o),
(322,350,cs)
);
}
);
width = 397;
},
{
anchors = (
{
name = bottom;
pos = (179,0);
},
{
name = top;
pos = (264,510);
}
);
associatedMasterId = m002;
layerId = "7CE77838-5918-43B4-AE2E-24479C221FC1";
name = "Jan 20, 22, 22:30";
shapes = (
{
closed = 1;
nodes = (
(356,0,l),
(356,16,l),
(269,48,l),
(269,369,l),
(259,470,l),
(243,470,l),
(23,405,l),
(23,389,l),
(89,346,l),
(89,48,l),
(20,16,l),
(20,0,l)
);
},
{
closed = 1;
nodes = (
(369,359,o),
(381,356,o),
(404,348,cs),
(422,342,l),
(429,342,l),
(456,418,ls),
(458,424,o),
(459,430,o),
(459,434,cs),
(459,446,o),
(451,456,o),
(429,463,cs),
(417,467,o),
(403,470,o),
(391,470,cs),
(350,470,o),
(325,455,o),
(273,377,c),
(261,377,l),
(261,312,l),
(280,339,o),
(310,359,o),
(343,359,cs)
);
},
{
closed = 1;
nodes = (
(428,330,o),
(459,361,o),
(459,400,cs),
(459,439,o),
(428,470,o),
(389,470,cs),
(350,470,o),
(319,439,o),
(319,400,cs),
(319,361,o),
(350,330,o),
(389,330,cs)
);
}
);
width = 443;
}
);
unicode = 114;
},
